<svg xmlns="http://www.w3.org/2000/svg" xmlns:xlink="http://www.w3.org/1999/xlink" width="129" height="129" viewBox="0 0 129 129"><defs><linearGradient id="a" x2="1" y2="1" gradientUnits="objectBoundingBox"><stop offset="0" stop-color="#f76b1c"/><stop offset="1" stop-color="#fad961"/></linearGradient></defs><g transform="translate(-261 -2229)"><circle cx="64.5" cy="64.5" r="64.5" transform="translate(261 2229)" fill="#fff"/><g transform="translate(-3154 -552.081)"><path d="M3524.633,2869.9h-5.442v-26.437h5.442a1.061,1.061,0,0,0,.822-1.731L3492.1,2800.8a1.061,1.061,0,0,0-.823-.391h-23.819c-.033,0-.066,0-.1.005h-.014l-.017,0c-.024,0-.048.007-.071.011l-.018,0-.013,0-.013,0-.063.017-.026.009h0l-.02.007-.041.016-.028.012-.024.011-.02.01-.036.018-.011.006-.031.018-.016.01-.021.013-.022.016-.038.027-.021.017-.014.011c-.021.018-.042.036-.062.056l-.007.007-.01.011c-.018.018-.035.037-.052.057l-.01.01,0,0-33.353,40.933a1.061,1.061,0,0,0,.822,1.731h5.442V2869.9h-5.442a1.061,1.061,0,0,0-1.061,1.061v7.935a1.061,1.061,0,0,0,1.061,1.061h90.524a1.061,1.061,0,0,0,1.061-1.061v-7.935A1.061,1.061,0,0,0,3524.633,2869.9Zm-1.061,7.935h-21.7v-5.813h21.7Zm-88.4-5.813h64.584v5.813h-64.584Zm45.266-69.491,30.711,38.811h-9.828l-7.375-9.05-24.25-29.761Zm-20.863,40.933h15.778V2869.9h-15.778Zm17.9,2.629,6.637,10.589-6.637,10.589Zm.856-2.629h14.066l-3.308,5.278-3.725,5.943Zm10.758,9.272,4.164-6.644v21.179l-4.164-6.644-2.473-3.946Zm5.225-11.394h-24.289l13.027-13.027,2.71-2.709,12.823,15.737Zm-8.95,17.337,3.725,5.943,3.308,5.278h-14.066Zm-1-34.677-2.658,2.658-13.182,13.182v-35.391l15.892,19.5C3484.4,2823.968,3484.379,2823.983,3484.363,2824Zm-30.952,19.462h3.184l-3.184,5.079-3.849,6.142-7.033-11.221Zm0,9.074,4.04-6.445v21.178l-4.04-6.445-2.6-4.144Zm0,12.283,3.184,5.079h-14.066l7.033-11.221Zm41.961,5.079v-26.437h10.62V2869.9ZM3466.4,2839.84,3450.561,2824c-.017-.017-.034-.031-.052-.047l15.892-19.5Zm-18.091,16.84-6.637,10.589V2846.09Zm62.554,13.218h-2.75v-26.437h8.956V2869.9Zm7.267-28.558h-4.278l-30.712-38.811h7.636l31.624,38.811Zm-68.967-15.737,15.737,15.737h-28.559Z" transform="translate(0 0)" fill="url(#a)"/></g></g></svg>