<svg xmlns="http://www.w3.org/2000/svg" xmlns:xlink="http://www.w3.org/1999/xlink" width="129" height="129" viewBox="0 0 129 129"><defs><linearGradient id="a" x2="1" y2="1.116" gradientUnits="objectBoundingBox"><stop offset="0" stop-color="#f76b1c"/><stop offset="1" stop-color="#fad961"/></linearGradient></defs><g transform="translate(-261 -2229)"><circle cx="64.5" cy="64.5" r="64.5" transform="translate(261 2229)" fill="#fff"/><g transform="translate(-2252.048 362.367)"><path d="M2621.875,1918.251a1.029,1.029,0,0,0,1.029-1.029v-4.642a1.029,1.029,0,0,0-1.029-1.029h-6.264v-25.6a1.029,1.029,0,0,0-1.028-1.029h-4.643a1.029,1.029,0,0,0-1.029,1.029v4.586H2589.95v-4.586a1.029,1.029,0,0,0-1.029-1.029h-4.643a1.029,1.029,0,0,0-1.029,1.029v4.586h-18.961v-4.586a1.029,1.029,0,0,0-1.029-1.029h-4.643a1.029,1.029,0,0,0-1.029,1.029v25.6h-5.235v-4.4a1.029,1.029,0,0,0-1.029-1.029h-4.468a1.029,1.029,0,0,0-1.029,1.029v4.262h-6.253v-4.262a1.029,1.029,0,0,0-1.029-1.029h-4.468a1.029,1.029,0,0,0-1.029,1.029v62.668a1.029,1.029,0,0,0,1.029,1.029h4.468a1.029,1.029,0,0,0,1.029-1.029v-4.262h6.253v4.262a1.029,1.029,0,0,0,1.029,1.029h4.468a1.029,1.029,0,0,0,1.029-1.029v-25.91h5.235v18.767h-.2a4.764,4.764,0,0,0-4.759,4.759v2.384a1.029,1.029,0,0,0,1.029,1.029h14.562a1.029,1.029,0,0,0,1.029-1.029v-2.384a4.766,4.766,0,0,0-3.485-4.584l8.006-8.006,8.006,8.006a4.766,4.766,0,0,0-3.485,4.584v2.384a1.029,1.029,0,0,0,1.029,1.029h14.562a1.029,1.029,0,0,0,1.029-1.029v-2.384a4.766,4.766,0,0,0-3.485-4.584l8.006-8.006,8.006,8.006a4.766,4.766,0,0,0-3.485,4.584v2.384a1.029,1.029,0,0,0,1.029,1.029h14.562a1.029,1.029,0,0,0,1.029-1.029v-2.384a4.764,4.764,0,0,0-4.759-4.759h-.2v-18.767h6.264a1.029,1.029,0,0,0,1.029-1.029v-4.643a1.029,1.029,0,0,0-1.029-1.029h-6.264v-18.962Zm-8.322,5.018v13.943h-2.585v-18.962h2.585Zm7.293,18.586h-68.494v-2.585h68.494Zm-7.293,7.076v13.749h-2.585v-18.767h2.585Zm4.96,19.863h-12.5v-1.355a2.7,2.7,0,0,1,2.7-2.7h7.1a2.7,2.7,0,0,1,2.7,2.7Zm-25.662,0h-12.5v-1.355a2.7,2.7,0,0,1,2.7-2.7h7.1a2.7,2.7,0,0,1,2.7,2.7Zm-25.662,0h-12.5v-1.355a2.7,2.7,0,0,1,2.7-2.7h7.1a2.7,2.7,0,0,1,2.7,2.7Zm-7.545-19.863v-5.018h2.585v18.767h-2.585Zm25.662,13.749v-18.767h2.585v18.767Zm-3.513-18.767-8.026,8.026-8.026-8.026Zm25.662,0-8.026,8.026-8.025-8.026Zm-72.351,13.77v-49.5h2.41v60.61h-2.41Zm4.468-44.209h6.253v2.114h-6.253Zm73.98-1.924h-2.585v-24.576h2.585Zm-25.662-19.99v19.99h-2.585v-24.576h2.585Zm-23.6,18.535v-16.051l8.026,8.026Zm9.48-6.57,8.026,8.026h-16.052Zm17.636,8.026,8.026-8.026,8.026,8.026Zm17.506-1.455-8.025-8.026,8.025-8.026Zm-9.48-9.481-8.025-8.026h16.051Zm-1.455,1.455-8.025,8.026v-16.051Zm-14.726,8.026-8.026-8.026,8.026-8.026Zm-9.481-9.481-8.026-8.026h16.051Zm-11.538-13.64v24.576h-2.585v-24.576Zm1.029,26.634h57.587v2.585h-68.494v-2.585Zm26.69,6.1,8.026,8.026-8.026,8.026Zm1.455-1.455h16.052l-8.026,8.026Zm-8.155,17.507-8.026-8.026,8.026-8.026Zm-9.481-9.481-8.026-8.026h16.052Zm-9.48-6.57,8.025,8.025-8.025,8.026Zm-4.643,3.563v-5.018h2.585v18.962h-2.585Zm14.123,5.918,8.026,8.026h-16.052Zm11.538,8.026v-18.962h2.585v18.962Zm14.123-8.026,8.026,8.026H2591.4Zm1.455-1.455,8.026-8.026v16.052Zm-48.532-9.481h5.235v18.962h-5.235Zm-6.526,9.316h-6.253v-2.114h6.253Zm0,2.058v5.75h-6.253v-5.75Zm-6.253,7.807h6.253v2.113h-6.253Zm6.253,4.171v5.75h-6.253v-5.75Zm-6.253,7.807h6.253v2.114h-6.253Zm6.253-26.015h-6.253v-5.75h6.253Zm-6.253,30.187h6.253v5.75h-6.253Zm0,7.807h6.253v2.114h-6.253Zm8.312,7.4v-60.61h2.41v60.61Zm16.4-7.375v-16.051l8.026,8.026Zm18.961-16.051v16.052l-8.026-8.026Zm6.7,16.052v-16.052l8.026,8.026Zm18.961-16.052v16.052l-8.025-8.026Z" transform="translate(0 0)" fill="url(#a)"/></g></g></svg>