<svg xmlns="http://www.w3.org/2000/svg" xmlns:xlink="http://www.w3.org/1999/xlink" width="58" height="58" viewBox="0 0 58 58"><defs><clipPath id="a"><rect width="58" height="58" transform="translate(8170 2381)" fill="#fff"/></clipPath></defs><g transform="translate(-8170 -2381)" clip-path="url(#a)"><g transform="translate(7815.207 2070.171)"><path d="M395.123,373.294a31.257,31.257,0,0,1-4.021-.3,28,28,0,0,1-5.589-1.664l-.034-.014A47.266,47.266,0,0,1,378.1,367.3a53.617,53.617,0,0,1-8.752-7.335,70.413,70.413,0,0,1-6.082-6.921,48.226,48.226,0,0,1-3.927-6.127l-.02-.039a39.2,39.2,0,0,1-2.213-5.142A24.026,24.026,0,0,1,356.081,338l-.058-.276c-.006-.03-.011-.06-.015-.09a18.406,18.406,0,0,1-.21-2.687,7.765,7.765,0,0,1,.576-2.886q.018-.039.039-.076a6.026,6.026,0,0,1,1-1.389l6.795-6.88q.029-.03.061-.057a3.429,3.429,0,0,1,2.292-.933,2.609,2.609,0,0,1,1.87.56,5.336,5.336,0,0,1,1.115,1.206q.026.04.048.082l5.537,10.461a3.389,3.389,0,0,1,.44,2.488,3.982,3.982,0,0,1-1.149,2.214l-2.411,2.436c0,.032-.009.063-.014.091a10.085,10.085,0,0,0,.826,1.991q.014.026.027.052a21.54,21.54,0,0,0,1.741,2.716l.08.114a51.3,51.3,0,0,0,3.622,3.957,33.745,33.745,0,0,0,4.012,3.589q.363.236.694.454a20.479,20.479,0,0,0,2.23,1.353l.314.149a7.881,7.881,0,0,0,1.236.522q.038,0,.076.013l.442.091.142-.017,2.831-2.863.037-.035a4.105,4.105,0,0,1,2.806-1.107h.062a3.953,3.953,0,0,1,1.66.329,1,1,0,0,1,.3.117l9.99,5.855.051.032a4.047,4.047,0,0,1,1.119,1.034,1.8,1.8,0,0,1,.306,1.46,3.229,3.229,0,0,1-1.052,2.652l-6.71,6.794a3.86,3.86,0,0,1-1.469,1.176l-.054.028a5.76,5.76,0,0,1-1.816.563.99.99,0,0,1-.1.007Zm-8.882-3.826a26.3,26.3,0,0,0,5.143,1.546,28.99,28.99,0,0,0,3.739.279h.189a3.925,3.925,0,0,0,1.127-.368,2.2,2.2,0,0,0,.747-.531,1,1,0,0,1,.155-.2l6.8-6.889.037-.036a1.282,1.282,0,0,0,.415-1.19,1,1,0,0,1,.025-.369,2.379,2.379,0,0,0-.532-.452l-9.738-5.707a1,1,0,0,1-.435-.2,3,3,0,0,0-.812-.106,2.134,2.134,0,0,0-1.433.568l-2.918,2.951a1.428,1.428,0,0,1-.993.462l-.386.047a1,1,0,0,1-.322-.013l-.57-.117a7.114,7.114,0,0,1-1.8-.693l-.309-.146a21.565,21.565,0,0,1-2.476-1.491q-.336-.221-.7-.461l-.036-.024a35.452,35.452,0,0,1-4.291-3.824,52.74,52.74,0,0,1-3.785-4.143l-.034-.046-.1-.137a22.911,22.911,0,0,1-1.9-2.986A12.037,12.037,0,0,1,370,342.565a1,1,0,0,1-.027-.143,1.273,1.273,0,0,1,.044-.49,1,1,0,0,1,.058-.359c.009-.026.017-.052.026-.085a1.2,1.2,0,0,1,.479-.712L373,338.336a1.992,1.992,0,0,0,.6-1.127,1.412,1.412,0,0,0-.164-1.115q-.026-.04-.049-.082l-5.534-10.454a3.33,3.33,0,0,0-.657-.7.605.605,0,0,0-.477-.137.991.991,0,0,1-.164.006h-.037a1.513,1.513,0,0,0-.914.427l-6.773,6.858-.02.02a4.166,4.166,0,0,0-.639.915,6.4,6.4,0,0,0-.373,2.092,17.626,17.626,0,0,0,.192,2.313l.05.236a22.255,22.255,0,0,0,.949,3.462q.011.028.019.056a37.264,37.264,0,0,0,2.1,4.87,46.256,46.256,0,0,0,3.757,5.86,68.451,68.451,0,0,0,5.911,6.723,51.64,51.64,0,0,0,8.423,7.065A45.307,45.307,0,0,0,386.241,369.468Z" transform="translate(0 -6.172)" fill="#f76b1c"/><path d="M454.458,342.424a1,1,0,0,1-1-1,27.571,27.571,0,0,0-27.6-27.6,1,1,0,1,1,0-2,29.571,29.571,0,0,1,29.6,29.6A1,1,0,0,1,454.458,342.424Z" transform="translate(-42.665 0)" fill="#f76b1c"/><path d="M446.53,352.672a1,1,0,0,1-1-1,20.36,20.36,0,0,0-20.378-20.377,1,1,0,0,1,0-2,22.359,22.359,0,0,1,22.378,22.377A1,1,0,0,1,446.53,352.672Z" transform="translate(-42.262 -9.901)" fill="#f76b1c"/><path d="M438.947,362.946a1,1,0,0,1-1-1,12.077,12.077,0,0,0-12.076-12.076,1,1,0,0,1,0-2,14.077,14.077,0,0,1,14.076,14.076A1,1,0,0,1,438.947,362.946Z" transform="translate(-41.47 -21.648)" fill="#f76b1c"/></g></g></svg>