<svg xmlns="http://www.w3.org/2000/svg" xmlns:xlink="http://www.w3.org/1999/xlink" width="129" height="129" viewBox="0 0 129 129"><defs><linearGradient id="a" x1="0.5" y1="-0.085" x2="3.633" y2="0.5" gradientUnits="objectBoundingBox"><stop offset="0" stop-color="#f76b1c"/><stop offset="1" stop-color="#fad961"/></linearGradient></defs><g transform="translate(-261 -2229)"><circle cx="64.5" cy="64.5" r="64.5" transform="translate(261 2229)" fill="#fff"/><g transform="translate(-3053.048 256.893)"><path d="M5276.956,307.147h-7.389a1.064,1.064,0,0,0-1.063,1.064V349.08a1.064,1.064,0,0,0,1.063,1.064h7.389a1.064,1.064,0,0,0,1.063-1.064V308.211A1.063,1.063,0,0,0,5276.956,307.147Zm-1.063,9.469h-5.261v-7.341h5.261Zm-1.93,2.127h1.93v8.839h-5.261v-8.839Zm1.93,10.966v8.839h-5.261v-8.839h5.261Zm-5.261,10.966h5.261v7.341h-5.261Z" transform="translate(-1923.26 1714.365)" fill="url(#a)"/><path d="M5365.926,349.08V308.211a1.064,1.064,0,0,0-1.064-1.064h-7.389a1.064,1.064,0,0,0-1.063,1.064V349.08a1.064,1.064,0,0,0,1.063,1.064h7.389A1.064,1.064,0,0,0,5365.926,349.08Zm-2.127-32.464h-5.262v-7.341h5.262Zm-1.93,2.127h1.93v8.839h-5.262v-8.839Zm1.93,10.966v8.839h-5.262v-8.839h5.262Zm-5.262,10.966h5.262v7.341h-5.262Z" transform="translate(-1998.285 1714.365)" fill="url(#a)"/><path d="M5306.434,88.229h-41.661a1.064,1.064,0,0,0-1.064,1.064V115.32h-29.6a1.064,1.064,0,0,0-1.063,1.064v57.674a1.064,1.064,0,0,0,1.063,1.064h72.322a1.064,1.064,0,0,0,1.063-1.064V89.293A1.064,1.064,0,0,0,5306.434,88.229Zm-33.908,74.5h16.507v10.269h-16.507Zm18.634,0h7.521v10.269h-7.521Zm14.21,10.269h-4.562V161.661a1.064,1.064,0,0,0-1.063-1.064h-28.282a1.064,1.064,0,0,0-1.063,1.064v11.333h-4.562V90.356h39.534Zm-52.989,0H5246.5v-5.111h5.878Zm1.063-7.238h-8a1.064,1.064,0,0,0-1.063,1.064v6.175h-9.2V117.447h28.533v55.547h-9.2V166.82A1.064,1.064,0,0,0,5253.444,165.756Z" transform="translate(-1893 1901.205)" fill="url(#a)"/><path d="M5495.583,479.11H5489a1.064,1.064,0,0,0-1.064,1.064v6.579a1.064,1.064,0,0,0,1.064,1.063h6.578a1.063,1.063,0,0,0,1.063-1.063v-6.579A1.063,1.063,0,0,0,5495.583,479.11Zm-1.063,6.579h-4.451v-4.451h4.451Z" transform="translate(-2110.542 1567.601)" fill="url(#a)"/><path d="M5569.641,479.11h-6.579a1.064,1.064,0,0,0-1.063,1.064v6.579a1.063,1.063,0,0,0,1.063,1.063h6.579a1.064,1.064,0,0,0,1.063-1.063v-6.579A1.064,1.064,0,0,0,5569.641,479.11Zm-1.064,6.579h-4.451v-4.451h4.451Z" transform="translate(-2173.748 1567.601)" fill="url(#a)"/><path d="M5636.055,480.174v6.579a1.064,1.064,0,0,0,1.063,1.063h6.579a1.064,1.064,0,0,0,1.063-1.063v-6.579a1.064,1.064,0,0,0-1.063-1.064h-6.579A1.064,1.064,0,0,0,5636.055,480.174Zm6.579,5.515h-4.452v-4.451h4.452Z" transform="translate(-2236.953 1567.601)" fill="url(#a)"/><path d="M5495.583,395.091H5489a1.064,1.064,0,0,0-1.064,1.064v6.579A1.064,1.064,0,0,0,5489,403.8h6.578a1.063,1.063,0,0,0,1.063-1.064v-6.579A1.063,1.063,0,0,0,5495.583,395.091Zm-1.063,6.579h-4.451v-4.452h4.451Z" transform="translate(-2110.542 1639.308)" fill="url(#a)"/><path d="M5569.641,395.091h-6.579a1.064,1.064,0,0,0-1.063,1.064v6.579a1.064,1.064,0,0,0,1.063,1.064h6.579a1.064,1.064,0,0,0,1.063-1.064v-6.579A1.064,1.064,0,0,0,5569.641,395.091Zm-1.064,6.579h-4.451v-4.452h4.451Z" transform="translate(-2173.748 1639.308)" fill="url(#a)"/><path d="M5636.055,396.155v6.579a1.064,1.064,0,0,0,1.063,1.064h6.579a1.064,1.064,0,0,0,1.063-1.064v-6.579a1.064,1.064,0,0,0-1.063-1.064h-6.579A1.064,1.064,0,0,0,5636.055,396.155Zm6.579,5.515h-4.452v-4.452h4.452Z" transform="translate(-2236.953 1639.308)" fill="url(#a)"/><path d="M5495.583,311.075H5489a1.064,1.064,0,0,0-1.064,1.063v6.579a1.064,1.064,0,0,0,1.064,1.064h6.578a1.063,1.063,0,0,0,1.063-1.064v-6.579A1.063,1.063,0,0,0,5495.583,311.075Zm-1.063,6.578h-4.451V313.2h4.451Z" transform="translate(-2110.542 1711.013)" fill="url(#a)"/><path d="M5569.641,311.075h-6.579a1.063,1.063,0,0,0-1.063,1.063v6.579a1.064,1.064,0,0,0,1.063,1.064h6.579a1.064,1.064,0,0,0,1.063-1.064v-6.579A1.064,1.064,0,0,0,5569.641,311.075Zm-1.064,6.578h-4.451V313.2h4.451Z" transform="translate(-2173.748 1711.013)" fill="url(#a)"/><path d="M5636.055,312.138v6.579a1.064,1.064,0,0,0,1.063,1.064h6.579a1.064,1.064,0,0,0,1.063-1.064v-6.579a1.064,1.064,0,0,0-1.063-1.063h-6.579A1.064,1.064,0,0,0,5636.055,312.138Zm6.579,5.515h-4.452V313.2h4.452Z" transform="translate(-2236.953 1711.013)" fill="url(#a)"/><path d="M5495.583,227.056H5489a1.064,1.064,0,0,0-1.064,1.064V234.7a1.064,1.064,0,0,0,1.064,1.063h6.578a1.063,1.063,0,0,0,1.063-1.063V228.12A1.063,1.063,0,0,0,5495.583,227.056Zm-1.063,6.579h-4.451v-4.451h4.451Z" transform="translate(-2110.542 1782.72)" fill="url(#a)"/><path d="M5569.641,227.056h-6.579A1.064,1.064,0,0,0,5562,228.12V234.7a1.063,1.063,0,0,0,1.063,1.063h6.579a1.064,1.064,0,0,0,1.063-1.063V228.12A1.064,1.064,0,0,0,5569.641,227.056Zm-1.064,6.579h-4.451v-4.451h4.451Z" transform="translate(-2173.748 1782.72)" fill="url(#a)"/><path d="M5636.055,228.12V234.7a1.064,1.064,0,0,0,1.063,1.063h6.579a1.064,1.064,0,0,0,1.063-1.063V228.12a1.064,1.064,0,0,0-1.063-1.064h-6.579A1.064,1.064,0,0,0,5636.055,228.12Zm6.579,5.515h-4.452v-4.451h4.452Z" transform="translate(-2236.953 1782.72)" fill="url(#a)"/><path d="M5495.583,143.038H5489a1.064,1.064,0,0,0-1.064,1.064v6.578a1.064,1.064,0,0,0,1.064,1.064h6.578a1.063,1.063,0,0,0,1.063-1.064V144.1A1.063,1.063,0,0,0,5495.583,143.038Zm-1.063,6.579h-4.451v-4.451h4.451Z" transform="translate(-2110.542 1854.427)" fill="url(#a)"/><path d="M5569.641,143.038h-6.579A1.064,1.064,0,0,0,5562,144.1v6.578a1.064,1.064,0,0,0,1.063,1.064h6.579a1.064,1.064,0,0,0,1.063-1.064V144.1A1.064,1.064,0,0,0,5569.641,143.038Zm-1.064,6.579h-4.451v-4.451h4.451Z" transform="translate(-2173.748 1854.427)" fill="url(#a)"/><path d="M5636.055,144.1v6.578a1.064,1.064,0,0,0,1.063,1.064h6.579a1.064,1.064,0,0,0,1.063-1.064V144.1a1.064,1.064,0,0,0-1.063-1.064h-6.579A1.064,1.064,0,0,0,5636.055,144.1Zm6.579,5.515h-4.452v-4.451h4.452Z" transform="translate(-2236.953 1854.427)" fill="url(#a)"/></g></g></svg>