<svg xmlns="http://www.w3.org/2000/svg" xmlns:xlink="http://www.w3.org/1999/xlink" width="129" height="129" viewBox="0 0 129 129"><defs><linearGradient id="a" x1="0.18" y1="-0.181" x2="0.904" y2="0.861" gradientUnits="objectBoundingBox"><stop offset="0" stop-color="#f76b1c"/><stop offset="1" stop-color="#fad961"/></linearGradient></defs><g transform="translate(-261 -2229)"><circle cx="64.5" cy="64.5" r="64.5" transform="translate(261 2229)" fill="#fff"/><g transform="translate(-6761.048 -584.646)"><path d="M7139.747,2876.576h-37.624l.02-.723,20.067-22.439a1.236,1.236,0,0,0-.057-1.707l-14.873-14.55a1.235,1.235,0,0,0-1.767.04l-22.57,24.172-21.469,4.725a6.87,6.87,0,0,0-4.229,2.869l-5.156,7.613h-17.8a1.236,1.236,0,0,0-1.235,1.236v19.394a1.236,1.236,0,0,0,1.235,1.236h40.372a7.275,7.275,0,0,0,12.326,4.136l4.167-4.136h48.6a1.236,1.236,0,0,0,1.236-1.236v-19.394A1.236,1.236,0,0,0,7139.747,2876.576Zm-1.235,19.394h-44.874l5.73-5.689a8.572,8.572,0,0,0,2.542-5.879l.145-5.354h36.456Zm-61.353.461,1.488-7.1a10.586,10.586,0,0,0-10.361-12.759h-13.212l4.217-6.227a4.41,4.41,0,0,1,2.715-1.841l21.844-4.808a1.236,1.236,0,0,0,.638-.364l21.969-23.528,10.269,10.046,2.855,2.792-19.582,21.9a1.236,1.236,0,0,0-.314.791l-.243,9a6.113,6.113,0,0,1-1.813,4.192l-12.387,12.3a4.8,4.8,0,0,1-8.082-4.393Zm-41.638-17.383h32.765a8.114,8.114,0,0,1,7.942,9.78l-1.487,7.1c0,.016-.006.031-.009.047h-39.21Z" transform="translate(0 0)" fill="url(#a)"/></g></g></svg>