<svg xmlns="http://www.w3.org/2000/svg" xmlns:xlink="http://www.w3.org/1999/xlink" width="220" height="30" viewBox="0 0 220 30"><defs><linearGradient id="a" x1="0.824" y1="1" x2="0.395" y2="0.058" gradientUnits="objectBoundingBox"><stop offset="0" stop-color="#f76b1c"/><stop offset="1" stop-color="#fad961"/></linearGradient><clipPath id="b"><rect width="220" height="30" transform="translate(3242 -83)" fill="#fff"/></clipPath><clipPath id="c"><path d="M16.861,0,0,29.205H8.448V22.37h7.245V16.638h-3.81l4.978-9.267,4.979,9.267H18.03v8.068H10.783v4.5h22.94Z" transform="translate(0 0)" fill="url(#a)"/></clipPath><clipPath id="e"><rect width="179.836" height="24.649" fill="none"/></clipPath></defs><g transform="translate(-3242 83)" clip-path="url(#b)"><g transform="translate(3215.5 -98.868)"><g transform="translate(26.5 15.868)"><g transform="translate(0 0)" clip-path="url(#c)"><rect width="33.723" height="29.205" fill="url(#a)"/></g></g><g transform="translate(66.664 20.424)"><g transform="translate(0 0)" clip-path="url(#e)"><path d="M183.183,42.8a6.821,6.821,0,0,0,2.193-.561,5.6,5.6,0,0,0,3.031-3.33,1.894,1.894,0,0,0,.554.516,6.515,6.515,0,0,1-2.313,2.881,7.639,7.639,0,0,1-2.806,1.123,4.045,4.045,0,0,0-.464.12Z" transform="translate(-91.787 -19.494)"/><path d="M3.449,37.579a4.476,4.476,0,0,0,.741,1.362,2.075,2.075,0,0,0-.284.479,4.44,4.44,0,0,1-.524-1.145c.015.322.03.7.037,1.167V41.56a6.451,6.451,0,0,0,.045.883H2.836a6.609,6.609,0,0,0,.045-.883V39.584c0-.4.007-.651.045-1.16a6.08,6.08,0,0,1-.943,2.163,2.034,2.034,0,0,0-.3-.554,6.337,6.337,0,0,0,1.123-2.455h-.4a3.124,3.124,0,0,0-.516.03v-.561a3.011,3.011,0,0,0,.516.03H2.88v-.7a5.581,5.581,0,0,0-.037-.778h.614a5.056,5.056,0,0,0-.037.771v.7h.239a2.486,2.486,0,0,0,.449-.03V37.6a4.149,4.149,0,0,0-.442-.022Zm1.489-.12a5,5,0,0,1-.464.913,2.023,2.023,0,0,0-.442-.337,4.724,4.724,0,0,0,.726-1.669,2.551,2.551,0,0,0,.06-.419l.561.135a3.407,3.407,0,0,0-.127.434c-.045.165-.075.262-.127.434h.816v-.659a3.954,3.954,0,0,0-.045-.674h.621a3.835,3.835,0,0,0-.045.674v.659H7.506a4.549,4.549,0,0,0,.74-.045V37.5a6.2,6.2,0,0,0-.748-.037H6.473v1.16H7.738a5.319,5.319,0,0,0,.756-.045v.6c-.239-.022-.464-.037-.756-.037H6.66a5.471,5.471,0,0,0,2.021,2.073,2.17,2.17,0,0,0-.389.538,6.024,6.024,0,0,1-1.849-2.162c.03.486.03.584.03.831V41.65a5.7,5.7,0,0,0,.045.809H5.9a6.122,6.122,0,0,0,.045-.816v-1.2c0-.276.015-.584.037-.868A5.493,5.493,0,0,1,4.048,41.77a2.07,2.07,0,0,0-.367-.494,5.212,5.212,0,0,0,2.036-2.14H5a5.476,5.476,0,0,0-.771.045v-.606A5.4,5.4,0,0,0,5,38.619h.943v-1.16Z" transform="translate(-0.843 -17.839)"/><path d="M22.994,37.175a4.474,4.474,0,0,0,.726-.045v.621a5.954,5.954,0,0,0-.8-.045H21.654a10.931,10.931,0,0,0,.262,2.088,4.8,4.8,0,0,0,.674,1.661c.134.172.314.321.389.321.135,0,.255-.4.367-1.212a1.52,1.52,0,0,0,.524.336,3.582,3.582,0,0,1-.389,1.235.573.573,0,0,1-.486.314,1.381,1.381,0,0,1-.929-.7,6.474,6.474,0,0,1-.838-2.4,12.984,12.984,0,0,1-.156-1.646H17.98a6.7,6.7,0,0,0-.8.045V37.13a5.711,5.711,0,0,0,.8.045h3.068c-.015-.471-.015-.471-.022-.891a2.015,2.015,0,0,0-.037-.412h.666a5.431,5.431,0,0,0-.045.681c0,.112.007.262.023.621ZM18.167,39.3a5.9,5.9,0,0,0-.7.037v-.584a4.372,4.372,0,0,0,.7.037h1.909a4.287,4.287,0,0,0,.7-.037v.584a5.87,5.87,0,0,0-.689-.037h-.7v1.931c.509-.1.8-.173,1.639-.4v.546c-.823.217-1.422.352-2.3.524-.059.015-.464.089-1.2.232-.1.014-.119.022-.195.037l-.12-.621a8.9,8.9,0,0,0,1.6-.217V39.3Zm4.64-2.245a4.346,4.346,0,0,0-.876-.861l.427-.284a5.652,5.652,0,0,1,.891.823Z" transform="translate(-8.608 -17.975)"/><path d="M35.477,35.708a4.8,4.8,0,0,0,1.25,1.31,7.889,7.889,0,0,0,2.028,1.145,2.233,2.233,0,0,0-.33.584A10.1,10.1,0,0,1,36.4,37.489a5.731,5.731,0,0,1-1.219-1.265,6.093,6.093,0,0,1-1.153,1.22,8.177,8.177,0,0,1-1.976,1.265,1.74,1.74,0,0,0-.352-.524,7.516,7.516,0,0,0,1.953-1.167,5.282,5.282,0,0,0,1.19-1.31Zm-2.589,4.236a6.467,6.467,0,0,0-.861.045v-.636a6.7,6.7,0,0,0,.861.045h4.618a6.463,6.463,0,0,0,.86-.045v.636a6.453,6.453,0,0,0-.86-.045H34.856a10.938,10.938,0,0,1-.891,1.684c.689-.037,1.8-.142,2.754-.262-.374-.412-.516-.561-.861-.891l.479-.269a17.154,17.154,0,0,1,1.789,1.976l-.5.359c-.261-.374-.352-.509-.516-.711-1.257.165-2.574.307-3.7.389a11.172,11.172,0,0,0-1.175.12l-.1-.659a3.822,3.822,0,0,0,.389.022c.1,0,.1,0,.756-.037a10.65,10.65,0,0,0,.913-1.721Zm.464-1.968a4.382,4.382,0,0,0,.606.03H36.39a4.841,4.841,0,0,0,.643-.03v.6a5.012,5.012,0,0,0-.636-.03H33.951a4.693,4.693,0,0,0-.6.03Z" transform="translate(-15.883 -17.892)"/><path d="M48.585,41.71a6.281,6.281,0,0,0,.037.741h-.651a5.216,5.216,0,0,0,.044-.748V39.5a7.2,7.2,0,0,1-.98.816,1.823,1.823,0,0,0-.307-.524A5.961,5.961,0,0,0,48.076,38.7a4.959,4.959,0,0,0,.883-1.31H47.611a5.266,5.266,0,0,0-.614.03V36.83a5.048,5.048,0,0,0,.591.03h.427V36.18a3.4,3.4,0,0,0-.044-.577h.658a3.231,3.231,0,0,0-.044.591v.666h.4a2.678,2.678,0,0,0,.427-.022l.269.3a2.7,2.7,0,0,0-.172.314,5.711,5.711,0,0,1-.808,1.272,4.464,4.464,0,0,0,1.2,1,2.025,2.025,0,0,0-.3.509,4.709,4.709,0,0,1-1.025-.921Zm3.1-.187H52.79a5.5,5.5,0,0,0,.823-.045v.666a5.373,5.373,0,0,0-.823-.052H50.133a5.143,5.143,0,0,0-.816.052v-.666a5.639,5.639,0,0,0,.823.045H51.1V38.409H50.41a7.266,7.266,0,0,0-.733.037v-.629a4.776,4.776,0,0,0,.733.045H51.1V36.329a4.576,4.576,0,0,0-.052-.7h.689a3.753,3.753,0,0,0-.052.7v1.534h.936a3.98,3.98,0,0,0,.733-.045v.629a7.15,7.15,0,0,0-.733-.037h-.936Z" transform="translate(-23.414 -17.839)"/><path d="M68.061,42.806A14.943,14.943,0,0,0,65.7,40.523a8.3,8.3,0,0,1-1.422,1.317,9.52,9.52,0,0,1-1.459.891,1.938,1.938,0,0,0-.434-.591,7.264,7.264,0,0,0,2.477-1.676,7.788,7.788,0,0,0,1.661-2.455.606.606,0,0,1,.045-.1.514.514,0,0,0,.022-.06c-.09.007-.09.007-2.545.045a6.251,6.251,0,0,0-.861.06l-.022-.711a3.86,3.86,0,0,0,.711.045h.165l2.589-.03a1.407,1.407,0,0,0,.531-.067l.367.374a1.3,1.3,0,0,0-.217.374,9.682,9.682,0,0,1-1.2,2.081,18.9,18.9,0,0,1,2.485,2.2Z" transform="translate(-31.261 -18.636)"/><path d="M80.289,36.533a5.562,5.562,0,0,0-.03.7V39.07a6.047,6.047,0,0,0,.03.755h-.741a5.194,5.194,0,0,0,.037-.755V37.244a4.318,4.318,0,0,0-.037-.711Zm3.337.007a4.239,4.239,0,0,0-.037.733v.846a8.414,8.414,0,0,1-.195,2.283,2.856,2.856,0,0,1-1.429,1.691,6.511,6.511,0,0,1-1.392.539,1.669,1.669,0,0,0-.374-.621,4.007,4.007,0,0,0,1.6-.606,2.256,2.256,0,0,0,1.085-1.991c.022-.322.03-.486.03-1.332v-.8a5.036,5.036,0,0,0-.03-.741Z" transform="translate(-39.859 -18.305)"/><path d="M92.4,41.678a8.164,8.164,0,0,0,1.033.045h4.206a6.117,6.117,0,0,0,1.01-.045v.741a8.734,8.734,0,0,0-1.018-.037H93.443a8.177,8.177,0,0,0-1.04.037Z" transform="translate(-46.3 -20.883)"/><path d="M110.854,38.338a2.849,2.849,0,0,0-.03.546,4.06,4.06,0,0,1-.741,2.642,4.252,4.252,0,0,1-1.923,1.31,1.82,1.82,0,0,0-.412-.607,3.533,3.533,0,0,0,1.347-.666,3.1,3.1,0,0,0,1.063-2.813,1.649,1.649,0,0,0-.03-.412Zm2.979-.943a1.722,1.722,0,0,0-.187.314,4.592,4.592,0,0,1-2.17,2.185,1.891,1.891,0,0,0-.457-.5,3.339,3.339,0,0,0,1.16-.7,3.715,3.715,0,0,0,.8-1.063h-4.161a7.526,7.526,0,0,0-.921.037v-.681a5.932,5.932,0,0,0,.936.052h3.981a1.672,1.672,0,0,0,.659-.052Z" transform="translate(-53.989 -18.531)"/><path d="M124.345,39.532a8.648,8.648,0,0,1,.74,1.691l-.606.2a6.345,6.345,0,0,0-.7-1.706Zm4.243-.015a3.2,3.2,0,0,0-.1.344,6.192,6.192,0,0,1-1.078,2.5,5.818,5.818,0,0,1-2.155,1.669,1.908,1.908,0,0,0-.427-.509,4.623,4.623,0,0,0,2.829-2.911,4.2,4.2,0,0,0,.269-1.235Zm-2.694-.284a8.009,8.009,0,0,1,.726,1.639l-.591.2a6.92,6.92,0,0,0-.689-1.669Z" transform="translate(-62.024 -19.658)"/><path d="M142.815,36.538a1.229,1.229,0,0,1-.015-.172.853.853,0,1,1,.853.853.9.9,0,0,1-.247-.037l-.045.157a6.478,6.478,0,0,1-1.871,3.263,7.024,7.024,0,0,1-2.364,1.437,1.8,1.8,0,0,0-.45-.621,5.848,5.848,0,0,0,1.677-.786,5.479,5.479,0,0,0,2.334-3.48h-3.7a7.132,7.132,0,0,0-.914.045v-.711a5.248,5.248,0,0,0,.928.052Zm.314-.172a.524.524,0,1,0,.524-.524.53.53,0,0,0-.524.524" transform="translate(-69.187 -17.794)"/><path d="M154.415,36.336a2.988,2.988,0,0,0-.1.531,8.263,8.263,0,0,1-1.96,4.73,2.029,2.029,0,0,0-.584-.465A5.386,5.386,0,0,0,153.113,39a8.786,8.786,0,0,0,.561-2.8Zm2.148-.112A10.231,10.231,0,0,0,156.9,38a6.79,6.79,0,0,0,1.691,3.128,2.2,2.2,0,0,0-.561.494,7.27,7.27,0,0,1-1.257-2.014,11.132,11.132,0,0,1-.763-2.746c-.045-.277-.067-.389-.1-.509Zm.733-.561a5.856,5.856,0,0,1,.786,1.16l-.442.247a5.225,5.225,0,0,0-.778-1.182Zm.853-.4a5.585,5.585,0,0,1,.786,1.138l-.434.247a5.484,5.484,0,0,0-.771-1.16Z" transform="translate(-76.049 -17.667)"/><path d="M168.138,38.449a5.473,5.473,0,0,0,.95.052H172.8a1.633,1.633,0,0,0,.591-.06l.322.374a1.829,1.829,0,0,0-.21.471,5.062,5.062,0,0,1-1.8,2.507,6.745,6.745,0,0,1-1.834.906,1.9,1.9,0,0,0-.4-.614,4.851,4.851,0,0,0,2.17-1.093,4.3,4.3,0,0,0,1.22-1.908h-3.779a7.272,7.272,0,0,0-.943.037Zm.644-1.751a4.179,4.179,0,0,0,.861.052h2.432a4.442,4.442,0,0,0,.861-.052v.674a6.426,6.426,0,0,0-.853-.037h-2.447a6.7,6.7,0,0,0-.853.037Z" transform="translate(-84.249 -18.388)"/><path d="M183.79,37.4a10.354,10.354,0,0,1,1.841,1.422l-.457.561a8.31,8.31,0,0,0-1.826-1.482Z" transform="translate(-91.87 -18.741)"/><path d="M203.061,42.806a14.943,14.943,0,0,0-2.357-2.283,8.3,8.3,0,0,1-1.422,1.317,9.52,9.52,0,0,1-1.459.891,1.938,1.938,0,0,0-.434-.591,7.265,7.265,0,0,0,2.477-1.676,7.789,7.789,0,0,0,1.661-2.455.6.6,0,0,1,.045-.1.515.515,0,0,0,.022-.06c-.09.007-.09.007-2.545.045a6.251,6.251,0,0,0-.861.06l-.022-.711a3.86,3.86,0,0,0,.711.045h.165l2.589-.03a1.407,1.407,0,0,0,.531-.067l.367.374a1.3,1.3,0,0,0-.217.374,9.683,9.683,0,0,1-1.2,2.081,18.9,18.9,0,0,1,2.485,2.2Z" transform="translate(-98.905 -18.636)"/><path d="M9.764.343V2.266H6v11.21H3.788V2.266H0V.343Z" transform="translate(0 -0.172)"/><path d="M26.848,5.73h5.025V.344H34.08V13.476H31.872V7.633H26.848v5.843H24.64V.344h2.208Z" transform="translate(-12.346 -0.172)"/><path d="M58.553,13.475,56.021,8.146h-2.55v5.329H51.263V.343h4.473c3.027,0,4.835,1.313,4.835,3.921a3.429,3.429,0,0,1-2.379,3.521l2.8,5.691ZM55.584,6.243c1.865,0,2.779-.495,2.779-1.979s-.914-2-2.779-2H53.471V6.243Z" transform="translate(-25.686 -0.172)"/><path d="M84.526.343V2.266H78.683V5.729h5.272v1.9H78.683v3.94h5.843v1.9H76.475V.343Z" transform="translate(-38.319 -0.172)"/><path d="M106.762.343V2.266h-5.843V5.729h5.272v1.9h-5.272v3.94h5.843v1.9H98.712V.343Z" transform="translate(-49.461 -0.172)"/><rect width="4.929" height="1.789" transform="translate(59.47 6.909)"/><path d="M144.843.343v7.8c0,3.883-2,5.5-4.91,5.5s-4.911-1.618-4.911-5.482V.343h2.208V8.165c0,2.513.895,3.559,2.7,3.559s2.7-1.047,2.7-3.559V.343Z" transform="translate(-67.655 -0.172)"/><path d="M164.616,8.679v4.8h-2.207V.343h4.472c3.026,0,4.834,1.446,4.834,4.149,0,2.665-1.789,4.187-4.834,4.187Zm2.037-1.9c2.018,0,2.855-.78,2.855-2.284,0-1.427-.837-2.227-2.855-2.227h-2.037V6.776Z" transform="translate(-81.378 -0.172)"/><path d="M202.449.343c3.084,0,4.663,1.142,4.663,3.407A2.962,2.962,0,0,1,205.19,6.6a2.97,2.97,0,0,1,2.341,3.1c0,1.98-1.256,3.768-4.663,3.768h-4.644V.343ZM200.432,5.71h2.151c1.636,0,2.322-.742,2.322-1.827,0-1.028-.513-1.636-2.607-1.636h-1.865Zm0,5.862h2.3c1.77,0,2.588-.723,2.588-1.98,0-1.389-.914-1.979-2.855-1.979h-2.037Z" transform="translate(-99.324 -0.172)"/><path d="M220.27,13.476,224.838.343h2.094L231.5,13.476h-2.341l-.895-2.722h-4.739l-.895,2.722Zm3.864-4.625h3.5l-1.751-5.31Z" transform="translate(-110.371 -0.172)"/><path d="M249.9,11.573h5.843v1.9h-8.051V.343H249.9Z" transform="translate(-124.112 -0.172)"/><path d="M265.963,13.476,270.531.343h2.093l4.568,13.133h-2.341l-.895-2.722h-4.739l-.895,2.722Zm3.864-4.625h3.5l-1.751-5.31Z" transform="translate(-133.266 -0.172)"/><path d="M302.827.343V13.476h-1.96l-5.348-8.926v8.926h-2.132V.343h1.9L300.7,9.384V.343Z" transform="translate(-147.007 -0.172)"/><path d="M326.5,4.244a2.5,2.5,0,0,0-2.646-2.322c-1.751,0-2.7,1.142-2.7,3.978V7.575c0,2.8.952,3.977,2.7,3.977,1.5,0,2.3-.723,2.646-2.322h2.112c-.438,2.95-2.151,4.244-4.758,4.244-2.931,0-4.91-1.77-4.91-5.9V5.9c0-4.13,1.98-5.9,4.91-5.9,2.607,0,4.34,1.389,4.777,4.244Z" transform="translate(-159.812 0)"/><path d="M352.358.343V2.266h-5.843V5.729h5.272v1.9h-5.272v3.94h5.843v1.9h-8.051V.343Z" transform="translate(-172.522 -0.172)"/></g></g></g></g></svg>