<svg xmlns="http://www.w3.org/2000/svg" >
<symbol id="icon-arrow" viewBox="0 0 14 10.092">
  <path d="M-3.043,3.323l.513-.513a.552.552,0,0,1,.783,0L2.746,7.3a.552.552,0,0,1,0,.783l-4.493,4.493a.552.552,0,0,1-.783,0l-.513-.513a.555.555,0,0,1,.009-.793L-.249,8.618l-10.287.021a.553.553,0,0,1-.555-.555v-.74a.553.553,0,0,1,.555-.555L-.249,6.769-3.034,4.116A.551.551,0,0,1-3.043,3.323Z" transform="translate(11.091 -2.647)"/>
</symbol>

<symbol id="icon-contact" viewBox="0 0 30 26">
<defs><clipPath id="a"><rect width="30" height="26" transform="translate(2153 5706)" /></clipPath></defs><g transform="translate(-2153 -5706)" clip-path="url(#a)"><path d="M29.916,6.819l-4.527,21.35c-.342,1.507-1.232,1.882-2.5,1.172l-6.9-5.083-3.328,3.2a1.732,1.732,0,0,1-1.386.676l.5-7.025L24.558,9.558c.556-.5-.121-.77-.864-.275l-15.8,9.952-6.8-2.13c-1.48-.462-1.507-1.48.308-2.19L28.007,4.662c1.232-.462,2.31.275,1.909,2.156Z" transform="translate(2152.999 5702.472)"/></g>
</symbol>

<symbol id="icon-tel" viewBox="0 0 58 58">
<defs><clipPath id="a"><rect width="58" height="58" transform="translate(1874 5706)" fill="#a88585"/></clipPath></defs><g transform="translate(-1874 -5706)" clip-path="url(#a)"><g transform="translate(1519.207 5395.171)"><path d="M405.2,360.753l-10.112-5.91-.1.012a2.527,2.527,0,0,0-1.424-.324,3.168,3.168,0,0,0-2.174.854l-3,3.028c-.086.109-.184.121-.379.144l-.39.047-.609-.125a8.618,8.618,0,0,1-1.873-.765,30.83,30.83,0,0,1-3.1-1.9,35.051,35.051,0,0,1-4.211-3.748,53.076,53.076,0,0,1-3.758-4.1,23.487,23.487,0,0,1-1.947-3.03,11.133,11.133,0,0,1-.987-2.452c-.011-.1.074-.207.051-.4.074-.207.062-.3.16-.316l2.561-2.581a3.031,3.031,0,0,0,.886-1.688,2.436,2.436,0,0,0-.32-1.841l-5.625-10.6a4.357,4.357,0,0,0-.909-.979,1.629,1.629,0,0,0-1.229-.347,2.457,2.457,0,0,0-1.7.7l-6.887,6.954a5.152,5.152,0,0,0-.847,1.189,7.042,7.042,0,0,0-.488,2.53,18.266,18.266,0,0,0,.206,2.546,24.861,24.861,0,0,0,1.065,3.926,38.375,38.375,0,0,0,2.192,5.077,48.017,48.017,0,0,0,3.894,6.06,70.263,70.263,0,0,0,6.071,6.887,53.4,53.4,0,0,0,8.69,7.266,46.582,46.582,0,0,0,7.306,3.971,26.918,26.918,0,0,0,5.44,1.623,29.575,29.575,0,0,0,4.192.29,4.9,4.9,0,0,0,1.526-.479,2.821,2.821,0,0,0,1.175-.932l6.887-6.954a2.29,2.29,0,0,0,.742-2.066C406.418,361.794,405.957,361.256,405.2,360.753Z" transform="translate(0 -6.628)" /><path d="M395.59,373.75a31.713,31.713,0,0,1-4.069-.3,28.389,28.389,0,0,1-5.654-1.678l-.034-.014a47.869,47.869,0,0,1-7.464-4.055,54.231,54.231,0,0,1-8.856-7.4,71.136,71.136,0,0,1-6.156-6.985,48.651,48.651,0,0,1-3.974-6.184l-.02-.039a39.476,39.476,0,0,1-2.24-5.189,24.2,24.2,0,0,1-1.039-3.768l-.059-.278q-.009-.044-.015-.09a18.538,18.538,0,0,1-.212-2.711,7.812,7.812,0,0,1,.583-2.91q.018-.039.04-.076a6.078,6.078,0,0,1,1.011-1.4l6.877-6.945q.029-.03.061-.057a3.454,3.454,0,0,1,2.311-.939,2.631,2.631,0,0,1,1.883.563,5.381,5.381,0,0,1,1.126,1.214q.026.04.049.082l5.6,10.56a3.406,3.406,0,0,1,.445,2.507,4.008,4.008,0,0,1-1.161,2.231l-2.443,2.461c0,.034-.01.066-.015.1a10.17,10.17,0,0,0,.837,2.013q.014.026.027.052a21.735,21.735,0,0,0,1.763,2.743l.081.115a51.856,51.856,0,0,0,3.667,4,34.13,34.13,0,0,0,4.063,3.625q.367.238.7.458a20.732,20.732,0,0,0,2.259,1.367l.317.15a7.967,7.967,0,0,0,1.256.528q.038,0,.076.013l.45.092.151-.018,2.868-2.893.037-.035a4.148,4.148,0,0,1,2.831-1.114h.062a4,4,0,0,1,1.676.331,1,1,0,0,1,.3.116l10.112,5.91.051.032a4.081,4.081,0,0,1,1.129,1.041,1.8,1.8,0,0,1,.309,1.469,3.247,3.247,0,0,1-1.062,2.672l-6.792,6.859a3.9,3.9,0,0,1-1.483,1.184l-.054.027a5.829,5.829,0,0,1-1.833.567,1,1,0,0,1-.1.007Zm-9-3.844a26.691,26.691,0,0,0,5.209,1.562,29.443,29.443,0,0,0,3.787.282h.192a3.992,3.992,0,0,0,1.146-.373,2.23,2.23,0,0,0,.761-.54,1,1,0,0,1,.155-.2l6.887-6.954.037-.035a1.3,1.3,0,0,0,.423-1.208,1,1,0,0,1,.026-.374,2.4,2.4,0,0,0-.544-.461l-9.859-5.762a1,1,0,0,1-.437-.2,3,3,0,0,0-.83-.11,2.177,2.177,0,0,0-1.46.577l-2.954,2.98a1.436,1.436,0,0,1-1,.462l-.391.047a1,1,0,0,1-.321-.013l-.578-.119a7.207,7.207,0,0,1-1.817-.7l-.312-.147a21.819,21.819,0,0,1-2.5-1.5q-.34-.223-.712-.465l-.035-.024a35.835,35.835,0,0,1-4.341-3.859,53.277,53.277,0,0,1-3.83-4.181l-.035-.046-.1-.138a23.1,23.1,0,0,1-1.923-3.013,12.121,12.121,0,0,1-1.062-2.648,1,1,0,0,1-.027-.142,1.276,1.276,0,0,1,.045-.494,1,1,0,0,1,.058-.361c.01-.027.017-.053.026-.086a1.2,1.2,0,0,1,.482-.714l2.445-2.464a2.017,2.017,0,0,0,.609-1.142,1.429,1.429,0,0,0-.167-1.131q-.026-.04-.049-.082L368,325.571a3.378,3.378,0,0,0-.668-.707.627.627,0,0,0-.493-.141,1,1,0,0,1-.164.006h-.039a1.546,1.546,0,0,0-.934.435l-6.855,6.923-.02.02a4.214,4.214,0,0,0-.649.927,6.452,6.452,0,0,0-.378,2.115,17.763,17.763,0,0,0,.195,2.336l.05.238a22.43,22.43,0,0,0,.961,3.5q.011.028.02.056a37.55,37.55,0,0,0,2.126,4.917,46.682,46.682,0,0,0,3.8,5.917,69.179,69.179,0,0,0,5.984,6.787,52.252,52.252,0,0,0,8.527,7.133A45.913,45.913,0,0,0,386.594,369.906Z" transform="translate(0 -6.628)" /><path d="M451.692,339.658a1,1,0,0,1-1-1,24.808,24.808,0,0,0-24.829-24.829,1,1,0,0,1,0-2,26.808,26.808,0,0,1,26.829,26.829A1,1,0,0,1,451.692,339.658Z" transform="translate(-39.899)" /><path d="M444.462,350.6a1,1,0,0,1-1-1,18.31,18.31,0,0,0-18.31-18.309,1,1,0,0,1,0-2,20.293,20.293,0,0,1,20.31,20.309A1,1,0,0,1,444.462,350.6Z" transform="translate(-39.466 -10.633)" /><path d="M437.683,361.682a1,1,0,0,1-1-1,10.824,10.824,0,0,0-10.812-10.812,1,1,0,0,1,0-2,12.812,12.812,0,0,1,12.812,12.812A1,1,0,0,1,437.683,361.682Z" transform="translate(-40.637 -21.195)" /></g></g>
</symbol>

</svg>