<?xml version="1.0" encoding="UTF-8"?>
<svg id="_レイヤー_2" data-name="レイヤー 2" xmlns="http://www.w3.org/2000/svg" viewBox="0 0 2659.89 798.46">
  <defs>
    <style>
      .cls-1 {
        stroke-width: 4.49px;
      }

      .cls-1, .cls-2, .cls-3 {
        fill: none;
        stroke: #f47502;
      }

      .cls-2 {
        stroke-width: 5.49px;
      }

      .cls-3 {
        stroke-width: 5.52px;
      }

      .cls-4 {
        fill: #f47502;
        stroke-width: 0px;
      }
    </style>
  </defs>
  <g id="_レイヤー_1-2" data-name="レイヤー 1">
    <g>
      <path class="cls-4" d="m385.53,91.78c-7.63,3.03-14.74,3.76-22.11,2.24-2.26-.47-4.68-.85-6.93-.56-14.45,1.84-28.87,3.88-43.72,5.9-2.64,18.72-9.25,36.32-7.65,56.26,12.76,1.04,25,.58,37.68.49,11.84.12,11.84.2,21.58,7.94,1.65,11.73.72,12.55-11.11,15.03-16.55,3.46-33.14,6.72-50.54,10.23-2.25,20.16.16,39.82,1.33,60.69,13.86.53,26.59-2.17,40.22-1.64,12.56.49,25.19,1.84,37.56,4.08,12.45,2.25,13.32,4.1,14.93,18.63-29.56,6.59-60.21,7.94-90.13,12.68-16.78,2.37-33.39,5.97-50.15,8.55-5.49.85-11.21.22-16.82.26-11.57.08-17.5-8.61-24.02-15.97-2.92-3.29-1.23-9.42,3.55-11.96,15.97-7.79,34.54-5.01,51.54-9-1.75-19.19-3.44-37.74-5.18-56.73-3.07.25-5.08.1-6.9.62-14.12,3.99-30.51-2.35-38.01-14.82-2.82-4.68-.94-11.22,4.28-13.05,9.13-3.03,18.43-5.75,27.91-7.44,14.26-3.36,14.25-3.75,14.86-18.63.75-14.02,2.34-26.39,4.01-40.65-10.55.08-20.21.5-28.98,4.36-9.54,4.2-18.76,3.51-28.29,1.18-8.74-2.14-14.13-8.44-18.67-15.56-2.05-3.21-1.54-6.67,1.85-8.72,3.34-2.03,6.93-4.29,10.66-4.92,39.26-7.12,78.85-11.9,118.66-14.46,20.47-1.48,57.96-3.02,58.61,24.98Z"/>
      <path class="cls-4" d="m1621.81,92.53c10.19,3.47,38.44,7.53,38.45,19.92.31,6.18-3.92,8.19-8.54,10.6,5.12,2.53,9.8,4.47,14.69,6.88,8.16,5.33,8.46,13.32.92,19.52-7.19,6.33-14.36,10.74-19.9,19.02,7.44,7.57,15.64,13.73,21.13,22.54,2.65,5.08,1.6,10.67-2.09,14.9-9.14,11.66-26.25-1.93-35.09-11.73-11.83,8.44-20.28,33.07-13.15,45.33,8.62,14.83,17.25,19.2,32.49,11.03,11.81-5.78,21.31-17.99,34.56-20.49,6.71-.51,13.47,2.93,15.37,8.9,4.36,19.84-27.62,38.22-43.42,44.09-7.48,2.81-15.15.25-22.53-1.74-24.8-6.68-41.88-22.82-52.45-45.48-9.62-22.14,7.19-42.34,16.86-61.95-2.94-.72-5.67-2.01-8.37-1.95-12.39.3-21.33-5.6-28.9-14.75-3.66-4.43-4.26-8.72-1.89-13.79,2.09-4.46,3.93-9.03,6.18-14.23-15.28,1.18-26.64-4.01-34.66-15.99-3.23-4.83-2.74-8.74,2.14-11.75,3.3-2.04,7.12-3.96,10.88-4.39,10.19-1.17,20.47-1.9,30.72-2.04,4.86-.07,7.48-2.13,9.26-6.02,3.73-8.14,7.62-16.22,10.92-24.53,3.94-9.93,8.13-11.71,18.25-7.44,5.21,2.2,10.71,3.65,14.12,8.78,2.78,4.19,3.91,8.11.84,12.86-2.49,3.85-4.09,8.27-6.78,13.88Zm20.46,31.2c-.24-.67-.47-1.35-.71-2.02-9.55,0-19.09-.09-28.64.08-1.83.03-4.75.56-5.29,1.72-3.08,6.7-8.75,12.48-8.23,20.72,6.26,2.44,12.24,4.78,17.94,7.01,8.29-9.97,12.53-22.32,24.92-27.5Z"/>
      <path class="cls-4" d="m118.66,323.9c-2.8.8-5.94-1.17-8.24-3.2-13.32-11.76-21.98-28.1-27.12-45.11s-6.99-34.83-8.52-52.53c-3.14-36.48-5.02-73.18-2.18-109.69-18.03,18.49-33.96,39.03-47.38,61.09-1.51,2.48-3.06,5.06-5.43,6.74-5.2,3.69-12.26,1.94-18.64,1.84-4.29-18.35,4.04-37.25,14.13-53.17,12.59-19.87,28.18-37.66,44.44-54.67,16.76-17.54,34.31-34.34,52.56-50.32,5.44-4.76,11.98-9.93,19.43-10.7,6.74-.7,15.09,1.71,20.2,6.17,3.59,3.14,5.73,8.47,3.73,12.8-1.05,2.29-3.06,3.96-5,5.56-8.86,7.28-17.72,14.56-26.58,21.84-3.66,3.01-7.53,6.34-8.64,10.95-.67,2.78-.23,5.69-.09,8.55.36,6.95-1.01,13.85-2.21,20.7-11.13,63.44-8.39,129.28,7.99,191.58,2.35,8.94,4.95,18.61,1.51,27.2-.63,1.58-1.55,3.17-3.05,3.98-.3.16-.6.28-.91.37Z"/>
      <g>
        <path class="cls-4" d="m1404.57,120.5c-14.43,2.19-27.7,3.23-40.43,6.42-11.4,2.86-22.45,2.82-31.59-3.6-7.55-5.3-15.2-12.89-18.6-21.18-12.15-28.99-14.61-63.45-1.3-92.84,3.83-6.68,9.09-11.39,15.66-8.37,18.49,8.49,37.94,3.61,56.82,5.38,61.72,7.41,52.65,58.86,54.85,105.79.47,50.83,9.01,101.06,8.13,152.03.36,14.93-.5,29.86,2.35,44.73.79,4.11-1.34,8.79-2.17,13.43-14.26,1.4-32.06-4.51-33.37-20.19-.88-14.24-2.01-28.5-1.88-42.74.27-29.25-1.1-58.3-5.37-87.29-2.37-17.76-1.1-33.19-3.11-51.58Zm-5.92-71.65c.29-8.42-3.86-11.53-10.03-12.71-14.41-2.77-28.31-.95-41.62,5.15-6.35,2.91-7.25,5.65-4.99,13.31,18.71-1.9,37.43-3.79,56.64-5.74Zm4.3,28.44c-21.65,2.86-39.78,6.46-60.42,11.97-1.41,4.75,1.66,5.88,5.91,5.95,19.1.38,36.12,1.24,55.6-.8-.39-6.07-.71-11.13-1.09-17.12Z"/>
        <path class="cls-4" d="m1168.67,139.78c-.93,41.15-3.72,80.99,5.34,121.29,4.57,21.97,12.83,43.31,13.19,65.96-15.3,4.97-27.23-2.6-32.7-16.55-16.47-51.72-20.97-104.37-19.67-158.27.17-20.47,2.99-40.97,3.09-61.4-.44-15.39,3.24-30.13,5.63-45.06.94-5.85,3.51-11.43,5.29-17.14,1.47-4.74,4.99-7.56,9.58-7.35,13.13.6,24.61-4.81,36.2-9.51,8.8-4.42,17.18.81,25.68,3.28,12.09,4.53,20.42,13.12,22.73,25.69,3.36,18.29,5.43,36.81,7.84,55.26,1.17,8.96-2.41,14.69-11.19,18.53-16.38,7.16-32.27,15.46-48.31,23.37-4.58,2.26-8.96,4.15-14.27,2.03-1.94-.78-4.45-.12-8.44-.12Zm11.18-81.47c.48,1.03.96,2.07,1.45,3.1,9.18-1.73,18.36-3.45,27.49-5.17-.58-9.66-1.59-11.55-6.93-10.67-8.98,1.49-15.32,7.49-22,12.74Zm32.93,31.33c-.49-.72-.97-1.43-1.46-2.15-12.37,1.75-23.9,6.42-35.23,11.59-1.67.76-2.66,3.02-3.97,4.58.4.68.8,1.35,1.2,2.03,12.35-4.09,24.73-8.12,37.02-12.4,1.1-.38,1.64-2.4,2.43-3.66Z"/>
        <path class="cls-4" d="m1234,216.96c3.06-16.01,8.57-38.65,11.8-56.3.89-6.21,2.96-9.79,9.44-12.22,13.26-5.17,27.38-12.25,42.01-8.9,10.32,3.26,21.34,3.34,31.07,9.83,19.6,12.41,25.44,49.39,27.63,71.08.21,3.27,1.53,6.45,2.23,9.7,2.32,10.78-2.83,17.32-13.57,18.01-19.19,3.17-37.61,10.56-56.52,15.12-4.87,1.31-9.44,2.19-13.03,6.45-1.47,1.74-5.2,2.07-7.91,2.11-2.18.03-4.33-1.65-6.59-2.06-26.91-5.06-23.93-29.98-26.57-52.81Zm35.99,15.28c3.55.37,5.23.91,6.78.66,13.1-2.1,26.17-4.32,39.24-6.62,1.18-.21,3.19-1.3,3.17-1.9-.33-6.66.3-18.93-9.83-15.75-6.04,1.76-12.19,3.44-17.85,6.1-4.14,1.94-7.91,2.99-12.4,2.01-2.13-.46-4.44-.08-7.56-.08-.51,5.13-.98,9.87-1.55,15.58Zm11.85-52.01h29.01c-.27-6.76-4.14-9.57-8.74-12.3-6.66,3.83-15.48,3.67-20.27,12.3Z"/>
      </g>
      <g>
        <path class="cls-4" d="m1022.45,133.65c-4.9-1.57-8.49-3.44-12.21-3.75-5.19-.43-8.06-3.16-11.31-6.82-3.25-3.66-3.3-6.8-1.93-10.87,1.82-5.36,3.38-10.8,5.02-16.21,2.54-8.37,1.58-10.05-6.77-11.37-56.26-9.36-114.47-2.9-167.66,17.67-13.39,3.73-13.48,3.71-15.01,17.1-1.78,15.62-.47,31.13,1.86,47.46,4.26-1.92,5.96-5.37,7.93-8.61,10.01-16.35,21.5-31.74,31.98-47.79,5.5-7.05,5.09-19.49,16.62-18.34,17.15.26,34.84,10.98,23.26,29.46-17.8,27.18-38.12,52.85-56.94,79.37-5.05,6.9-8.41,7.86-17.02,5.16-6.56-2.06-13.35-3.84-14.77-12.25-.18-1.08-1.43-2.41-2.5-2.84-14.98-5.98-18.97-19.47-21.6-33.1-8.11-33.02-5.15-48.12,1.3-80.69,3.36-14.61,7.45-28.38,25.77-21.39,8.08,3.33,13,9.77,22.75,7.17,24.5-4.53,49.01-10.51,73.74-11.84,42.02-2.95,85.58-1.63,125.49,14.36,9.1,2.92,15.25,14.71,13.93,24.09-1.84,13.09-7.8,24.68-13.5,36.27-1.61,3.29-5.71,5.35-8.43,7.76Z"/>
        <path class="cls-4" d="m901.59,267.17c0-15.27-.06-29.83.03-44.39.03-5.03-2.89-7.2-7.22-7.98-8.19-1.48-13.45-7.01-17.77-13.34-1.86-2.72-3.87-7.71-2.64-9.62,2.03-3.14,6.5-6.14,10.2-6.5,9.87-.95,19.88-.33,29.83-.58,10.54-.26,21.07-.79,31.6-1.23,8.57-.45,32.56,2.63,31.09,14.46-.28,4.11-2.25,6.74-6.29,7.97-6.66,2.03-13.16,4.73-19.93,6.21-4.62,1.01-7.69,3.34-8.09,7.52-1.31,13.81-7.44,27-5.14,42.56,26.26-1.66,52.68-4.05,78.98-4.11,8.62.06,17.32,4.07,25.74,6.98,2.29.79,4.75,3.88,5.29,6.33,1.46,7.38-8.98,9.39-14.4,10.68-39.67,4.13-79.19,9.12-118.46,16.13-13.12,2.09-26.2,4.67-39.4,5.99-9.35.93-17.11-4.29-24.31-9.76-6.94-5.76-15.11-14.3-4.58-21.2,2.93-1.86,6.71-3.04,10.19-3.26,15.02-1.41,30.47,0,45.28-2.86Z"/>
        <path class="cls-4" d="m1024.08,181.92c-12.27,5.39-22.14-.26-31.52-5.77-16.93-9.93-33.27-20.87-46.39-35.76-5.91-6.7-11.15-14-16.62-21.09-2.77-3.59-2.76-7.55-.26-11.14,2.42-3.48,5.83-5.56,10.33-3.99,6.54,2.27,13.13,4.41,19.5,7.08,4.03,1.69,6.22,5.3,8.65,9.07,10.39,17.09,26.14,30.22,43.42,39.87,9.01,4.92,13.63,11.12,12.88,21.73Z"/>
        <path class="cls-4" d="m928.42,34.21c-8.21,6.37-17.31,4.86-26.16,4.43-11.59-.56-23.17-1.34-34.75-2.2-12.6-.94-22.68-6.84-30.07-16.85-5.23-7.09-1.66-15.23,7.2-15.79,9.2-.58,18.66-.59,27.71.91,12.35,2.05,24.32,6.28,36.64,8.62,11.73,2.23,18.19,8.57,19.43,20.88Z"/>
      </g>
      <path class="cls-4" d="m286.41,56.03c-27,13.86-34.3-19.47-41.93-38.19-5.97-15.12,11.51-11.9,20.42-9.5,13.45,3.45,15.98,14.86,18.08,27,1.23,6.78,2.26,13.59,3.42,20.7Z"/>
      <path class="cls-4" d="m2422.28,47.24c-13.31,2.16-23.16,5.64-33.47,1.59-5.04-1.98-9.81-3.44-10.42-9.7-.48-5.01,2.86-10.16,9.97-11.55,22.16-4.34,44.61-6.77,66.79-.53,11.15,3.13,13.69,11.03,7.02,21.12-16.89,25.14-33.39,49.77-51.3,74.33,2.28.92,3.31,1.76,4.24,1.66,13.43-1.44,25.82,2.89,38,7.37,45.66,15.66,54.63,56,55.74,99.54-6.67,23.13-15.36,44.59-38.27,57.32-10.44,5.8-19.83,13.21-32.63,11.73-10.24-1.26-18.87-3.99-29.21-6.82-13.61-15.55-12.63-33-3.41-51.02,4.22-8.24,5.81-18.51,16.21-22.16,15.87-6.96,30.59-7.12,48.42-8.08.65-31.69-23.14-71.71-60.45-58.77-7.84,3.64-16.18,7.26-22.48,12.92-9.66,8.68-20.12,8.17-31.08,5.79-5.47-1.19-10.45-4.8-11.39-10.79-.92-5.82,2.18-10.25,6.85-14.17,5.02-4.21,9.64-9.18,13.44-14.52,19.62-28.94,40.19-54.35,57.42-85.24Zm43.46,193.69c-27.09.51-34.43,8.64-26.85,30.09,11.43-7.97,22.63-15.26,26.85-30.09Z"/>
      <path class="cls-4" d="m1916.28,268.33c-15.02-31.99,35.59-10.73,45.79-87.98.78-5.02-.87-11.44-3.64-15.81-41.41-64.99-89.31-59.66-153.86-34.62-13.44,4.88-25.95,5.63-38.67-1.74-18.57-10.97-3.04-25.63,10.8-30.29,62.04-20.51,137.22-31.68,190.06,15.77,14.95,12.01,44.58,49.46,42.13,68.67-5.78,34.12-22.86,61.91-48.88,84.31-12.48,11.03-29.59,5.75-43.73,1.7Z"/>
      <path class="cls-4" d="m2227.25,287.1c-17.31.45-31.72-10.55-45.99-21.42-37.7-28.58-64.62-67.32-82.39-110.86-3.09-8.56-1.97-14.26,5.42-18.76,18.79-11.44,31.61-28.99,47.11-43.8,11.29-10.79,23.58-20.61,36-30.1,10.22-8.07,26.63-4.16,34.54,6.8,11.63,13.17,11.28,18.05-3.09,27.62-22.16,14.77-40.49,33.76-58.7,52.83-9.61,10.07-9.58,12.74-3.34,25.06,18.73,38.72,39.34,61.81,76.72,83.58,7.81,5.27,10.87,12.93,9,21.92-1.35,6.45-4.13,7.98-15.28,7.14Z"/>
      <g>
        <path class="cls-4" d="m726.53,159.85c-7.38-1.67-16.24-3.63-23.18-9.72-13.45-11.79-26.38-24.1-37.25-38.47-6.84-7.5-.43-18.96,9.16-17.33,9.31,1.44,18.01,4.84,24.67,11.76,9.41,9.77,18.32,20.01,27.69,29.82,4.28,4.48,7.31,9.34,8.01,15.57.71,6.29-1.13,8.35-9.1,8.36Z"/>
        <path class="cls-4" d="m681.01,199c-9.58-6.28-16.71-5.76-22.9,2.11-12.61,16.69-22.55,35.61-40.43,47.59-11.27,7.82-12.12,8.25-22.89.19-42.22-29.43-34.78-74.74-37.54-119.98-.2-6.52.97-13.08,1.6-20.72,17.6.36,34.27-.33,50.47-7.22,12.1-4.8,11.92-14.82,1.09-20.88-14.06-7-30.55.06-45.4-2.16-1.23-3.39-.77-4.8-.53-7.95,3-17.37-7.55-22.82-22.56-26.45-7.53-1.85-9.6-.67-11.29,6.62-2.08,8.97-4,17.98-5.97,26.91-23.21,1.14-45.18,3.3-67.36,9.61-7.73,2.07-9.97,7.68-5.91,13.62,6.87,10.03,15.87,17.25,28.83,16.84,14.32-1.44,27.67-5.19,42.16-7.77v14.45q-18.71,2.79-26.29,19.72c-7.17,20.51-13.31,41.63-19.68,62.48-.93,3.15-.6,8.18,1.36,10.39,7.63,8.64,15.23,17.71,27.42,20.47,12.45,2.81,24.89,4.61,38.08.06,19.76,21.16,38.24,43,67.57,50.17,9.11,2.29,17.78,1.73,24.65-3.94,10.46-8.63,20.02-18.42,29.57-28.1,9.94-10.08,15.52-22.97,21.55-35.5,3.06-6.35.16-16.78-5.6-20.55Zm-170.63,13.71c-3.59-15.31-2.61-29.95,3.52-45.62,19.01,9.8,5.61,33.62-3.52,45.62Z"/>
      </g>
      <g>
        <g>
          <g>
            <path class="cls-4" d="m2201.88,546.15c-31.76,2.08-31.62,30.12-58.59,17.42-4.14-1.79-7.89-4.83-11.29-7.88-7.48-6.69-6.25-17.25,2.69-22.1,28.18-16.49,56.1-24.6,88.88-21.23,7.98.44,15.14,4.55,21.13,10.54,5.36,5.35,6.2,11.01,3.82,17.77-5.59,15.86-11.05,31.77-16.67,47.62-.74,2.1-1.61,4.79-3.28,5.8-7.88,4.81-16.6,3.06-24.37.48-6.95-2.31-8.49-8.95-7.14-16.29,1.86-10.09,3.07-20.3,4.81-32.13Z"/>
            <path class="cls-4" d="m2170.44,734.41c-8.93-1.8-18.34-3.36-27.54-5.73-3.49-.9-6.93-3.23-9.64-5.72-5.89-5.42-6.99-10.59-4.39-16.4,2.63-5.9,7.29-9.05,15.08-7.69,43.47,7.3,67.15-11.14,104.22-27.67,8.02-3.6,16.28-5.88,25.25-1.25,8.7,4.49,8.71,6.75,2.54,13.97-12.05,14.1-28.94,20.13-43.94,29.5-20.5,13.73-37.21,18.22-61.59,21Z"/>
          </g>
          <g>
            <path class="cls-4" d="m2422.57,497.59c.56.1,1.18.4,1.69.27,10.55-2.49,20.22,2.89,30.32,3.82,4.64,4.89,11.69,4.9,16.98,8.44,13.71,8.64,37.22,22.36,21.71,40.55-4.91,5.24-9.94,10.37-14.69,15.76-2.72,3.09-4.45,6.92-8.89,8.46-2.53.88-2.82,5.16-.46,8.05,4.62,5.2,9.22,10.69,14.76,14.94,4.35,2.98,6.26,7.33,7.54,12.26.98,3.77,3.64,6.85,4.54,10.82,2.23,9.85,5.6,19.81,4.51,29.78-.92,8.39-.79,16.89-2.93,25.37-2.22,8.8-4.6,17.58-7.28,26.22-1.28,4.14-1.39,9.01-5.1,12.35-1.4,1.26.07,3.48-1.83,5.49-7.29,9.24-11.87,22.29-24.22,26.23-12.87,4.01-21.28.49-29.61-9.5-4.09-4.62-.95-15.82,3.6-19.79,13.27-12.34,19-30.28,23.72-47.24,1.64-8.19,2.07-16.61,3.35-24.89,1.02-6.61-.34-12.91-1.63-19.26-.64-3.17-1.43-6.37-4.07-8.64-7.29-21.26-36.91-20.98-37.09-41.73.13-5.67,2.08-10.57,7.16-13.35,9.5-5.2,17-12.75,24.66-20.14,5.01-4.74,8.82-12.55-1.62-12.59-7.81-.39-15.62-.95-23.43-1.11-6.17-.13-11.54-2.65-16.71-5.37-5.29-2.78-7.8-10.98-5.48-16.53,3.3-6.72,13.58-8.86,20.51-8.67Z"/>
            <path class="cls-4" d="m2388.9,636.94c-.05,2.25-.73,5.45-3.22,8.59-7.73,9.75-15.92,19.71-19.47,31.88-1.15,3.35-2.48,6.66-2.96,10.18-.87,4.25-1.14,8.75-2.78,12.68-5.33,14.35-23.53,16.83-32.5,4.17-4.87-6.59-8.45-15.07-6.16-23.35,1.32-3.89,1.33-8.21,2.03-12.32,1.14-6.61,3.3-12.68,6.79-18.62,10.26-15.58,23.98-47.38,46.77-32.11,7.01,5,12.73,8.57,11.51,18.9Z"/>
            <path class="cls-4" d="m2534.25,642.69c5.89-.9,11.91,2.86,18.39,4.73,1.31,3.68,6.06,2.73,7.84,5.81,4.85,9.41,12.09,17.23,17.91,26.01,3.98,5.98,7.55,12.25,11.06,18.52,1.55,2.77,1.74,5.75-.67,8.45-2.48,4.12-4.23,8.42-10.07,7.36-9.06-1.33-17.39-4.79-24.55-10.19-4.28-3.23-7.26-8.22-10.71-12.5-3.89-4.83-7.66-9.76-11.47-14.65-5.96-8.85-14.48-14.34-12.51-26.12.11-.88.5-2.1,1.15-2.46,3.91-2.19,7.32-5.71,13.64-4.96Z"/>
            <path class="cls-4" d="m2638.62,579.41c-10.87-.09-19.71-10.02-19.29-19.48.13-2.82-.3-5.73-.88-8.51-2.27-10.77-.64-21.65-1.08-32.47-.06-1.38.53-3.23,1.49-4.14,4.02-3.81,8.11-7.5,14.52-6.16,4.09.85,8.06,1.22,11.39,4.38,2.12,2.01,5.83,2.47,7.67,4.62,2.91,3.41,4.92,7.61,7.16,11.56.4.71.33,1.89.08,2.74-1.78,6.24-1.5,12.65-1.93,19.02-1.35,13.03-5.4,24.6-19.14,28.45Z"/>
            <path class="cls-4" d="m2549.97,526.61c.5-12.09,11.58-18.49,22.41-12.87,1.18.61,2.41,1.4,3.66,1.52,5.64.52,8.97,4.74,12.98,7.86.29.23.68.56.7.88.41,5.02,3.89,9.35,3.05,14.73-.63,5.4-.1,10.98-.45,16.43-.06,2.09-.42,4.22-.1,6.25.31,1.93,2.09,3.48.69,5.83-2.37,3.98-5.09,7.59-8.81,10.37-30.16,2.96-28.92-29.62-34.14-51Z"/>
          </g>
          <g>
            <path class="cls-4" d="m1972.79,518.98c1.47-8.76,2.99-16.88,4.17-25.05,1.75-12.17,6.77-16.22,18.39-13.11,25.2,4.17,21.7,19.38,16.77,40.21,15.06,6.3,46.35,6.42,42.53,29.41-14.45,6.05-29.51-1.09-45.62,2.1-1.63,19.36-2.42,40.13-3.76,59.72-.58,8.49,3.31,13.33,10.9,16.85,15.21,7.04,30.22,14.55,45.01,22.44,6.05,3.23,11.61,7.62,16.8,12.16,2.59,2.26,4.6,5.81,5.56,9.16,1.99,6.97-2.59,13.18-9.84,13.86-10.87,1.03-19.83-4.02-28.33-9.84-11.27-7.72-23.51-12.88-38.49-16.05-.35,4.56-1.19,8.36-.83,12.04,1.5,15.33-2.77,29.66-6.95,44.05-2.6,8.93-8.84,15.09-15.98,20.28-16.3,11.81-53.72-10.77-64.1-24.92-24.47-28.62,2.39-62.94,21.41-86.15,1.54-1.89,3.93-3.31,6.21-4.33,6.94-3.11,14.01-5.91,21.34-8.96,3.19-10.22,3.83-50.74.47-60.9-19.32,4.17-41.73,12.47-56.22-6.6-7.96-9.75-6.19-18.6,6.28-21.07,18.45-3.02,35.19-5.18,54.28-5.31Zm-15.74,189.6c12.37-10.55,17.91-40.4,10.57-56.56-14.77,13.58-31.6,40.8-10.57,56.56Z"/>
            <path class="cls-4" d="m1835.36,731.11c-40.99-3.84-51.19-44.96-51.83-79.14-.88-36.89.75-73.56,8.15-109.83,1.81-8.87,6.88-13.2,15.41-10.8,6.84,1.92,13.28,5.68,19.41,9.43,1.94,1.19,3.02,4.93,3.18,7.58.18,3.16-.81,6.48-1.72,9.61-12.34,44.65-11.45,91.54-.58,136.21,1.04,4.27,3.51,6.39,8.38,7.03,12.75,1.67,18.53,13.65,11.2,24.14-2.41,3.44-8.48,4.33-11.6,5.78Z"/>
          </g>
        </g>
        <g>
          <path class="cls-1" d="m1592.17,600.81c11.81.84,23.68,1.63,35.53,2.56,6.1.48,12.19,1.09,18.24,1.93,2.24.31,4.6,1.09,6.51,2.28,4.83,3.01,4.89,8.65-.29,11.01-5.23,2.38-10.96,4.11-16.64,4.99-10.35,1.61-20.84,2.36-31.27,3.52-2.03.22-4.03.62-6.04.96-3.47.59-4.91,2.73-4.76,6.17.8,19.25,4.88,37.74,15.09,54.2,9.17,14.79,20.46,15.72,35.15,6.47,11.88-7.48,19.33-19.12,24.27-32.32,3.57-9.53,7.52-18.93,11.47-28.32,1.78-4.24,12.34-10.07,16.51-9.45,4.4.65,8.87,4.91,8.79,9.57-.11,6.05-.69,12.18-1.86,18.11-1.4,7.14-3.58,14.13-5.53,21.15-4.25,15.32-12.43,28.22-24.73,38.27-12.53,10.24-26.64,15.28-43.08,11.83-5.12-1.08-10.59-.88-15.52-2.45-18.68-5.95-31.06-18.63-38.33-36.76-6.22-15.53-10.1-31.64-12.7-48.08-.67-4.26-2.52-5.73-6.48-6.7-5.58-1.38-11.28-3.11-16.29-5.85-7.71-4.22-8.93-11.24-4.37-18.56,1.85-2.96,4.13-4.66,7.76-4.72,4.91-.08,9.81-.5,15.36-.81,2.25-10.96,1.85-21.66,1.12-32.36-.31-4.59-3.59-5.53-7.48-5.37-6.7.28-13.41.81-20.11.82-8.13.02-15.58-2.02-21.23-8.48-3.04-3.47-5.35-7.23-3.43-11.89,2.04-4.96,5.76-7.99,11.45-7.91,10.2.13,20.4.24,30.6.39,2.04.03,4.08.22,6.12.34,3.67.22,5.42-1.72,5.53-5.19.09-2.9-.09-5.82-.1-8.73-.02-3.19-.43-6.47.12-9.57,1.01-5.82,6.06-9.9,11.87-9.23,4.24.49,8.54,1.77,12.47,3.5,6.58,2.88,9.51,8.16,8.71,15.52-.49,4.54-.45,9.13-.69,14.62,9.51.82,18.19,1.25,26.78,2.42,6.58.9,13.05,2.7,19.55,4.16.83.19,1.89.48,2.34,1.09,2.16,2.92,4.15,5.96,6.2,8.96-2.91,1.66-5.67,4.3-8.76,4.79-9.48,1.48-19.09,2.16-28.66,3.11-3.77.38-7.58.49-11.32,1.03-8.07,1.16-9.19,2.35-9.82,10.59-.71,9.26-1.7,18.57,1.98,28.38Z"/>
          <path class="cls-4" d="m1592.17,600.81c11.81.84,23.68,1.63,35.53,2.56,6.1.48,12.19,1.09,18.24,1.93,2.24.31,4.6,1.09,6.51,2.28,4.83,3.01,4.89,8.65-.29,11.01-5.23,2.38-10.96,4.11-16.64,4.99-10.35,1.61-20.84,2.36-31.27,3.52-2.03.22-4.03.62-6.04.96-3.47.59-4.91,2.73-4.76,6.17.8,19.25,4.88,37.74,15.09,54.2,9.17,14.79,20.46,15.72,35.15,6.47,11.88-7.48,19.33-19.12,24.27-32.32,3.57-9.53,7.52-18.93,11.47-28.32,1.78-4.24,12.34-10.07,16.51-9.45,4.4.65,8.87,4.91,8.79,9.57-.11,6.05-.69,12.18-1.86,18.11-1.4,7.14-3.58,14.13-5.53,21.15-4.25,15.32-12.43,28.22-24.73,38.27-12.53,10.24-26.64,15.28-43.08,11.83-5.12-1.08-10.59-.88-15.52-2.45-18.68-5.95-31.06-18.63-38.33-36.76-6.22-15.53-10.1-31.64-12.7-48.08-.67-4.26-2.52-5.73-6.48-6.7-5.58-1.38-11.28-3.11-16.29-5.85-7.71-4.22-8.93-11.24-4.37-18.56,1.85-2.96,4.13-4.66,7.76-4.72,4.91-.08,9.81-.5,15.36-.81,2.25-10.96,1.85-21.66,1.12-32.36-.31-4.59-3.59-5.53-7.48-5.37-6.7.28-13.41.81-20.11.82-8.13.02-15.58-2.02-21.23-8.48-3.04-3.47-5.35-7.23-3.43-11.89,2.04-4.96,5.76-7.99,11.45-7.91,10.2.13,20.4.24,30.6.39,2.04.03,4.08.22,6.12.34,3.67.22,5.42-1.72,5.53-5.19.09-2.9-.09-5.82-.1-8.73-.02-3.19-.43-6.47.12-9.57,1.01-5.82,6.06-9.9,11.87-9.23,4.24.49,8.54,1.77,12.47,3.5,6.58,2.88,9.51,8.16,8.71,15.52-.49,4.54-.45,9.13-.69,14.62,9.51.82,18.19,1.25,26.78,2.42,6.58.9,13.05,2.7,19.55,4.16.83.19,1.89.48,2.34,1.09,2.16,2.92,4.15,5.96,6.2,8.96-2.91,1.66-5.67,4.3-8.76,4.79-9.48,1.48-19.09,2.16-28.66,3.11-3.77.38-7.58.49-11.32,1.03-8.07,1.16-9.19,2.35-9.82,10.59-.71,9.26-1.7,18.57,1.98,28.38Z"/>
        </g>
        <g>
          <path class="cls-4" d="m1184.07,571.82c0-9.71-.42-19.43.11-29.11.66-12.17,4.83-15.85,16.8-15.76,3.85.03,7.86.16,11.5,1.23,13.27,3.9,16.79,8.46,14.31,22.17-5.11,28.35-4.13,56.49,1.14,84.56,1.71,9.09,4.46,18.09,7.7,26.77,2.37,6.34,4.77,6.57,10.76,2.82,5.92-3.71,11.7-7.65,17.62-11.37,2.29-1.44,4.64-3.19,7.19-3.73,6.87-1.46,14.38-2.99,19.94,2.49,4.86,4.79,2.06,11.29.33,16.61-7.17,22.12-22.98,36.15-44.91,41.63-14.04,3.51-26.92-2.25-35.92-14.21-11.43-15.19-17.96-32.64-21.36-51.13-2.53-13.73-4.38-27.63-5.54-41.54-.87-10.4-.17-20.94-.17-31.42h.5Z"/>
          <path class="cls-4" d="m1429.42,628.51c-.08,6.51-2.67,11.56-7.18,15.69-3.45,3.15-7.21,4.79-11.13.54-.26-.29-.51-.75-.82-.8-14.29-2.39-16.15-14.49-20.34-25.23-9.92-25.46-14.11-52.35-20.33-78.72-3.15-13.34,5.21-21.73,19-20.27,2.7.29,5.49.34,8.06,1.11,11.8,3.5,17.79,9.76,18.92,20.6,2.28,21.96,5.49,43.82,8.71,65.67,1.07,7.23,3.37,14.28,5.11,21.42Z"/>
        </g>
        <g>
          <g>
            <g>
              <path class="cls-4" d="m1073.23,471.91c-2.2-6.31-6.04-11.03-11.91-13.66-5.09-2.27-10.54-3.98-16-5.12-13.77-2.89-27.76-2.85-41.63-1.13-12.97,1.6-25.64,4.21-36.41,12.81-5.03,4.02-7.62,7.89-5.66,14.33.76,2.49,1.11,5.31.81,7.88-1.6,13.53-3.46,27.03-5.71,44.19-.33,12.36-.79,28.33-1.13,44.3-.04,1.75.63,3.5.83,5.26,1.37,12.05,3.45,24.07,3.79,36.15.22,7.85,3.01,12.97,9.41,16.73,5.57,3.27,11.55,5.04,17.88,3.32,8.84-2.41,17.51-5.44,26.31-7.99,17.93-5.18,35.91-10.22,53.86-15.32,7.86-2.23,9.35-3.98,9.57-11.66.25-8.88.47-17.75.61-26.63.3-19.26.58-38.52.79-57.78.17-15.45-.24-30.81-5.41-45.68Zm-75.66,15.28c1.43-2.46,4.76-4.49,7.63-5.3,7.08-2.02,14.34-3.57,21.62-4.67,10.72-1.61,15.62,1.72,17.87,12.25.88,4.13.31,8.56.4,13.08-9.87,2.3-17.93-2.6-26.38-2.24-8.17.35-16.34.94-26.32,1.54,2-5.97,2.88-10.72,5.17-14.65Zm-1.19,47.2c12.88-4.56,25.85-8.98,39.85-8.34,3.84.18,8.76-.28,9.48,4.54.81,5.39.09,11.05-.43,16.55-.06.66-3.19,1.79-4.61,1.46-16.45-3.76-32.44-.09-48.5,2.62-1.07.18-2.26-.31-3.92-.56-1.65-11.21-.89-13.07,8.14-16.27Zm50.13,48.2c-.1.88-.27,1.75-.4,2.63.02,0,.04,0,.06,0-.27,1.75-.53,3.51-.82,5.26-.51,3.01-2.24,4.48-5.33,4.96-13.99,2.15-27.96,4.47-41.94,6.71-2.04.33-4.1.73-6.15.77-1.07.02-2.41-.4-3.2-1.1-3.9-3.47-1.57-16.78,3.41-18.2,14.49-4.11,29-8.27,43.68-11.6,10.31-2.34,11.96-.25,10.69,10.56Z"/>
              <path class="cls-4" d="m946.37,548.5c-6.27,4.4-12.67,3.79-18.97,2.12-17.19-4.57-34.61-8.47-50.68-16.56-2.53-1.28-5.54-1.62-9.45-2.71-.7,3.62-1.66,6.37-1.7,9.14-.29,20.44-.32,40.88-.59,61.32-.19,14.24-.58,28.48-1.04,42.72-.05,1.61-.64,3.68-1.75,4.71-5.53,5.16-12.37,5.78-19.16,3.73-6.18-1.86-9.75-6.55-10.15-13.23-.18-2.96-.41-5.94-.28-8.89.95-21.92,2.08-43.83,2.92-65.75.26-6.72-.24-13.47-.45-22.47-3.64,2.94-6.35,4.26-7.77,6.43-4.37,6.67-8.36,13.6-12.24,20.56-1.58,2.83-2.55,6-3.75,9.04-1.44,3.67-4.16,5.74-7.99,6.26-5.56.75-11.13,1.34-16.91,2.02-.68-1.19-1.78-2.2-1.73-3.15.72-13.68,1.67-27.3,10.26-38.97,2.63-3.57,4.54-7.67,7.1-11.3,4.77-6.77,9.62-13.49,14.72-20.01,4.33-5.53,4.52-5.39,4.83-12.66-2.35.36-4.56.48-6.64,1.05-7.14,1.96-14.15,4.54-21.39,6.02-8.46,1.74-16.63-.12-23.63-5.22-8.93-6.51-8.06-13.8,2.18-17.69,5.51-2.09,11.38-3.37,17.19-4.53,13.1-2.61,26.31-4.64,39.36-7.44,9.44-2.03,10.21-3.68,10-13.6-.11-5.04-.28-10.13.26-15.12.82-7.6,5.42-10.82,12.9-9.71,12.87,1.92,19.2,9.12,19.46,22.15.23,11.47.23,11.37,11.95,12.05,11.96.7,23.46,3.55,34.6,7.88,2.81,1.1,5.63,2.35,5.69,6.02.06,4.15-3.13,5.88-6.25,6.48-4.6.89-9.39.99-14.1,1.06-6.22.09-12.45-.22-18.68-.28-4.39-.04-7.18,1.89-8.38,6.37-1.11,4.15-.75,7.42,2.93,10.22,12.81,9.76,26.2,18.48,41.32,24.28,4.99,1.91,10,3.77,15,5.63,5.3,1.98,9.09,5.37,10.99,12.02Z"/>
            </g>
            <g>
              <g>
                <path class="cls-4" d="m979.62,777.08c-27.73-5.11-46.84-25.87-64.41-46.3-7.92-9.21-11.68-20.48-12.75-32.52-.28-3.18.19-6.57,1.05-9.67,1.29-4.67,5.04-7.06,9.76-6.43,12.64,1.69,20.14,8.92,18.97,19.93-1.55,14.64,12.18,30.13,21.79,39.75,11.73,11.75,26.28,15.69,42.64,14.26,16.56-1.45,33.12-3.88,49.6-5.58,4.18-.43,6.81-2.48,8.43-6.44,1.6-3.91,3.28-8.32,8.89-7.63,6.11.75,12.31,1.7,14.14,9.02,1.16,4.62,2.39,9.33,2.66,14.05.51,8.74-3.83,13.03-12.59,13.39-28.07,1.15-59.61,9.06-87.3,4.32-.3-.05-.59-.1-.88-.16Z"/>
                <path class="cls-4" d="m807.45,755.61c3.45-15.8,7.99-31.2,14.49-46.02.9-2.05,1.12-4.38,1.76-6.55,1.37-4.58,2.51-9.26,4.29-13.67,4.87-12.08,18.13-13.8,26.21-3.47,3.23,4.14,3.3,8.51,1.2,13.45-4.42,10.4-9.12,20.77-12.31,31.57-5.34,18.09-9.55,36.51-14.34,54.76-.69,2.63-1.33,5.63-3.01,7.57-4.59,5.29-8.84,6.5-14.63,3.82-7.17-3.32-8.93-4.87-8.06-12.42,1.12-9.72,2.91-19.37,4.41-29.05Z"/>
                <path class="cls-4" d="m991.28,654.32c3.26,1.82,6.73,3.35,9.72,5.53,4.34,3.17,6.42,7.44,5.4,13.12-.7,3.91-.97,7.98-.8,11.95.29,7.09,3.77,12.85,8.32,18.12,1.7,1.96,4.38,3.88,2.64,7.16-1.46,2.75-5.22,3.69-9.41,2.43-3.36-1.02-6.93-1.71-9.97-3.34-3.68-1.97-7.73-4.15-10.18-7.34-8.49-11.05-11.28-23.97-9.96-37.68.75-7.78,6.31-11.24,14.24-9.96Z"/>
                <path class="cls-4" d="m1075.16,700.71c-4.33-.28-7.76-2.96-9.89-7.33-1.97-4.05-4.22-8.04-5.56-12.3-2.68-8.53,3.62-15.29,12.26-13.31,16.79,3.86,18.94,13,17.59,26.51-.58,5.78-4.22,8.09-10.09,7.37-1.24-.15-2.45-.53-4.32-.94Z"/>
              </g>
              <g>
                <path class="cls-3" d="m979.62,777.08c-27.73-5.11-46.84-25.87-64.41-46.3-7.92-9.21-11.68-20.48-12.75-32.52-.28-3.18.19-6.57,1.05-9.67,1.29-4.67,5.04-7.06,9.76-6.43,12.64,1.69,20.14,8.92,18.97,19.93-1.55,14.64,12.18,30.13,21.79,39.75,11.73,11.75,26.28,15.69,42.64,14.26,16.56-1.45,33.12-3.88,49.6-5.58,4.18-.43,6.81-2.48,8.43-6.44,1.6-3.91,3.28-8.32,8.89-7.63,6.11.75,12.31,1.7,14.14,9.02,1.16,4.62,2.39,9.33,2.66,14.05.51,8.74-3.83,13.03-12.59,13.39-28.07,1.15-59.61,9.06-87.3,4.32-.3-.05-.59-.1-.88-.16Z"/>
                <path class="cls-3" d="m807.45,755.61c3.45-15.8,7.99-31.2,14.49-46.02.9-2.05,1.12-4.38,1.76-6.55,1.37-4.58,2.51-9.26,4.29-13.67,4.87-12.08,18.13-13.8,26.21-3.47,3.23,4.14,3.3,8.51,1.2,13.45-4.42,10.4-9.12,20.77-12.31,31.57-5.34,18.09-9.55,36.51-14.34,54.76-.69,2.63-1.33,5.63-3.01,7.57-4.59,5.29-8.84,6.5-14.63,3.82-7.17-3.32-8.93-4.87-8.06-12.42,1.12-9.72,2.91-19.37,4.41-29.05Z"/>
                <path class="cls-3" d="m991.28,654.32c3.26,1.82,6.73,3.35,9.72,5.53,4.34,3.17,6.42,7.44,5.4,13.12-.7,3.91-.97,7.98-.8,11.95.29,7.09,3.77,12.85,8.32,18.12,1.7,1.96,4.38,3.88,2.64,7.16-1.46,2.75-5.22,3.69-9.41,2.43-3.36-1.02-6.93-1.71-9.97-3.34-3.68-1.97-7.73-4.15-10.18-7.34-8.49-11.05-11.28-23.97-9.96-37.68.75-7.78,6.31-11.24,14.24-9.96Z"/>
                <path class="cls-3" d="m1075.16,700.71c-4.33-.28-7.76-2.96-9.89-7.33-1.97-4.05-4.22-8.04-5.56-12.3-2.68-8.53,3.62-15.29,12.26-13.31,16.79,3.86,18.94,13,17.59,26.51-.58,5.78-4.22,8.09-10.09,7.37-1.24-.15-2.45-.53-4.32-.94Z"/>
              </g>
            </g>
          </g>
          <g>
            <g>
              <path class="cls-2" d="m1073.23,471.91c-2.2-6.31-6.04-11.03-11.91-13.66-5.09-2.27-10.54-3.98-16-5.12-13.77-2.89-27.76-2.85-41.63-1.13-12.97,1.6-25.64,4.21-36.41,12.81-5.03,4.02-7.62,7.89-5.66,14.33.76,2.49,1.11,5.31.81,7.88-1.6,13.53-3.46,27.03-5.71,44.19-.33,12.36-.79,28.33-1.13,44.3-.04,1.75.63,3.5.83,5.26,1.37,12.05,3.45,24.07,3.79,36.15.22,7.85,3.01,12.97,9.41,16.73,5.57,3.27,11.55,5.04,17.88,3.32,8.84-2.41,17.51-5.44,26.31-7.99,17.93-5.18,35.91-10.22,53.86-15.32,7.86-2.23,9.35-3.98,9.57-11.66.25-8.88.47-17.75.61-26.63.3-19.26.58-38.52.79-57.78.17-15.45-.24-30.81-5.41-45.68Zm-75.66,15.28c1.43-2.46,4.76-4.49,7.63-5.3,7.08-2.02,14.34-3.57,21.62-4.67,10.72-1.61,15.62,1.72,17.87,12.25.88,4.13.31,8.56.4,13.08-9.87,2.3-17.93-2.6-26.38-2.24-8.17.35-16.34.94-26.32,1.54,2-5.97,2.88-10.72,5.17-14.65Zm-1.19,47.2c12.88-4.56,25.85-8.98,39.85-8.34,3.84.18,8.76-.28,9.48,4.54.81,5.39.09,11.05-.43,16.55-.06.66-3.19,1.79-4.61,1.46-16.45-3.76-32.44-.09-48.5,2.62-1.07.18-2.26-.31-3.92-.56-1.65-11.21-.89-13.07,8.14-16.27Zm50.13,48.2c-.1.88-.27,1.75-.4,2.63.02,0,.04,0,.06,0-.27,1.75-.53,3.51-.82,5.26-.51,3.01-2.24,4.48-5.33,4.96-13.99,2.15-27.96,4.47-41.94,6.71-2.04.33-4.1.73-6.15.77-1.07.02-2.41-.4-3.2-1.1-3.9-3.47-1.57-16.78,3.41-18.2,14.49-4.11,29-8.27,43.68-11.6,10.31-2.34,11.96-.25,10.69,10.56Z"/>
              <path class="cls-2" d="m946.37,548.5c-6.27,4.4-12.67,3.79-18.97,2.12-17.19-4.57-34.61-8.47-50.68-16.56-2.53-1.28-5.54-1.62-9.45-2.71-.7,3.62-1.66,6.37-1.7,9.14-.29,20.44-.32,40.88-.59,61.32-.19,14.24-.58,28.48-1.04,42.72-.05,1.61-.64,3.68-1.75,4.71-5.53,5.16-12.37,5.78-19.16,3.73-6.18-1.86-9.75-6.55-10.15-13.23-.18-2.96-.41-5.94-.28-8.89.95-21.92,2.08-43.83,2.92-65.75.26-6.72-.24-13.47-.45-22.47-3.64,2.94-6.35,4.26-7.77,6.43-4.37,6.67-8.36,13.6-12.24,20.56-1.58,2.83-2.55,6-3.75,9.04-1.44,3.67-4.16,5.74-7.99,6.26-5.56.75-11.13,1.34-16.91,2.02-.68-1.19-1.78-2.2-1.73-3.15.72-13.68,1.67-27.3,10.26-38.97,2.63-3.57,4.54-7.67,7.1-11.3,4.77-6.77,9.62-13.49,14.72-20.01,4.33-5.53,4.52-5.39,4.83-12.66-2.35.36-4.56.48-6.64,1.05-7.14,1.96-14.15,4.54-21.39,6.02-8.46,1.74-16.63-.12-23.63-5.22-8.93-6.51-8.06-13.8,2.18-17.69,5.51-2.09,11.38-3.37,17.19-4.53,13.1-2.61,26.31-4.64,39.36-7.44,9.44-2.03,10.21-3.68,10-13.6-.11-5.04-.28-10.13.26-15.12.82-7.6,5.42-10.82,12.9-9.71,12.87,1.92,19.2,9.12,19.46,22.15.23,11.47.23,11.37,11.95,12.05,11.96.7,23.46,3.55,34.6,7.88,2.81,1.1,5.63,2.35,5.69,6.02.06,4.15-3.13,5.88-6.25,6.48-4.6.89-9.39.99-14.1,1.06-6.22.09-12.45-.22-18.68-.28-4.39-.04-7.18,1.89-8.38,6.37-1.11,4.15-.75,7.42,2.93,10.22,12.81,9.76,26.2,18.48,41.32,24.28,4.99,1.91,10,3.77,15,5.63,5.3,1.98,9.09,5.37,10.99,12.02Z"/>
            </g>
            <g>
              <g>
                <path class="cls-2" d="m979.62,777.08c-27.73-5.11-46.84-25.87-64.41-46.3-7.92-9.21-11.68-20.48-12.75-32.52-.28-3.18.19-6.57,1.05-9.67,1.29-4.67,5.04-7.06,9.76-6.43,12.64,1.69,20.14,8.92,18.97,19.93-1.55,14.64,12.18,30.13,21.79,39.75,11.73,11.75,26.28,15.69,42.64,14.26,16.56-1.45,33.12-3.88,49.6-5.58,4.18-.43,6.81-2.48,8.43-6.44,1.6-3.91,3.28-8.32,8.89-7.63,6.11.75,12.31,1.7,14.14,9.02,1.16,4.62,2.39,9.33,2.66,14.05.51,8.74-3.83,13.03-12.59,13.39-28.07,1.15-59.61,9.06-87.3,4.32-.3-.05-.59-.1-.88-.16Z"/>
                <path class="cls-2" d="m807.45,755.61c3.45-15.8,7.99-31.2,14.49-46.02.9-2.05,1.12-4.38,1.76-6.55,1.37-4.58,2.51-9.26,4.29-13.67,4.87-12.08,18.13-13.8,26.21-3.47,3.23,4.14,3.3,8.51,1.2,13.45-4.42,10.4-9.12,20.77-12.31,31.57-5.34,18.09-9.55,36.51-14.34,54.76-.69,2.63-1.33,5.63-3.01,7.57-4.59,5.29-8.84,6.5-14.63,3.82-7.17-3.32-8.93-4.87-8.06-12.42,1.12-9.72,2.91-19.37,4.41-29.05Z"/>
                <path class="cls-2" d="m991.28,654.32c3.26,1.82,6.73,3.35,9.72,5.53,4.34,3.17,6.42,7.44,5.4,13.12-.7,3.91-.97,7.98-.8,11.95.29,7.09,3.77,12.85,8.32,18.12,1.7,1.96,4.38,3.88,2.64,7.16-1.46,2.75-5.22,3.69-9.41,2.43-3.36-1.02-6.93-1.71-9.97-3.34-3.68-1.97-7.73-4.15-10.18-7.34-8.49-11.05-11.28-23.97-9.96-37.68.75-7.78,6.31-11.24,14.24-9.96Z"/>
                <path class="cls-2" d="m1075.16,700.71c-4.33-.28-7.76-2.96-9.89-7.33-1.97-4.05-4.22-8.04-5.56-12.3-2.68-8.53,3.62-15.29,12.26-13.31,16.79,3.86,18.94,13,17.59,26.51-.58,5.78-4.22,8.09-10.09,7.37-1.24-.15-2.45-.53-4.32-.94Z"/>
              </g>
              <g>
                <path class="cls-2" d="m979.62,777.08c-27.73-5.11-46.84-25.87-64.41-46.3-7.92-9.21-11.68-20.48-12.75-32.52-.28-3.18.19-6.57,1.05-9.67,1.29-4.67,5.04-7.06,9.76-6.43,12.64,1.69,20.14,8.92,18.97,19.93-1.55,14.64,12.18,30.13,21.79,39.75,11.73,11.75,26.28,15.69,42.64,14.26,16.56-1.45,33.12-3.88,49.6-5.58,4.18-.43,6.81-2.48,8.43-6.44,1.6-3.91,3.28-8.32,8.89-7.63,6.11.75,12.31,1.7,14.14,9.02,1.16,4.62,2.39,9.33,2.66,14.05.51,8.74-3.83,13.03-12.59,13.39-28.07,1.15-59.61,9.06-87.3,4.32-.3-.05-.59-.1-.88-.16Z"/>
                <path class="cls-2" d="m807.45,755.61c3.45-15.8,7.99-31.2,14.49-46.02.9-2.05,1.12-4.38,1.76-6.55,1.37-4.58,2.51-9.26,4.29-13.67,4.87-12.08,18.13-13.8,26.21-3.47,3.23,4.14,3.3,8.51,1.2,13.45-4.42,10.4-9.12,20.77-12.31,31.57-5.34,18.09-9.55,36.51-14.34,54.76-.69,2.63-1.33,5.63-3.01,7.57-4.59,5.29-8.84,6.5-14.63,3.82-7.17-3.32-8.93-4.87-8.06-12.42,1.12-9.72,2.91-19.37,4.41-29.05Z"/>
                <path class="cls-2" d="m991.28,654.32c3.26,1.82,6.73,3.35,9.72,5.53,4.34,3.17,6.42,7.44,5.4,13.12-.7,3.91-.97,7.98-.8,11.95.29,7.09,3.77,12.85,8.32,18.12,1.7,1.96,4.38,3.88,2.64,7.16-1.46,2.75-5.22,3.69-9.41,2.43-3.36-1.02-6.93-1.71-9.97-3.34-3.68-1.97-7.73-4.15-10.18-7.34-8.49-11.05-11.28-23.97-9.96-37.68.75-7.78,6.31-11.24,14.24-9.96Z"/>
                <path class="cls-2" d="m1075.16,700.71c-4.33-.28-7.76-2.96-9.89-7.33-1.97-4.05-4.22-8.04-5.56-12.3-2.68-8.53,3.62-15.29,12.26-13.31,16.79,3.86,18.94,13,17.59,26.51-.58,5.78-4.22,8.09-10.09,7.37-1.24-.15-2.45-.53-4.32-.94Z"/>
              </g>
              <g>
                <path class="cls-2" d="m979.62,777.08c-27.73-5.11-46.84-25.87-64.41-46.3-7.92-9.21-11.68-20.48-12.75-32.52-.28-3.18.19-6.57,1.05-9.67,1.29-4.67,5.04-7.06,9.76-6.43,12.64,1.69,20.14,8.92,18.97,19.93-1.55,14.64,12.18,30.13,21.79,39.75,11.73,11.75,26.28,15.69,42.64,14.26,16.56-1.45,33.12-3.88,49.6-5.58,4.18-.43,6.81-2.48,8.43-6.44,1.6-3.91,3.28-8.32,8.89-7.63,6.11.75,12.31,1.7,14.14,9.02,1.16,4.62,2.39,9.33,2.66,14.05.51,8.74-3.83,13.03-12.59,13.39-28.07,1.15-59.61,9.06-87.3,4.32-.3-.05-.59-.1-.88-.16Z"/>
                <path class="cls-2" d="m807.45,755.61c3.45-15.8,7.99-31.2,14.49-46.02.9-2.05,1.12-4.38,1.76-6.55,1.37-4.58,2.51-9.26,4.29-13.67,4.87-12.08,18.13-13.8,26.21-3.47,3.23,4.14,3.3,8.51,1.2,13.45-4.42,10.4-9.12,20.77-12.31,31.57-5.34,18.09-9.55,36.51-14.34,54.76-.69,2.63-1.33,5.63-3.01,7.57-4.59,5.29-8.84,6.5-14.63,3.82-7.17-3.32-8.93-4.87-8.06-12.42,1.12-9.72,2.91-19.37,4.41-29.05Z"/>
                <path class="cls-2" d="m991.28,654.32c3.26,1.82,6.73,3.35,9.72,5.53,4.34,3.17,6.42,7.44,5.4,13.12-.7,3.91-.97,7.98-.8,11.95.29,7.09,3.77,12.85,8.32,18.12,1.7,1.96,4.38,3.88,2.64,7.16-1.46,2.75-5.22,3.69-9.41,2.43-3.36-1.02-6.93-1.71-9.97-3.34-3.68-1.97-7.73-4.15-10.18-7.34-8.49-11.05-11.28-23.97-9.96-37.68.75-7.78,6.31-11.24,14.24-9.96Z"/>
                <path class="cls-2" d="m1075.16,700.71c-4.33-.28-7.76-2.96-9.89-7.33-1.97-4.05-4.22-8.04-5.56-12.3-2.68-8.53,3.62-15.29,12.26-13.31,16.79,3.86,18.94,13,17.59,26.51-.58,5.78-4.22,8.09-10.09,7.37-1.24-.15-2.45-.53-4.32-.94Z"/>
              </g>
            </g>
          </g>
          <g>
            <g>
              <path class="cls-4" d="m1073.23,471.91c-2.2-6.31-6.04-11.03-11.91-13.66-5.09-2.27-10.54-3.98-16-5.12-13.77-2.89-27.76-2.85-41.63-1.13-12.97,1.6-25.64,4.21-36.41,12.81-5.03,4.02-7.62,7.89-5.66,14.33.76,2.49,1.11,5.31.81,7.88-1.6,13.53-3.46,27.03-5.71,44.19-.33,12.36-.79,28.33-1.13,44.3-.04,1.75.63,3.5.83,5.26,1.37,12.05,3.45,24.07,3.79,36.15.22,7.85,3.01,12.97,9.41,16.73,5.57,3.27,11.55,5.04,17.88,3.32,8.84-2.41,17.51-5.44,26.31-7.99,17.93-5.18,35.91-10.22,53.86-15.32,7.86-2.23,9.35-3.98,9.57-11.66.25-8.88.47-17.75.61-26.63.3-19.26.58-38.52.79-57.78.17-15.45-.24-30.81-5.41-45.68Zm-75.66,15.28c1.43-2.46,4.76-4.49,7.63-5.3,7.08-2.02,14.34-3.57,21.62-4.67,10.72-1.61,15.62,1.72,17.87,12.25.88,4.13.31,8.56.4,13.08-9.87,2.3-17.93-2.6-26.38-2.24-8.17.35-16.34.94-26.32,1.54,2-5.97,2.88-10.72,5.17-14.65Zm-1.19,47.2c12.88-4.56,25.85-8.98,39.85-8.34,3.84.18,8.76-.28,9.48,4.54.81,5.39.09,11.05-.43,16.55-.06.66-3.19,1.79-4.61,1.46-16.45-3.76-32.44-.09-48.5,2.62-1.07.18-2.26-.31-3.92-.56-1.65-11.21-.89-13.07,8.14-16.27Zm50.13,48.2c-.1.88-.27,1.75-.4,2.63.02,0,.04,0,.06,0-.27,1.75-.53,3.51-.82,5.26-.51,3.01-2.24,4.48-5.33,4.96-13.99,2.15-27.96,4.47-41.94,6.71-2.04.33-4.1.73-6.15.77-1.07.02-2.41-.4-3.2-1.1-3.9-3.47-1.57-16.78,3.41-18.2,14.49-4.11,29-8.27,43.68-11.6,10.31-2.34,11.96-.25,10.69,10.56Z"/>
              <path class="cls-4" d="m946.37,548.5c-6.27,4.4-12.67,3.79-18.97,2.12-17.19-4.57-34.61-8.47-50.68-16.56-2.53-1.28-5.54-1.62-9.45-2.71-.7,3.62-1.66,6.37-1.7,9.14-.29,20.44-.32,40.88-.59,61.32-.19,14.24-.58,28.48-1.04,42.72-.05,1.61-.64,3.68-1.75,4.71-5.53,5.16-12.37,5.78-19.16,3.73-6.18-1.86-9.75-6.55-10.15-13.23-.18-2.96-.41-5.94-.28-8.89.95-21.92,2.08-43.83,2.92-65.75.26-6.72-.24-13.47-.45-22.47-3.64,2.94-6.35,4.26-7.77,6.43-4.37,6.67-8.36,13.6-12.24,20.56-1.58,2.83-2.55,6-3.75,9.04-1.44,3.67-4.16,5.74-7.99,6.26-5.56.75-11.13,1.34-16.91,2.02-.68-1.19-1.78-2.2-1.73-3.15.72-13.68,1.67-27.3,10.26-38.97,2.63-3.57,4.54-7.67,7.1-11.3,4.77-6.77,9.62-13.49,14.72-20.01,4.33-5.53,4.52-5.39,4.83-12.66-2.35.36-4.56.48-6.64,1.05-7.14,1.96-14.15,4.54-21.39,6.02-8.46,1.74-16.63-.12-23.63-5.22-8.93-6.51-8.06-13.8,2.18-17.69,5.51-2.09,11.38-3.37,17.19-4.53,13.1-2.61,26.31-4.64,39.36-7.44,9.44-2.03,10.21-3.68,10-13.6-.11-5.04-.28-10.13.26-15.12.82-7.6,5.42-10.82,12.9-9.71,12.87,1.92,19.2,9.12,19.46,22.15.23,11.47.23,11.37,11.95,12.05,11.96.7,23.46,3.55,34.6,7.88,2.81,1.1,5.63,2.35,5.69,6.02.06,4.15-3.13,5.88-6.25,6.48-4.6.89-9.39.99-14.1,1.06-6.22.09-12.45-.22-18.68-.28-4.39-.04-7.18,1.89-8.38,6.37-1.11,4.15-.75,7.42,2.93,10.22,12.81,9.76,26.2,18.48,41.32,24.28,4.99,1.91,10,3.77,15,5.63,5.3,1.98,9.09,5.37,10.99,12.02Z"/>
            </g>
            <g>
              <g>
                <path class="cls-4" d="m979.62,777.08c-27.73-5.11-46.84-25.87-64.41-46.3-7.92-9.21-11.68-20.48-12.75-32.52-.28-3.18.19-6.57,1.05-9.67,1.29-4.67,5.04-7.06,9.76-6.43,12.64,1.69,20.14,8.92,18.97,19.93-1.55,14.64,12.18,30.13,21.79,39.75,11.73,11.75,26.28,15.69,42.64,14.26,16.56-1.45,33.12-3.88,49.6-5.58,4.18-.43,6.81-2.48,8.43-6.44,1.6-3.91,3.28-8.32,8.89-7.63,6.11.75,12.31,1.7,14.14,9.02,1.16,4.62,2.39,9.33,2.66,14.05.51,8.74-3.83,13.03-12.59,13.39-28.07,1.15-59.61,9.06-87.3,4.32-.3-.05-.59-.1-.88-.16Z"/>
                <path class="cls-4" d="m807.45,755.61c3.45-15.8,7.99-31.2,14.49-46.02.9-2.05,1.12-4.38,1.76-6.55,1.37-4.58,2.51-9.26,4.29-13.67,4.87-12.08,18.13-13.8,26.21-3.47,3.23,4.14,3.3,8.51,1.2,13.45-4.42,10.4-9.12,20.77-12.31,31.57-5.34,18.09-9.55,36.51-14.34,54.76-.69,2.63-1.33,5.63-3.01,7.57-4.59,5.29-8.84,6.5-14.63,3.82-7.17-3.32-8.93-4.87-8.06-12.42,1.12-9.72,2.91-19.37,4.41-29.05Z"/>
                <path class="cls-4" d="m991.28,654.32c3.26,1.82,6.73,3.35,9.72,5.53,4.34,3.17,6.42,7.44,5.4,13.12-.7,3.91-.97,7.98-.8,11.95.29,7.09,3.77,12.85,8.32,18.12,1.7,1.96,4.38,3.88,2.64,7.16-1.46,2.75-5.22,3.69-9.41,2.43-3.36-1.02-6.93-1.71-9.97-3.34-3.68-1.97-7.73-4.15-10.18-7.34-8.49-11.05-11.28-23.97-9.96-37.68.75-7.78,6.31-11.24,14.24-9.96Z"/>
                <path class="cls-4" d="m1075.16,700.71c-4.33-.28-7.76-2.96-9.89-7.33-1.97-4.05-4.22-8.04-5.56-12.3-2.68-8.53,3.62-15.29,12.26-13.31,16.79,3.86,18.94,13,17.59,26.51-.58,5.78-4.22,8.09-10.09,7.37-1.24-.15-2.45-.53-4.32-.94Z"/>
              </g>
              <g>
                <path class="cls-4" d="m979.62,777.08c-27.73-5.11-46.84-25.87-64.41-46.3-7.92-9.21-11.68-20.48-12.75-32.52-.28-3.18.19-6.57,1.05-9.67,1.29-4.67,5.04-7.06,9.76-6.43,12.64,1.69,20.14,8.92,18.97,19.93-1.55,14.64,12.18,30.13,21.79,39.75,11.73,11.75,26.28,15.69,42.64,14.26,16.56-1.45,33.12-3.88,49.6-5.58,4.18-.43,6.81-2.48,8.43-6.44,1.6-3.91,3.28-8.32,8.89-7.63,6.11.75,12.31,1.7,14.14,9.02,1.16,4.62,2.39,9.33,2.66,14.05.51,8.74-3.83,13.03-12.59,13.39-28.07,1.15-59.61,9.06-87.3,4.32-.3-.05-.59-.1-.88-.16Z"/>
                <path class="cls-4" d="m807.45,755.61c3.45-15.8,7.99-31.2,14.49-46.02.9-2.05,1.12-4.38,1.76-6.55,1.37-4.58,2.51-9.26,4.29-13.67,4.87-12.08,18.13-13.8,26.21-3.47,3.23,4.14,3.3,8.51,1.2,13.45-4.42,10.4-9.12,20.77-12.31,31.57-5.34,18.09-9.55,36.51-14.34,54.76-.69,2.63-1.33,5.63-3.01,7.57-4.59,5.29-8.84,6.5-14.63,3.82-7.17-3.32-8.93-4.87-8.06-12.42,1.12-9.72,2.91-19.37,4.41-29.05Z"/>
                <path class="cls-4" d="m991.28,654.32c3.26,1.82,6.73,3.35,9.72,5.53,4.34,3.17,6.42,7.44,5.4,13.12-.7,3.91-.97,7.98-.8,11.95.29,7.09,3.77,12.85,8.32,18.12,1.7,1.96,4.38,3.88,2.64,7.16-1.46,2.75-5.22,3.69-9.41,2.43-3.36-1.02-6.93-1.71-9.97-3.34-3.68-1.97-7.73-4.15-10.18-7.34-8.49-11.05-11.28-23.97-9.96-37.68.75-7.78,6.31-11.24,14.24-9.96Z"/>
                <path class="cls-4" d="m1075.16,700.71c-4.33-.28-7.76-2.96-9.89-7.33-1.97-4.05-4.22-8.04-5.56-12.3-2.68-8.53,3.62-15.29,12.26-13.31,16.79,3.86,18.94,13,17.59,26.51-.58,5.78-4.22,8.09-10.09,7.37-1.24-.15-2.45-.53-4.32-.94Z"/>
              </g>
              <g>
                <path class="cls-4" d="m979.62,777.08c-27.73-5.11-46.84-25.87-64.41-46.3-7.92-9.21-11.68-20.48-12.75-32.52-.28-3.18.19-6.57,1.05-9.67,1.29-4.67,5.04-7.06,9.76-6.43,12.64,1.69,20.14,8.92,18.97,19.93-1.55,14.64,12.18,30.13,21.79,39.75,11.73,11.75,26.28,15.69,42.64,14.26,16.56-1.45,33.12-3.88,49.6-5.58,4.18-.43,6.81-2.48,8.43-6.44,1.6-3.91,3.28-8.32,8.89-7.63,6.11.75,12.31,1.7,14.14,9.02,1.16,4.62,2.39,9.33,2.66,14.05.51,8.74-3.83,13.03-12.59,13.39-28.07,1.15-59.61,9.06-87.3,4.32-.3-.05-.59-.1-.88-.16Z"/>
                <path class="cls-4" d="m807.45,755.61c3.45-15.8,7.99-31.2,14.49-46.02.9-2.05,1.12-4.38,1.76-6.55,1.37-4.58,2.51-9.26,4.29-13.67,4.87-12.08,18.13-13.8,26.21-3.47,3.23,4.14,3.3,8.51,1.2,13.45-4.42,10.4-9.12,20.77-12.31,31.57-5.34,18.09-9.55,36.51-14.34,54.76-.69,2.63-1.33,5.63-3.01,7.57-4.59,5.29-8.84,6.5-14.63,3.82-7.17-3.32-8.93-4.87-8.06-12.42,1.12-9.72,2.91-19.37,4.41-29.05Z"/>
                <path class="cls-4" d="m991.28,654.32c3.26,1.82,6.73,3.35,9.72,5.53,4.34,3.17,6.42,7.44,5.4,13.12-.7,3.91-.97,7.98-.8,11.95.29,7.09,3.77,12.85,8.32,18.12,1.7,1.96,4.38,3.88,2.64,7.16-1.46,2.75-5.22,3.69-9.41,2.43-3.36-1.02-6.93-1.71-9.97-3.34-3.68-1.97-7.73-4.15-10.18-7.34-8.49-11.05-11.28-23.97-9.96-37.68.75-7.78,6.31-11.24,14.24-9.96Z"/>
                <path class="cls-4" d="m1075.16,700.71c-4.33-.28-7.76-2.96-9.89-7.33-1.97-4.05-4.22-8.04-5.56-12.3-2.68-8.53,3.62-15.29,12.26-13.31,16.79,3.86,18.94,13,17.59,26.51-.58,5.78-4.22,8.09-10.09,7.37-1.24-.15-2.45-.53-4.32-.94Z"/>
              </g>
            </g>
          </g>
        </g>
      </g>
    </g>
  </g>
</svg>