<?xml version="1.0" encoding="UTF-8"?><svg id="_イヤー_2" xmlns="http://www.w3.org/2000/svg" viewBox="0 0 3643.532 328.561"><defs><style>.cls-1{fill:#f87502;}</style></defs><g id="_イヤー_1-2"><g><path class="cls-1" d="M385.526,91.775c-7.628,3.032-14.737,3.759-22.111,2.241-2.261-.465-4.677-.85-6.932-.563-14.45,1.839-28.875,3.875-43.72,5.903-2.635,18.723-9.248,36.322-7.645,56.255,12.756,1.039,25.002,.579,37.678,.487,11.844,.115,11.843,.202,21.584,7.936,1.655,11.734,.723,12.554-11.113,15.027-16.549,3.457-33.14,6.716-50.545,10.228-2.248,20.157,.156,39.818,1.327,60.693,13.857,.535,26.585-2.167,40.221-1.643,12.562,.495,25.185,1.843,37.555,4.078,12.452,2.25,13.322,4.102,14.93,18.632-29.56,6.588-60.215,7.944-90.132,12.68-16.783,2.375-33.391,5.971-50.15,8.552-5.489,.846-11.206,.224-16.818,.261-11.571,.077-17.501-8.612-24.02-15.973-2.917-3.294-1.229-9.416,3.554-11.958,15.966-7.79,34.537-5.014,51.536-8.996-1.751-19.187-3.444-37.744-5.176-56.734-3.073,.252-5.078,.103-6.895,.616-14.124,3.988-30.507-2.347-38.013-14.824-2.817-4.682-.937-11.219,4.276-13.045,9.127-3.032,18.435-5.75,27.91-7.439,14.263-3.364,14.255-3.749,14.857-18.634,.752-14.022,2.345-26.395,4.005-40.647-10.549,.083-20.208,.496-28.982,4.363-9.537,4.204-18.764,3.514-28.291,1.182-8.735-2.139-14.131-8.441-18.674-15.561-2.047-3.208-1.535-6.668,1.846-8.719,3.342-2.027,6.927-4.286,10.663-4.921,39.258-7.118,78.849-11.904,118.664-14.457,20.467-1.482,57.958-3.019,58.608,24.979Z"/><path class="cls-1" d="M1621.806,92.525c10.188,3.467,38.44,7.526,38.45,19.922,.312,6.184-3.918,8.19-8.543,10.597,5.117,2.53,9.803,4.469,14.689,6.882,8.16,5.33,8.464,13.319,.919,19.523-7.189,6.335-14.36,10.744-19.9,19.024,7.438,7.569,15.636,13.73,21.128,22.54,2.649,5.08,1.601,10.669-2.093,14.898-9.142,11.658-26.254-1.934-35.085-11.726-11.826,8.438-20.282,33.07-13.153,45.329,8.622,14.827,17.252,19.199,32.486,11.034,11.808-5.776,21.312-17.992,34.556-20.492,6.708-.514,13.466,2.93,15.374,8.902,4.355,19.838-27.62,38.218-43.425,44.086-7.478,2.81-15.151,.251-22.529-1.737-24.795-6.683-41.878-22.82-52.449-45.476-9.619-22.144,7.185-42.342,16.861-61.949-2.938-.722-5.67-2.015-8.368-1.949-12.391,.299-21.326-5.596-28.897-14.751-3.659-4.425-4.258-8.719-1.889-13.789,2.086-4.461,3.935-9.033,6.18-14.23-15.283,1.176-26.643-4.009-34.659-15.991-3.233-4.833-2.738-8.742,2.144-11.749,3.305-2.035,7.12-3.961,10.884-4.394,10.189-1.173,20.468-1.898,30.722-2.038,4.864-.067,7.475-2.134,9.256-6.016,3.733-8.136,7.622-16.218,10.923-24.53,3.942-9.927,8.135-11.712,18.247-7.442,5.212,2.201,10.714,3.653,14.116,8.781,2.78,4.192,3.907,8.112,.837,12.865-2.487,3.852-4.095,8.271-6.781,13.875Zm20.465,31.202c-.236-.674-.471-1.349-.707-2.023-9.546,0-19.093-.089-28.635,.077-1.833,.032-4.754,.558-5.291,1.722-3.085,6.698-8.75,12.484-8.228,20.719,6.258,2.445,12.239,4.78,17.943,7.008,8.295-9.974,12.526-22.32,24.918-27.504Z"/><path class="cls-1" d="M118.66,323.901c-2.795,.804-5.937-1.166-8.238-3.197-13.323-11.763-21.984-28.095-27.122-45.11s-6.99-34.826-8.516-52.534c-3.144-36.476-5.015-73.185-2.184-109.686-18.033,18.488-33.963,39.026-47.384,61.09-1.511,2.484-3.057,5.061-5.427,6.744-5.196,3.69-12.263,1.939-18.636,1.844-4.287-18.349,4.04-37.25,14.128-53.166,12.593-19.868,28.184-37.664,44.436-54.669,16.765-17.54,34.308-34.336,52.56-50.322,5.439-4.764,11.975-9.93,19.431-10.699,6.739-.695,15.092,1.705,20.204,6.175,3.589,3.138,5.728,8.47,3.734,12.801-1.052,2.286-3.059,3.963-5.003,5.56l-26.578,21.838c-3.661,3.008-7.535,6.344-8.644,10.951-.671,2.784-.234,5.695-.085,8.555,.361,6.946-1.007,13.848-2.209,20.699-11.134,63.443-8.389,129.285,7.987,191.581,2.351,8.945,4.95,18.614,1.508,27.198-.634,1.583-1.546,3.169-3.048,3.976-.299,.161-.604,.284-.914,.373Z"/><g><path class="cls-1" d="M1404.565,120.497c-14.431,2.189-27.7,3.228-40.429,6.422-11.404,2.861-22.454,2.818-31.585-3.597-7.546-5.301-15.197-12.886-18.596-21.182-12.15-28.993-14.605-63.449-1.301-92.837,3.834-6.681,9.085-11.388,15.657-8.369,18.486,8.491,37.937,3.609,56.825,5.382,61.725,7.408,52.648,58.858,54.849,105.79,.467,50.831,9.009,101.058,8.128,152.025,.359,14.935-.497,29.864,2.35,44.728,.788,4.114-1.341,8.787-2.173,13.435-14.256,1.397-32.063-4.51-33.368-20.187-.878-14.236-2.013-28.502-1.88-42.745,.274-29.249-1.105-58.303-5.368-87.291-2.372-17.76-1.102-33.193-3.11-51.575Zm-5.92-71.654c.29-8.42-3.86-11.527-10.033-12.713-14.413-2.77-28.313-.955-41.616,5.146-6.348,2.911-7.251,5.654-4.994,13.306,18.715-1.896,37.43-3.792,56.643-5.739Zm4.298,28.443c-21.645,2.856-39.781,6.459-60.418,11.966-1.408,4.754,1.657,5.881,5.912,5.955,19.102,.377,36.121,1.237,55.598-.797-.387-6.072-.709-11.131-1.091-17.124Z"/><path class="cls-1" d="M1168.671,139.779c-.934,41.153-3.717,80.991,5.343,121.293,4.573,21.972,12.831,43.313,13.195,65.958-15.303,4.974-27.226-2.596-32.704-16.551-16.469-51.717-20.973-104.371-19.665-158.272,.173-20.474,2.993-40.972,3.091-61.396-.436-15.394,3.236-30.129,5.632-45.064,.938-5.846,3.511-11.425,5.287-17.142,1.472-4.739,4.986-7.561,9.584-7.352,13.134,.598,24.607-4.807,36.197-9.511,8.796-4.422,17.183,.806,25.677,3.28,12.089,4.531,20.422,13.124,22.727,25.69,3.355,18.285,5.434,36.81,7.837,55.262,1.166,8.955-2.407,14.693-11.186,18.53-16.381,7.159-32.266,15.456-48.312,23.372-4.577,2.258-8.963,4.15-14.268,2.029-1.941-.776-4.453-.125-8.436-.125Zm11.178-81.469c.482,1.033,.964,2.066,1.446,3.1,9.178-1.727,18.356-3.453,27.486-5.171-.575-9.665-1.587-11.551-6.927-10.667-8.977,1.486-15.317,7.49-22.005,12.738Zm32.934,31.332c-.485-.715-.97-1.431-1.455-2.146-12.369,1.753-23.899,6.421-35.23,11.586-1.671,.762-2.661,3.019-3.966,4.585,.401,.676,.801,1.353,1.202,2.029,12.352-4.094,24.728-8.121,37.016-12.399,1.102-.384,1.636-2.398,2.433-3.656Z"/><path class="cls-1" d="M1233.995,216.965c3.058-16.005,8.568-38.651,11.804-56.302,.89-6.215,2.957-9.785,9.444-12.218,13.262-5.165,27.384-12.255,42.011-8.899,10.321,3.261,21.342,3.339,31.071,9.826,19.596,12.41,25.444,49.386,27.63,71.075,.211,3.268,1.533,6.453,2.231,9.701,2.316,10.779-2.833,17.32-13.574,18.009-19.191,3.167-37.606,10.556-56.521,15.121-4.869,1.306-9.443,2.192-13.029,6.446-1.467,1.741-5.195,2.074-7.907,2.112-2.184,.03-4.333-1.649-6.591-2.056-26.912-5.062-23.929-29.982-26.566-52.814Zm35.987,15.28c3.547,.373,5.227,.906,6.781,.656,13.095-2.104,26.174-4.316,39.236-6.615,1.183-.208,3.193-1.295,3.167-1.903-.325-6.656,.303-18.929-9.831-15.747-6.039,1.761-12.19,3.441-17.85,6.1-4.141,1.945-7.911,2.988-12.4,2.01-2.126-.464-4.437-.08-7.555-.08-.51,5.135-.981,9.873-1.548,15.579Zm11.852-52.011h29.014c-.27-6.755-4.14-9.568-8.741-12.297-6.655,3.826-15.477,3.673-20.273,12.297Z"/></g><g><path class="cls-1" d="M3135.241,80.511c-33.162,2.174-33.016,31.454-61.185,18.19-4.321-1.867-8.234-5.043-11.794-8.227-7.808-6.984-6.532-18.018,2.807-23.074,29.429-17.216,58.588-25.685,92.82-22.172,8.337,.459,15.811,4.755,22.069,11.004,5.599,5.591,6.477,11.494,3.99,18.553-5.835,16.566-11.536,33.179-17.404,49.733-.776,2.188-1.685,5-3.424,6.061-8.229,5.021-17.331,3.191-25.444,.497-7.256-2.409-8.87-9.341-7.46-17.012,1.938-10.538,3.211-21.198,5.026-33.554Z"/><path class="cls-1" d="M3102.413,277.106c-9.328-1.883-19.155-3.507-28.76-5.988-3.647-.942-7.233-3.371-10.062-5.975-6.152-5.663-7.296-11.061-4.589-17.126,2.749-6.157,7.617-9.446,15.749-8.027,45.396,7.626,70.119-11.63,108.833-28.899,8.376-3.76,17.004-6.143,26.373-1.307,9.089,4.692,9.096,7.048,2.653,14.587-12.588,14.728-30.223,21.026-45.881,30.803-21.41,14.339-38.859,19.024-64.315,21.931Z"/></g><g><path class="cls-1" d="M1022.45,133.654c-4.899-1.574-8.49-3.441-12.211-3.752-5.19-.434-8.057-3.163-11.307-6.822-3.249-3.657-3.303-6.804-1.925-10.871,1.815-5.357,3.375-10.8,5.019-16.214,2.541-8.37,1.579-10.048-6.768-11.367-56.262-9.355-114.472-2.898-167.664,17.673-13.385,3.727-13.484,3.713-15.007,17.105-1.777,15.618-.468,31.133,1.862,47.462,4.255-1.919,5.961-5.375,7.925-8.615,10.006-16.352,21.497-31.741,31.976-47.788,5.497-7.053,5.089-19.49,16.621-18.343,17.145,.258,34.843,10.977,23.258,29.463-17.796,27.185-38.121,52.847-56.94,79.369-5.048,6.901-8.41,7.861-17.02,5.162-6.563-2.058-13.352-3.838-14.774-12.249-.182-1.079-1.433-2.414-2.503-2.841-14.982-5.979-18.966-19.466-21.599-33.103-8.107-33.02-5.15-48.119,1.303-80.686,3.356-14.615,7.453-28.383,25.768-21.391,8.08,3.328,12.998,9.767,22.752,7.167,24.495-4.533,49.011-10.506,73.742-11.836,42.019-2.945,85.58-1.634,125.494,14.356,9.099,2.917,15.246,14.71,13.929,24.089-1.838,13.092-7.8,24.676-13.496,36.269-1.614,3.285-5.713,5.35-8.433,7.762Z"/><path class="cls-1" d="M901.589,267.169c0-15.267-.06-29.83,.033-44.392,.032-5.03-2.887-7.2-7.216-7.983-8.189-1.481-13.446-7.012-17.771-13.336-1.859-2.718-3.873-7.715-2.639-9.623,2.032-3.143,6.499-6.142,10.201-6.498,9.869-.951,19.88-.334,29.828-.582,10.537-.263,21.067-.793,31.599-1.229,8.565-.453,32.561,2.635,31.086,14.459-.281,4.114-2.253,6.739-6.295,7.968-6.66,2.026-13.156,4.729-19.926,6.211-4.619,1.011-7.693,3.34-8.091,7.519-1.313,13.807-7.442,27.003-5.136,42.561,26.264-1.661,52.683-4.055,78.983-4.11,8.619,.062,17.317,4.071,25.739,6.981,2.295,.793,4.745,3.881,5.29,6.325,1.459,7.382-8.98,9.386-14.398,10.682-39.665,4.131-79.19,9.118-118.462,16.128-13.124,2.086-26.201,4.674-39.403,5.987-9.35,.93-17.112-4.285-24.313-9.758-6.945-5.757-15.111-14.302-4.575-21.196,2.932-1.856,6.711-3.036,10.186-3.257,15.018-1.415,30.472,0,45.28-2.856Z"/><path class="cls-1" d="M1024.079,181.917c-12.268,5.386-22.14-.264-31.521-5.768-16.93-9.934-33.274-20.872-46.393-35.761-5.908-6.705-11.148-14.002-16.615-21.089-2.771-3.592-2.761-7.551-.259-11.143,2.422-3.477,5.827-5.555,10.326-3.995,6.536,2.267,13.133,4.409,19.505,7.081,4.035,1.692,6.217,5.297,8.653,9.073,10.389,17.093,26.138,30.218,43.42,39.871,9.01,4.925,13.634,11.115,12.884,21.732Z"/><path class="cls-1" d="M928.424,34.211c-8.206,6.367-17.313,4.861-26.161,4.433-11.592-.56-23.175-1.343-34.749-2.203-12.6-.936-22.68-6.839-30.071-16.847-5.235-7.089-1.662-15.228,7.204-15.792,9.199-.585,18.658-.59,27.711,.912,12.348,2.049,24.321,6.281,36.637,8.62,11.727,2.227,18.192,8.565,19.428,20.876Z"/></g><path class="cls-1" d="M286.414,56.03c-26.999,13.858-34.296-19.47-41.926-38.194-5.965-15.121,11.508-11.902,20.423-9.504,13.453,3.451,15.981,14.859,18.081,27.001,1.225,6.776,2.257,13.588,3.422,20.697Z"/><path class="cls-1" d="M2600.569,300.511c-8.456,.974-15.806-.587-21.679-6.098-8.17-7.666-15.93-15.769-23.86-23.691-3.378-3.376-4.832-7.42-2.229-11.64,2.745-4.449,6.736-7.745,12.454-5.531,6.096,2.361,12.393,4.613,17.868,8.075,8.612,5.446,13.782,14.18,18.543,22.933,2.735,5.027,1.819,10.239-1.099,15.951Z"/><g><path class="cls-1" d="M3395.702,29.796c.589,.106,1.228,.416,1.76,.287,11.021-2.6,21.116,3.015,31.658,3.989,4.843,5.103,12.208,5.114,17.735,8.814,14.317,9.027,38.868,23.345,22.671,42.342-5.131,5.467-10.385,10.828-15.337,16.455-2.842,3.229-4.651,7.224-9.285,8.837-2.638,.918-2.946,5.388-.476,8.406,4.82,5.432,9.626,11.162,15.415,15.606,4.54,3.112,6.538,7.652,7.869,12.799,1.018,3.939,3.8,7.158,4.736,11.299,2.326,10.29,5.853,20.69,4.705,31.097-.966,8.761-.821,17.64-3.057,26.489-2.321,9.187-4.804,18.359-7.601,27.386-1.341,4.329-1.45,9.406-5.323,12.893-1.465,1.319,.072,3.63-1.909,5.735-7.611,9.646-12.4,23.273-25.294,27.388-13.444,4.187-22.226,.513-30.923-9.925-4.274-4.825-.991-16.518,3.76-20.664,13.858-12.887,19.845-31.618,24.767-49.331,1.708-8.554,2.163-17.349,3.501-25.988,1.068-6.898-.359-13.485-1.703-20.108-.672-3.312-1.491-6.648-4.254-9.026-7.611-22.197-38.544-21.909-38.734-43.579,.138-5.916,2.169-11.034,7.479-13.942,9.918-5.432,17.756-13.316,25.753-21.027,5.228-4.951,9.211-13.104-1.695-13.144-8.155-.412-16.308-.991-24.469-1.161-6.44-.134-12.052-2.772-17.45-5.612-5.527-2.907-8.143-11.467-5.717-17.258,3.443-7.016,14.186-9.257,21.419-9.056Z"/><path class="cls-1" d="M3360.542,175.321c-.052,2.346-.764,5.696-3.364,8.971-8.069,10.185-16.62,20.58-20.337,33.296-1.197,3.5-2.592,6.951-3.088,10.634-.913,4.435-1.192,9.138-2.907,13.239-5.567,14.982-24.576,17.579-33.937,4.353-5.085-6.883-8.827-15.734-6.434-24.389,1.382-4.059,1.386-8.574,2.123-12.868,1.186-6.902,3.451-13.245,7.091-19.447,10.709-16.269,25.037-49.477,48.836-33.528,7.316,5.225,13.294,8.951,12.017,19.739Z"/><path class="cls-1" d="M3512.332,181.323c6.151-.943,12.433,2.992,19.206,4.944,1.371,3.846,6.325,2.849,8.182,6.067,5.066,9.83,12.626,17.994,18.699,27.158,4.16,6.244,7.886,12.791,11.554,19.345,1.619,2.892,1.813,6.003-.701,8.822-2.594,4.298-4.414,8.788-10.517,7.686-9.465-1.388-18.162-5.004-25.64-10.638-4.471-3.368-7.578-8.58-11.181-13.057-4.061-5.045-8.002-10.189-11.977-15.304-6.228-9.24-15.125-14.971-13.064-27.274,.116-.914,.52-2.189,1.198-2.569,4.084-2.288,7.642-5.96,14.241-5.18Z"/><path class="cls-1" d="M3621.32,115.245c-11.349-.099-20.587-10.466-20.144-20.338,.132-2.947-.308-5.983-.92-8.887-2.367-11.247-.667-22.613-1.125-33.912-.059-1.446,.549-3.372,1.558-4.328,4.198-3.981,8.464-7.828,15.168-6.43,4.267,.89,8.422,1.274,11.898,4.569,2.213,2.097,6.088,2.579,8.006,4.821,3.043,3.558,5.134,7.948,7.475,12.073,.421,.742,.341,1.972,.088,2.861-1.855,6.515-1.563,13.213-2.015,19.865-1.408,13.609-5.634,25.694-19.988,29.705Z"/><path class="cls-1" d="M3528.741,60.104c.522-12.622,12.088-19.313,23.398-13.435,1.228,.638,2.512,1.466,3.827,1.588,5.895,.546,9.364,4.95,13.559,8.205,.306,.237,.706,.589,.733,.915,.433,5.246,4.057,9.765,3.181,15.382-.662,5.636-.105,11.468-.475,17.161-.06,2.181-.439,4.412-.1,6.528,.324,2.018,2.184,3.63,.725,6.086-2.471,4.157-5.313,7.922-9.195,10.83-31.497,3.095-30.201-30.927-35.653-53.259Z"/></g><path class="cls-1" d="M2398.285,47.236c-13.307,2.16-23.163,5.635-33.465,1.586-5.035-1.979-9.812-3.444-10.415-9.697-.483-5.015,2.859-10.161,9.97-11.555,22.157-4.343,44.605-6.766,66.786-.529,11.146,3.134,13.688,11.028,7.023,21.121-16.891,25.144-33.386,49.766-51.297,74.329,2.28,.924,3.31,1.757,4.241,1.657,13.432-1.443,25.825,2.893,37.996,7.368,45.66,15.664,54.627,56,55.742,99.542-6.667,23.127-15.362,44.593-38.267,57.32-10.441,5.801-19.828,13.208-32.627,11.726-10.241-1.264-18.874-3.995-29.215-6.823-13.614-15.552-12.632-32.996-3.412-51.021,4.215-8.24,5.809-18.514,16.207-22.158,15.873-6.961,30.594-7.122,48.416-8.084,.647-31.693-23.141-71.714-60.449-58.773-7.841,3.637-16.184,7.261-22.477,12.918-9.661,8.683-20.123,8.175-31.076,5.792-5.467-1.189-10.45-4.795-11.393-10.791-.916-5.825,2.179-10.251,6.851-14.167,5.023-4.21,9.642-9.178,13.441-14.523,19.621-28.937,40.188-54.352,57.418-85.238Zm43.463,193.692c-27.093,.515-34.433,8.644-26.853,30.087,11.427-7.971,22.626-15.265,26.853-30.087Z"/><path class="cls-1" d="M1916.284,268.327c-15.021-31.995,35.589-10.729,45.786-87.982,.784-5.019-.866-11.437-3.638-15.812-41.411-64.994-89.311-59.665-153.863-34.623-13.441,4.88-25.949,5.63-38.667-1.737-18.571-10.974-3.045-25.629,10.803-30.286,62.042-20.512,137.222-31.678,190.065,15.768,14.948,12.008,44.576,49.46,42.132,68.67-5.782,34.124-22.856,61.906-48.884,84.305-12.478,11.032-29.59,5.749-43.734,1.695Z"/><path class="cls-1" d="M2214.253,287.098c-17.314,.446-31.718-10.551-45.988-21.424-37.697-28.578-64.623-67.318-82.391-110.861-3.086-8.557-1.969-14.264,5.421-18.762,18.788-11.436,31.612-28.986,47.114-43.8,11.29-10.788,23.578-20.61,36.003-30.103,10.224-8.073,26.63-4.161,34.538,6.797,11.633,13.174,11.278,18.051-3.088,27.623-22.163,14.767-40.494,33.756-58.702,52.833-9.607,10.065-9.585,12.744-3.342,25.059,18.734,38.721,39.345,61.811,76.723,83.577,7.812,5.269,10.873,12.932,8.997,21.916-1.346,6.446-4.127,7.98-15.285,7.143Z"/><g><path class="cls-1" d="M2872.006,52.141c1.537-9.153,3.127-17.63,4.355-26.16,1.83-12.709,7.07-16.94,19.208-13.689,26.314,4.359,22.657,20.241,17.513,41.992,15.732,6.574,48.406,6.706,44.415,30.717-15.094,6.314-30.817-1.139-47.635,2.196-1.702,20.222-2.523,41.902-3.927,62.36-.608,8.869,3.459,13.923,11.379,17.591,15.882,7.355,31.561,15.191,47,23.434,6.323,3.375,12.119,7.962,17.544,12.698,2.702,2.358,4.809,6.072,5.806,9.565,2.077,7.274-2.701,13.762-10.271,14.477-11.352,1.072-20.713-4.201-29.583-10.276-11.774-8.065-24.549-13.447-40.195-16.759-.366,4.761-1.243,8.731-.867,12.577,1.566,16.004-2.89,30.971-7.256,45.996-2.711,9.329-9.231,15.76-16.691,21.182-17.025,12.329-56.095-11.247-66.942-26.019-25.55-29.883,2.496-65.724,22.356-89.96,1.61-1.973,4.108-3.461,6.485-4.525,7.247-3.246,14.635-6.175,22.284-9.359,3.331-10.675,3.996-52.989,.495-63.598-20.18,4.355-43.574,13.018-58.714-6.895-8.315-10.177-6.459-19.422,6.555-22.001,19.266-3.156,36.749-5.413,56.684-5.545Zm-16.436,197.993c12.921-11.016,18.7-42.187,11.042-59.06-15.422,14.184-32.999,42.608-11.042,59.06Z"/><path class="cls-1" d="M2728.497,273.654c-42.808-4.01-53.455-46.954-54.13-82.645-.917-38.528,.778-76.822,8.51-114.695,1.891-9.261,7.188-13.78,16.089-11.276,7.141,2.008,13.873,5.931,20.271,9.846,2.026,1.24,3.159,5.149,3.317,7.916,.19,3.304-.845,6.77-1.798,10.035-12.885,46.63-11.954,95.597-.605,142.238,1.086,4.458,3.663,6.675,8.755,7.34,13.31,1.739,19.347,14.256,11.699,25.204-2.512,3.596-8.853,4.517-12.109,6.037Z"/></g><g><path class="cls-1" d="M726.534,159.848c-7.378-1.675-16.237-3.631-23.179-9.717-13.451-11.792-26.384-24.103-37.249-38.467-6.842-7.496-.434-18.956,9.16-17.329,9.315,1.437,18.011,4.843,24.672,11.761,9.407,9.77,18.324,20.01,27.69,29.821,4.278,4.481,7.307,9.341,8.006,15.567,.707,6.291-1.126,8.346-9.1,8.363Z"/><path class="cls-1" d="M681.009,198.996c-9.579-6.276-16.711-5.762-22.902,2.113-12.61,16.693-22.547,35.611-40.429,47.587-11.271,7.817-12.119,8.252-22.89,.187-42.217-29.435-34.778-74.744-37.544-119.983-.204-6.518,.968-13.08,1.603-20.718,17.599,.365,34.272-.326,50.466-7.223,12.095-4.802,11.918-14.819,1.094-20.877-14.058-7.004-30.554,.065-45.395-2.158-1.226-3.391-.772-4.799-.533-7.945,2.995-17.372-7.546-22.817-22.556-26.446-7.53-1.85-9.599-.674-11.29,6.619-2.08,8.97-3.996,17.979-5.968,26.908-23.212,1.144-45.18,3.302-67.358,9.612-7.73,2.067-9.971,7.684-5.909,13.617,6.868,10.031,15.875,17.245,28.825,16.839,14.321-1.435,27.668-5.186,42.16-7.774v14.445q-18.713,2.791-26.289,19.717c-7.17,20.512-13.306,41.633-19.685,62.478-.927,3.148-.596,8.182,1.36,10.395,7.633,8.641,15.225,17.712,27.415,20.467,12.452,2.813,24.887,4.605,38.08,.062,19.762,21.156,38.243,43.001,67.568,50.167,9.106,2.293,17.777,1.731,24.654-3.942,10.464-8.632,20.017-18.416,29.566-28.096,9.94-10.076,15.515-22.971,21.553-35.501,3.062-6.354,.161-16.776-5.596-20.548Zm-170.632,13.711c-3.592-15.314-2.606-29.952,3.519-45.616,19.012,9.799,5.614,33.618-3.519,45.616Z"/></g></g></g></svg>