<?xml version="1.0" encoding="UTF-8"?>
<svg id="_レイヤー_2" data-name="レイヤー 2" xmlns="http://www.w3.org/2000/svg" viewBox="0 0 4702.27 333.96">
  <defs>
    <style>
      .cls-1 {
        stroke-width: 5px;
      }

      .cls-1, .cls-2 {
        fill: none;
        stroke: #f47502;
      }

      .cls-2 {
        stroke-width: 5.02px;
      }

      .cls-3 {
        fill: #f47502;
        stroke-width: 0px;
      }
    </style>
  </defs>
  <g id="_レイヤー_1-2" data-name="レイヤー 1">
    <g>
      <path class="cls-3" d="m385.53,91.78c-7.63,3.03-14.74,3.76-22.11,2.24-2.26-.47-4.68-.85-6.93-.56-14.45,1.84-28.87,3.88-43.72,5.9-2.64,18.72-9.25,36.32-7.65,56.26,12.76,1.04,25,.58,37.68.49,11.84.12,11.84.2,21.58,7.94,1.65,11.73.72,12.55-11.11,15.03-16.55,3.46-33.14,6.72-50.54,10.23-2.25,20.16.16,39.82,1.33,60.69,13.86.53,26.59-2.17,40.22-1.64,12.56.49,25.19,1.84,37.56,4.08,12.45,2.25,13.32,4.1,14.93,18.63-29.56,6.59-60.21,7.94-90.13,12.68-16.78,2.37-33.39,5.97-50.15,8.55-5.49.85-11.21.22-16.82.26-11.57.08-17.5-8.61-24.02-15.97-2.92-3.29-1.23-9.42,3.55-11.96,15.97-7.79,34.54-5.01,51.54-9-1.75-19.19-3.44-37.74-5.18-56.73-3.07.25-5.08.1-6.9.62-14.12,3.99-30.51-2.35-38.01-14.82-2.82-4.68-.94-11.22,4.28-13.05,9.13-3.03,18.43-5.75,27.91-7.44,14.26-3.36,14.25-3.75,14.86-18.63.75-14.02,2.34-26.39,4.01-40.65-10.55.08-20.21.5-28.98,4.36-9.54,4.2-18.76,3.51-28.29,1.18-8.74-2.14-14.13-8.44-18.67-15.56-2.05-3.21-1.54-6.67,1.85-8.72,3.34-2.03,6.93-4.29,10.66-4.92,39.26-7.12,78.85-11.9,118.66-14.46,20.47-1.48,57.96-3.02,58.61,24.98Z"/>
      <path class="cls-3" d="m1621.81,92.53c10.19,3.47,38.44,7.53,38.45,19.92.31,6.18-3.92,8.19-8.54,10.6,5.12,2.53,9.8,4.47,14.69,6.88,8.16,5.33,8.46,13.32.92,19.52-7.19,6.33-14.36,10.74-19.9,19.02,7.44,7.57,15.64,13.73,21.13,22.54,2.65,5.08,1.6,10.67-2.09,14.9-9.14,11.66-26.25-1.93-35.09-11.73-11.83,8.44-20.28,33.07-13.15,45.33,8.62,14.83,17.25,19.2,32.49,11.03,11.81-5.78,21.31-17.99,34.56-20.49,6.71-.51,13.47,2.93,15.37,8.9,4.36,19.84-27.62,38.22-43.42,44.09-7.48,2.81-15.15.25-22.53-1.74-24.8-6.68-41.88-22.82-52.45-45.48-9.62-22.14,7.19-42.34,16.86-61.95-2.94-.72-5.67-2.01-8.37-1.95-12.39.3-21.33-5.6-28.9-14.75-3.66-4.43-4.26-8.72-1.89-13.79,2.09-4.46,3.93-9.03,6.18-14.23-15.28,1.18-26.64-4.01-34.66-15.99-3.23-4.83-2.74-8.74,2.14-11.75,3.3-2.04,7.12-3.96,10.88-4.39,10.19-1.17,20.47-1.9,30.72-2.04,4.86-.07,7.48-2.13,9.26-6.02,3.73-8.14,7.62-16.22,10.92-24.53,3.94-9.93,8.13-11.71,18.25-7.44,5.21,2.2,10.71,3.65,14.12,8.78,2.78,4.19,3.91,8.11.84,12.86-2.49,3.85-4.09,8.27-6.78,13.88Zm20.46,31.2c-.24-.67-.47-1.35-.71-2.02-9.55,0-19.09-.09-28.64.08-1.83.03-4.75.56-5.29,1.72-3.08,6.7-8.75,12.48-8.23,20.72,6.26,2.44,12.24,4.78,17.94,7.01,8.29-9.97,12.53-22.32,24.92-27.5Z"/>
      <path class="cls-3" d="m118.66,323.9c-2.8.8-5.94-1.17-8.24-3.2-13.32-11.76-21.98-28.1-27.12-45.11s-6.99-34.83-8.52-52.53c-3.14-36.48-5.02-73.18-2.18-109.69-18.03,18.49-33.96,39.03-47.38,61.09-1.51,2.48-3.06,5.06-5.43,6.74-5.2,3.69-12.26,1.94-18.64,1.84-4.29-18.35,4.04-37.25,14.13-53.17,12.59-19.87,28.18-37.66,44.44-54.67,16.76-17.54,34.31-34.34,52.56-50.32,5.44-4.76,11.98-9.93,19.43-10.7,6.74-.7,15.09,1.71,20.2,6.17,3.59,3.14,5.73,8.47,3.73,12.8-1.05,2.29-3.06,3.96-5,5.56-8.86,7.28-17.72,14.56-26.58,21.84-3.66,3.01-7.53,6.34-8.64,10.95-.67,2.78-.23,5.69-.09,8.55.36,6.95-1.01,13.85-2.21,20.7-11.13,63.44-8.39,129.28,7.99,191.58,2.35,8.94,4.95,18.61,1.51,27.2-.63,1.58-1.55,3.17-3.05,3.98-.3.16-.6.28-.91.37Z"/>
      <g>
        <path class="cls-3" d="m1404.57,120.5c-14.43,2.19-27.7,3.23-40.43,6.42-11.4,2.86-22.45,2.82-31.59-3.6-7.55-5.3-15.2-12.89-18.6-21.18-12.15-28.99-14.61-63.45-1.3-92.84,3.83-6.68,9.09-11.39,15.66-8.37,18.49,8.49,37.94,3.61,56.82,5.38,61.72,7.41,52.65,58.86,54.85,105.79.47,50.83,9.01,101.06,8.13,152.03.36,14.93-.5,29.86,2.35,44.73.79,4.11-1.34,8.79-2.17,13.43-14.26,1.4-32.06-4.51-33.37-20.19-.88-14.24-2.01-28.5-1.88-42.74.27-29.25-1.1-58.3-5.37-87.29-2.37-17.76-1.1-33.19-3.11-51.58Zm-5.92-71.65c.29-8.42-3.86-11.53-10.03-12.71-14.41-2.77-28.31-.95-41.62,5.15-6.35,2.91-7.25,5.65-4.99,13.31,18.71-1.9,37.43-3.79,56.64-5.74Zm4.3,28.44c-21.65,2.86-39.78,6.46-60.42,11.97-1.41,4.75,1.66,5.88,5.91,5.95,19.1.38,36.12,1.24,55.6-.8-.39-6.07-.71-11.13-1.09-17.12Z"/>
        <path class="cls-3" d="m1168.67,139.78c-.93,41.15-3.72,80.99,5.34,121.29,4.57,21.97,12.83,43.31,13.19,65.96-15.3,4.97-27.23-2.6-32.7-16.55-16.47-51.72-20.97-104.37-19.67-158.27.17-20.47,2.99-40.97,3.09-61.4-.44-15.39,3.24-30.13,5.63-45.06.94-5.85,3.51-11.43,5.29-17.14,1.47-4.74,4.99-7.56,9.58-7.35,13.13.6,24.61-4.81,36.2-9.51,8.8-4.42,17.18.81,25.68,3.28,12.09,4.53,20.42,13.12,22.73,25.69,3.36,18.29,5.43,36.81,7.84,55.26,1.17,8.96-2.41,14.69-11.19,18.53-16.38,7.16-32.27,15.46-48.31,23.37-4.58,2.26-8.96,4.15-14.27,2.03-1.94-.78-4.45-.12-8.44-.12Zm11.18-81.47c.48,1.03.96,2.07,1.45,3.1,9.18-1.73,18.36-3.45,27.49-5.17-.58-9.66-1.59-11.55-6.93-10.67-8.98,1.49-15.32,7.49-22,12.74Zm32.93,31.33c-.49-.72-.97-1.43-1.46-2.15-12.37,1.75-23.9,6.42-35.23,11.59-1.67.76-2.66,3.02-3.97,4.58.4.68.8,1.35,1.2,2.03,12.35-4.09,24.73-8.12,37.02-12.4,1.1-.38,1.64-2.4,2.43-3.66Z"/>
        <path class="cls-3" d="m1234,216.96c3.06-16.01,8.57-38.65,11.8-56.3.89-6.21,2.96-9.79,9.44-12.22,13.26-5.17,27.38-12.25,42.01-8.9,10.32,3.26,21.34,3.34,31.07,9.83,19.6,12.41,25.44,49.39,27.63,71.08.21,3.27,1.53,6.45,2.23,9.7,2.32,10.78-2.83,17.32-13.57,18.01-19.19,3.17-37.61,10.56-56.52,15.12-4.87,1.31-9.44,2.19-13.03,6.45-1.47,1.74-5.2,2.07-7.91,2.11-2.18.03-4.33-1.65-6.59-2.06-26.91-5.06-23.93-29.98-26.57-52.81Zm35.99,15.28c3.55.37,5.23.91,6.78.66,13.1-2.1,26.17-4.32,39.24-6.62,1.18-.21,3.19-1.3,3.17-1.9-.33-6.66.3-18.93-9.83-15.75-6.04,1.76-12.19,3.44-17.85,6.1-4.14,1.94-7.91,2.99-12.4,2.01-2.13-.46-4.44-.08-7.56-.08-.51,5.13-.98,9.87-1.55,15.58Zm11.85-52.01h29.01c-.27-6.76-4.14-9.57-8.74-12.3-6.66,3.83-15.48,3.67-20.27,12.3Z"/>
      </g>
      <g>
        <path class="cls-3" d="m1022.45,133.65c-4.9-1.57-8.49-3.44-12.21-3.75-5.19-.43-8.06-3.16-11.31-6.82-3.25-3.66-3.3-6.8-1.93-10.87,1.82-5.36,3.38-10.8,5.02-16.21,2.54-8.37,1.58-10.05-6.77-11.37-56.26-9.36-114.47-2.9-167.66,17.67-13.39,3.73-13.48,3.71-15.01,17.1-1.78,15.62-.47,31.13,1.86,47.46,4.26-1.92,5.96-5.37,7.93-8.61,10.01-16.35,21.5-31.74,31.98-47.79,5.5-7.05,5.09-19.49,16.62-18.34,17.15.26,34.84,10.98,23.26,29.46-17.8,27.18-38.12,52.85-56.94,79.37-5.05,6.9-8.41,7.86-17.02,5.16-6.56-2.06-13.35-3.84-14.77-12.25-.18-1.08-1.43-2.41-2.5-2.84-14.98-5.98-18.97-19.47-21.6-33.1-8.11-33.02-5.15-48.12,1.3-80.69,3.36-14.61,7.45-28.38,25.77-21.39,8.08,3.33,13,9.77,22.75,7.17,24.5-4.53,49.01-10.51,73.74-11.84,42.02-2.95,85.58-1.63,125.49,14.36,9.1,2.92,15.25,14.71,13.93,24.09-1.84,13.09-7.8,24.68-13.5,36.27-1.61,3.29-5.71,5.35-8.43,7.76Z"/>
        <path class="cls-3" d="m901.59,267.17c0-15.27-.06-29.83.03-44.39.03-5.03-2.89-7.2-7.22-7.98-8.19-1.48-13.45-7.01-17.77-13.34-1.86-2.72-3.87-7.71-2.64-9.62,2.03-3.14,6.5-6.14,10.2-6.5,9.87-.95,19.88-.33,29.83-.58,10.54-.26,21.07-.79,31.6-1.23,8.57-.45,32.56,2.63,31.09,14.46-.28,4.11-2.25,6.74-6.29,7.97-6.66,2.03-13.16,4.73-19.93,6.21-4.62,1.01-7.69,3.34-8.09,7.52-1.31,13.81-7.44,27-5.14,42.56,26.26-1.66,52.68-4.05,78.98-4.11,8.62.06,17.32,4.07,25.74,6.98,2.29.79,4.75,3.88,5.29,6.33,1.46,7.38-8.98,9.39-14.4,10.68-39.67,4.13-79.19,9.12-118.46,16.13-13.12,2.09-26.2,4.67-39.4,5.99-9.35.93-17.11-4.29-24.31-9.76-6.94-5.76-15.11-14.3-4.58-21.2,2.93-1.86,6.71-3.04,10.19-3.26,15.02-1.41,30.47,0,45.28-2.86Z"/>
        <path class="cls-3" d="m1024.08,181.92c-12.27,5.39-22.14-.26-31.52-5.77-16.93-9.93-33.27-20.87-46.39-35.76-5.91-6.7-11.15-14-16.62-21.09-2.77-3.59-2.76-7.55-.26-11.14,2.42-3.48,5.83-5.56,10.33-3.99,6.54,2.27,13.13,4.41,19.5,7.08,4.03,1.69,6.22,5.3,8.65,9.07,10.39,17.09,26.14,30.22,43.42,39.87,9.01,4.92,13.63,11.12,12.88,21.73Z"/>
        <path class="cls-3" d="m928.42,34.21c-8.21,6.37-17.31,4.86-26.16,4.43-11.59-.56-23.17-1.34-34.75-2.2-12.6-.94-22.68-6.84-30.07-16.85-5.23-7.09-1.66-15.23,7.2-15.79,9.2-.58,18.66-.59,27.71.91,12.35,2.05,24.32,6.28,36.64,8.62,11.73,2.23,18.19,8.57,19.43,20.88Z"/>
      </g>
      <path class="cls-3" d="m286.41,56.03c-27,13.86-34.3-19.47-41.93-38.19-5.97-15.12,11.51-11.9,20.42-9.5,13.45,3.45,15.98,14.86,18.08,27,1.23,6.78,2.26,13.59,3.42,20.7Z"/>
      <path class="cls-3" d="m2600.57,300.51c-8.46.97-15.81-.59-21.68-6.1-8.17-7.67-15.93-15.77-23.86-23.69-3.38-3.38-4.83-7.42-2.23-11.64,2.74-4.45,6.74-7.75,12.45-5.53,6.1,2.36,12.39,4.61,17.87,8.07,8.61,5.45,13.78,14.18,18.54,22.93,2.73,5.03,1.82,10.24-1.1,15.95Z"/>
      <path class="cls-3" d="m2398.28,47.24c-13.31,2.16-23.16,5.64-33.47,1.59-5.04-1.98-9.81-3.44-10.42-9.7-.48-5.01,2.86-10.16,9.97-11.55,22.16-4.34,44.61-6.77,66.79-.53,11.15,3.13,13.69,11.03,7.02,21.12-16.89,25.14-33.39,49.77-51.3,74.33,2.28.92,3.31,1.76,4.24,1.66,13.43-1.44,25.82,2.89,38,7.37,45.66,15.66,54.63,56,55.74,99.54-6.67,23.13-15.36,44.59-38.27,57.32-10.44,5.8-19.83,13.21-32.63,11.73-10.24-1.26-18.87-3.99-29.21-6.82-13.61-15.55-12.63-33-3.41-51.02,4.22-8.24,5.81-18.51,16.21-22.16,15.87-6.96,30.59-7.12,48.42-8.08.65-31.69-23.14-71.71-60.45-58.77-7.84,3.64-16.18,7.26-22.48,12.92-9.66,8.68-20.12,8.17-31.08,5.79-5.47-1.19-10.45-4.8-11.39-10.79-.92-5.82,2.18-10.25,6.85-14.17,5.02-4.21,9.64-9.18,13.44-14.52,19.62-28.94,40.19-54.35,57.42-85.24Zm43.46,193.69c-27.09.51-34.43,8.64-26.85,30.09,11.43-7.97,22.63-15.26,26.85-30.09Z"/>
      <path class="cls-3" d="m1916.28,268.33c-15.02-31.99,35.59-10.73,45.79-87.98.78-5.02-.87-11.44-3.64-15.81-41.41-64.99-89.31-59.66-153.86-34.62-13.44,4.88-25.95,5.63-38.67-1.74-18.57-10.97-3.04-25.63,10.8-30.29,62.04-20.51,137.22-31.68,190.06,15.77,14.95,12.01,44.58,49.46,42.13,68.67-5.78,34.12-22.86,61.91-48.88,84.31-12.48,11.03-29.59,5.75-43.73,1.7Z"/>
      <path class="cls-3" d="m2214.25,287.1c-17.31.45-31.72-10.55-45.99-21.42-37.7-28.58-64.62-67.32-82.39-110.86-3.09-8.56-1.97-14.26,5.42-18.76,18.79-11.44,31.61-28.99,47.11-43.8,11.29-10.79,23.58-20.61,36-30.1,10.22-8.07,26.63-4.16,34.54,6.8,11.63,13.17,11.28,18.05-3.09,27.62-22.16,14.77-40.49,33.76-58.7,52.83-9.61,10.07-9.58,12.74-3.34,25.06,18.73,38.72,39.34,61.81,76.72,83.58,7.81,5.27,10.87,12.93,9,21.92-1.35,6.45-4.13,7.98-15.28,7.14Z"/>
      <g>
        <g>
          <path class="cls-3" d="m4193.98,96.33c-33.16,2.17-33.02,31.45-61.19,18.19-4.32-1.87-8.23-5.04-11.79-8.23-7.81-6.98-6.53-18.02,2.81-23.07,29.43-17.22,58.59-25.68,92.82-22.17,8.34.46,15.81,4.75,22.07,11,5.6,5.59,6.48,11.49,3.99,18.55-5.84,16.57-11.54,33.18-17.4,49.73-.78,2.19-1.68,5-3.42,6.06-8.23,5.02-17.33,3.19-25.44.5-7.26-2.41-8.87-9.34-7.46-17.01,1.94-10.54,3.21-21.2,5.03-33.55Z"/>
          <path class="cls-3" d="m4161.15,292.93c-9.33-1.88-19.15-3.51-28.76-5.99-3.65-.94-7.23-3.37-10.06-5.97-6.15-5.66-7.3-11.06-4.59-17.13,2.75-6.16,7.62-9.45,15.75-8.03,45.4,7.63,70.12-11.63,108.83-28.9,8.38-3.76,17-6.14,26.37-1.31,9.09,4.69,9.1,7.05,2.65,14.59-12.59,14.73-30.22,21.03-45.88,30.8-21.41,14.34-38.86,19.02-64.32,21.93Z"/>
        </g>
        <g>
          <path class="cls-3" d="m4454.44,45.62c.59.11,1.23.42,1.76.29,11.02-2.6,21.12,3.02,31.66,3.99,4.84,5.1,12.21,5.11,17.74,8.81,14.32,9.03,38.87,23.34,22.67,42.34-5.13,5.47-10.38,10.83-15.34,16.45-2.84,3.23-4.65,7.22-9.28,8.84-2.64.92-2.95,5.39-.48,8.41,4.82,5.43,9.63,11.16,15.41,15.61,4.54,3.11,6.54,7.65,7.87,12.8,1.02,3.94,3.8,7.16,4.74,11.3,2.33,10.29,5.85,20.69,4.71,31.1-.97,8.76-.82,17.64-3.06,26.49-2.32,9.19-4.8,18.36-7.6,27.39-1.34,4.33-1.45,9.41-5.32,12.89-1.47,1.32.07,3.63-1.91,5.73-7.61,9.65-12.4,23.27-25.29,27.39-13.44,4.19-22.23.51-30.92-9.92-4.27-4.82-.99-16.52,3.76-20.66,13.86-12.89,19.84-31.62,24.77-49.33,1.71-8.55,2.16-17.35,3.5-25.99,1.07-6.9-.36-13.48-1.7-20.11-.67-3.31-1.49-6.65-4.25-9.03-7.61-22.2-38.54-21.91-38.73-43.58.14-5.92,2.17-11.03,7.48-13.94,9.92-5.43,17.76-13.32,25.75-21.03,5.23-4.95,9.21-13.1-1.7-13.14-8.16-.41-16.31-.99-24.47-1.16-6.44-.13-12.05-2.77-17.45-5.61-5.53-2.91-8.14-11.47-5.72-17.26,3.44-7.02,14.19-9.26,21.42-9.06Z"/>
          <path class="cls-3" d="m4419.28,191.14c-.05,2.35-.76,5.7-3.36,8.97-8.07,10.19-16.62,20.58-20.34,33.3-1.2,3.5-2.59,6.95-3.09,10.63-.91,4.44-1.19,9.14-2.91,13.24-5.57,14.98-24.58,17.58-33.94,4.35-5.08-6.88-8.83-15.73-6.43-24.39,1.38-4.06,1.39-8.57,2.12-12.87,1.19-6.9,3.45-13.24,7.09-19.45,10.71-16.27,25.04-49.48,48.84-33.53,7.32,5.23,13.29,8.95,12.02,19.74Z"/>
          <path class="cls-3" d="m4571.07,197.14c6.15-.94,12.43,2.99,19.21,4.94,1.37,3.85,6.33,2.85,8.18,6.07,5.07,9.83,12.63,17.99,18.7,27.16,4.16,6.24,7.89,12.79,11.55,19.34,1.62,2.89,1.81,6-.7,8.82-2.59,4.3-4.41,8.79-10.52,7.69-9.47-1.39-18.16-5-25.64-10.64-4.47-3.37-7.58-8.58-11.18-13.06-4.06-5.05-8-10.19-11.98-15.3-6.23-9.24-15.13-14.97-13.06-27.27.12-.91.52-2.19,1.2-2.57,4.08-2.29,7.64-5.96,14.24-5.18Z"/>
          <path class="cls-3" d="m4680.06,131.07c-11.35-.1-20.59-10.47-20.14-20.34.13-2.95-.31-5.98-.92-8.89-2.37-11.25-.67-22.61-1.13-33.91-.06-1.45.55-3.37,1.56-4.33,4.2-3.98,8.46-7.83,15.17-6.43,4.27.89,8.42,1.27,11.9,4.57,2.21,2.1,6.09,2.58,8.01,4.82,3.04,3.56,5.13,7.95,7.47,12.07.42.74.34,1.97.09,2.86-1.86,6.51-1.56,13.21-2.02,19.86-1.41,13.61-5.63,25.69-19.99,29.71Z"/>
          <path class="cls-3" d="m4587.48,75.93c.52-12.62,12.09-19.31,23.4-13.43,1.23.64,2.51,1.47,3.83,1.59,5.89.55,9.36,4.95,13.56,8.2.31.24.71.59.73.91.43,5.25,4.06,9.76,3.18,15.38-.66,5.64-.11,11.47-.48,17.16-.06,2.18-.44,4.41-.1,6.53.32,2.02,2.18,3.63.73,6.09-2.47,4.16-5.31,7.92-9.19,10.83-31.5,3.09-30.2-30.93-35.65-53.26Z"/>
        </g>
        <g>
          <path class="cls-3" d="m3930.75,67.96c1.54-9.15,3.13-17.63,4.36-26.16,1.83-12.71,7.07-16.94,19.21-13.69,26.31,4.36,22.66,20.24,17.51,41.99,15.73,6.57,48.41,6.71,44.42,30.72-15.09,6.31-30.82-1.14-47.64,2.2-1.7,20.22-2.52,41.9-3.93,62.36-.61,8.87,3.46,13.92,11.38,17.59,15.88,7.36,31.56,15.19,47,23.43,6.32,3.38,12.12,7.96,17.54,12.7,2.7,2.36,4.81,6.07,5.81,9.57,2.08,7.27-2.7,13.76-10.27,14.48-11.35,1.07-20.71-4.2-29.58-10.28-11.77-8.06-24.55-13.45-40.2-16.76-.37,4.76-1.24,8.73-.87,12.58,1.57,16-2.89,30.97-7.26,46-2.71,9.33-9.23,15.76-16.69,21.18-17.03,12.33-56.1-11.25-66.94-26.02-25.55-29.88,2.5-65.72,22.36-89.96,1.61-1.97,4.11-3.46,6.48-4.53,7.25-3.25,14.64-6.18,22.28-9.36,3.33-10.68,4-52.99.49-63.6-20.18,4.36-43.57,13.02-58.71-6.89-8.31-10.18-6.46-19.42,6.56-22,19.27-3.16,36.75-5.41,56.68-5.54Zm-16.44,197.99c12.92-11.02,18.7-42.19,11.04-59.06-15.42,14.18-33,42.61-11.04,59.06Z"/>
          <path class="cls-3" d="m3787.24,289.48c-42.81-4.01-53.45-46.95-54.13-82.64-.92-38.53.78-76.82,8.51-114.69,1.89-9.26,7.19-13.78,16.09-11.28,7.14,2.01,13.87,5.93,20.27,9.85,2.03,1.24,3.16,5.15,3.32,7.92.19,3.3-.84,6.77-1.8,10.03-12.89,46.63-11.95,95.6-.61,142.24,1.09,4.46,3.66,6.67,8.76,7.34,13.31,1.74,19.35,14.26,11.7,25.2-2.51,3.6-8.85,4.52-12.11,6.04Z"/>
        </g>
      </g>
      <g>
        <path class="cls-3" d="m726.53,159.85c-7.38-1.67-16.24-3.63-23.18-9.72-13.45-11.79-26.38-24.1-37.25-38.47-6.84-7.5-.43-18.96,9.16-17.33,9.31,1.44,18.01,4.84,24.67,11.76,9.41,9.77,18.32,20.01,27.69,29.82,4.28,4.48,7.31,9.34,8.01,15.57.71,6.29-1.13,8.35-9.1,8.36Z"/>
        <path class="cls-3" d="m681.01,199c-9.58-6.28-16.71-5.76-22.9,2.11-12.61,16.69-22.55,35.61-40.43,47.59-11.27,7.82-12.12,8.25-22.89.19-42.22-29.43-34.78-74.74-37.54-119.98-.2-6.52.97-13.08,1.6-20.72,17.6.36,34.27-.33,50.47-7.22,12.1-4.8,11.92-14.82,1.09-20.88-14.06-7-30.55.06-45.4-2.16-1.23-3.39-.77-4.8-.53-7.95,3-17.37-7.55-22.82-22.56-26.45-7.53-1.85-9.6-.67-11.29,6.62-2.08,8.97-4,17.98-5.97,26.91-23.21,1.14-45.18,3.3-67.36,9.61-7.73,2.07-9.97,7.68-5.91,13.62,6.87,10.03,15.87,17.25,28.83,16.84,14.32-1.44,27.67-5.19,42.16-7.77v14.45q-18.71,2.79-26.29,19.72c-7.17,20.51-13.31,41.63-19.68,62.48-.93,3.15-.6,8.18,1.36,10.39,7.63,8.64,15.23,17.71,27.42,20.47,12.45,2.81,24.89,4.61,38.08.06,19.76,21.16,38.24,43,67.57,50.17,9.11,2.29,17.78,1.73,24.65-3.94,10.46-8.63,20.02-18.42,29.57-28.1,9.94-10.08,15.52-22.97,21.55-35.5,3.06-6.35.16-16.78-5.6-20.55Zm-170.63,13.71c-3.59-15.31-2.61-29.95,3.52-45.62,19.01,9.8,5.61,33.62-3.52,45.62Z"/>
      </g>
      <g>
        <path class="cls-1" d="m3528.31,156.12c13.15.94,26.36,1.81,39.56,2.85,6.79.53,13.57,1.21,20.31,2.14,2.5.35,5.12,1.22,7.25,2.54,5.38,3.35,5.44,9.63-.33,12.26-5.83,2.65-12.2,4.58-18.53,5.56-11.53,1.79-23.2,2.63-34.81,3.91-2.25.25-4.49.69-6.73,1.07-3.87.66-5.46,3.04-5.3,6.87.89,21.43,5.44,42.01,16.8,60.34,10.21,16.47,22.77,17.5,39.13,7.21,13.23-8.33,21.51-21.29,27.03-35.99,3.98-10.61,8.37-21.08,12.77-31.53,1.99-4.72,13.74-11.21,18.38-10.52,4.9.73,9.87,5.46,9.78,10.65-.12,6.74-.77,13.56-2.07,20.17-1.56,7.94-3.98,15.73-6.15,23.55-4.74,17.06-13.84,31.41-27.53,42.6-13.95,11.4-29.66,17.01-47.96,13.17-5.7-1.2-11.79-.98-17.28-2.73-20.79-6.63-34.58-20.74-42.67-40.92-6.93-17.29-11.25-35.23-14.14-53.53-.75-4.74-2.8-6.38-7.22-7.46-6.22-1.53-12.55-3.46-18.13-6.51-8.59-4.69-9.94-12.51-4.87-20.66,2.06-3.3,4.6-5.19,8.64-5.26,5.47-.09,10.93-.56,17.1-.9,2.5-12.2,2.06-24.11,1.25-36.03-.35-5.11-4-6.16-8.33-5.97-7.46.32-14.93.9-22.39.91-9.05.02-17.34-2.25-23.64-9.44-3.38-3.87-5.96-8.04-3.82-13.24,2.27-5.52,6.41-8.89,12.75-8.81,11.36.15,22.71.26,34.07.43,2.27.03,4.54.25,6.81.38,4.09.24,6.04-1.91,6.16-5.78.1-3.23-.1-6.48-.12-9.72-.02-3.56-.47-7.2.13-10.65,1.13-6.48,6.75-11.02,13.22-10.27,4.73.55,9.51,1.98,13.88,3.89,7.32,3.21,10.59,9.08,9.7,17.28-.55,5.05-.5,10.16-.76,16.28,10.59.92,20.25,1.4,29.81,2.7,7.33,1,14.53,3.01,21.77,4.63.93.21,2.1.54,2.61,1.22,2.4,3.25,4.62,6.64,6.9,9.98-3.24,1.84-6.31,4.79-9.76,5.33-10.56,1.65-21.25,2.4-31.9,3.46-4.2.42-8.44.55-12.61,1.15-8.99,1.3-10.23,2.62-10.94,11.79-.79,10.31-1.9,20.67,2.2,31.6Z"/>
        <path class="cls-3" d="m3528.31,156.12c13.15.94,26.36,1.81,39.56,2.85,6.79.53,13.57,1.21,20.31,2.14,2.5.35,5.12,1.22,7.25,2.54,5.38,3.35,5.44,9.63-.33,12.26-5.83,2.65-12.2,4.58-18.53,5.56-11.53,1.79-23.2,2.63-34.81,3.91-2.25.25-4.49.69-6.73,1.07-3.87.66-5.46,3.04-5.3,6.87.89,21.43,5.44,42.01,16.8,60.34,10.21,16.47,22.77,17.5,39.13,7.21,13.23-8.33,21.51-21.29,27.03-35.99,3.98-10.61,8.37-21.08,12.77-31.53,1.99-4.72,13.74-11.21,18.38-10.52,4.9.73,9.87,5.46,9.78,10.65-.12,6.74-.77,13.56-2.07,20.17-1.56,7.94-3.98,15.73-6.15,23.55-4.74,17.06-13.84,31.41-27.53,42.6-13.95,11.4-29.66,17.01-47.96,13.17-5.7-1.2-11.79-.98-17.28-2.73-20.79-6.63-34.58-20.74-42.67-40.92-6.93-17.29-11.25-35.23-14.14-53.53-.75-4.74-2.8-6.38-7.22-7.46-6.22-1.53-12.55-3.46-18.13-6.51-8.59-4.69-9.94-12.51-4.87-20.66,2.06-3.3,4.6-5.19,8.64-5.26,5.47-.09,10.93-.56,17.1-.9,2.5-12.2,2.06-24.11,1.25-36.03-.35-5.11-4-6.16-8.33-5.97-7.46.32-14.93.9-22.39.91-9.05.02-17.34-2.25-23.64-9.44-3.38-3.87-5.96-8.04-3.82-13.24,2.27-5.52,6.41-8.89,12.75-8.81,11.36.15,22.71.26,34.07.43,2.27.03,4.54.25,6.81.38,4.09.24,6.04-1.91,6.16-5.78.1-3.23-.1-6.48-.12-9.72-.02-3.56-.47-7.2.13-10.65,1.13-6.48,6.75-11.02,13.22-10.27,4.73.55,9.51,1.98,13.88,3.89,7.32,3.21,10.59,9.08,9.7,17.28-.55,5.05-.5,10.16-.76,16.28,10.59.92,20.25,1.4,29.81,2.7,7.33,1,14.53,3.01,21.77,4.63.93.21,2.1.54,2.61,1.22,2.4,3.25,4.62,6.64,6.9,9.98-3.24,1.84-6.31,4.79-9.76,5.33-10.56,1.65-21.25,2.4-31.9,3.46-4.2.42-8.44.55-12.61,1.15-8.99,1.3-10.23,2.62-10.94,11.79-.79,10.31-1.9,20.67,2.2,31.6Z"/>
      </g>
      <g>
        <path class="cls-3" d="m3114.64,130.94c0-9.71-.42-19.43.11-29.11.66-12.17,4.83-15.85,16.8-15.76,3.85.03,7.86.16,11.5,1.23,13.27,3.9,16.79,8.46,14.31,22.17-5.11,28.35-4.13,56.49,1.14,84.56,1.71,9.09,4.46,18.09,7.7,26.77,2.37,6.34,4.77,6.57,10.76,2.82,5.92-3.71,11.7-7.65,17.62-11.37,2.29-1.44,4.64-3.19,7.19-3.73,6.87-1.46,14.38-2.99,19.94,2.49,4.86,4.79,2.06,11.29.33,16.61-7.17,22.12-22.98,36.15-44.91,41.63-14.04,3.51-26.92-2.25-35.92-14.21-11.43-15.19-17.96-32.64-21.36-51.13-2.53-13.73-4.38-27.63-5.54-41.54-.87-10.4-.17-20.94-.17-31.42h.5Z"/>
        <path class="cls-3" d="m3360,187.63c-.08,6.51-2.67,11.56-7.18,15.69-3.45,3.15-7.21,4.79-11.13.54-.26-.29-.51-.75-.82-.8-14.29-2.39-16.15-14.49-20.34-25.23-9.92-25.46-14.11-52.35-20.33-78.72-3.15-13.34,5.21-21.73,19-20.27,2.7.29,5.49.34,8.06,1.11,11.8,3.5,17.79,9.76,18.92,20.6,2.28,21.96,5.49,43.82,8.71,65.67,1.07,7.23,3.37,14.28,5.11,21.42Z"/>
      </g>
      <g>
        <g>
          <g>
            <path class="cls-3" d="m3025.59,36.62c-2-5.75-5.5-10.05-10.84-12.44-4.63-2.07-9.59-3.62-14.56-4.66-12.54-2.63-25.27-2.59-37.91-1.03-11.81,1.46-23.35,3.83-33.15,11.67-4.58,3.66-6.94,7.18-5.15,13.05.69,2.27,1.01,4.84.73,7.18-1.45,12.32-3.15,24.61-5.2,40.23-.3,11.26-.72,25.8-1.03,40.34-.03,1.59.58,3.18.76,4.79,1.25,10.97,3.14,21.92,3.45,32.92.2,7.15,2.74,11.81,8.57,15.23,5.07,2.98,10.52,4.59,16.28,3.02,8.05-2.19,15.94-4.96,23.96-7.27,16.33-4.72,32.69-9.3,49.04-13.95,7.16-2.03,8.51-3.63,8.71-10.62.23-8.08.43-16.17.56-24.25.27-17.54.52-35.08.72-52.61.16-14.07-.22-28.05-4.93-41.59Zm-68.89,13.91c1.3-2.24,4.33-4.08,6.95-4.83,6.45-1.83,13.05-3.25,19.68-4.25,9.76-1.47,14.23,1.57,16.27,11.16.8,3.76.28,7.79.36,11.91-8.99,2.09-16.32-2.37-24.02-2.04-7.44.32-14.87.86-23.96,1.4,1.82-5.43,2.63-9.76,4.71-13.34Zm-1.08,42.98c11.73-4.15,23.54-8.18,36.28-7.59,3.5.16,7.97-.26,8.63,4.13.73,4.91.08,10.06-.39,15.07-.06.61-2.9,1.63-4.2,1.33-14.98-3.43-29.53-.09-44.16,2.39-.98.17-2.06-.28-3.57-.51-1.5-10.21-.81-11.9,7.41-14.81Zm45.64,43.89c-.09.8-.24,1.6-.37,2.39.02,0,.04,0,.05,0-.25,1.6-.48,3.2-.75,4.79-.46,2.74-2.04,4.08-4.85,4.51-12.74,1.96-25.46,4.07-38.19,6.11-1.86.3-3.73.67-5.6.7-.98.02-2.19-.36-2.91-1-3.56-3.16-1.43-15.28,3.11-16.57,13.2-3.75,26.4-7.53,39.77-10.56,9.39-2.13,10.89-.23,9.74,9.62Z"/>
            <path class="cls-3" d="m2910.09,106.36c-5.71,4-11.54,3.45-17.27,1.93-15.66-4.16-31.51-7.71-46.14-15.08-2.31-1.16-5.04-1.48-8.61-2.47-.64,3.29-1.51,5.8-1.55,8.32-.26,18.61-.29,37.22-.53,55.84-.17,12.97-.53,25.93-.94,38.9-.05,1.47-.58,3.35-1.59,4.29-5.03,4.7-11.26,5.26-17.44,3.4-5.62-1.69-8.87-5.97-9.24-12.05-.16-2.7-.38-5.41-.26-8.1.86-19.96,1.9-39.9,2.66-59.86.23-6.12-.22-12.27-.41-20.46-3.32,2.68-5.78,3.88-7.07,5.85-3.98,6.07-7.61,12.38-11.15,18.72-1.44,2.58-2.32,5.46-3.41,8.23-1.31,3.34-3.79,5.23-7.27,5.7-5.06.68-10.14,1.22-15.4,1.84-.62-1.09-1.62-2-1.58-2.87.66-12.46,1.52-24.86,9.34-35.49,2.39-3.25,4.13-6.98,6.46-10.29,4.34-6.16,8.76-12.29,13.41-18.22,3.95-5.04,4.11-4.91,4.4-11.53-2.14.33-4.15.43-6.05.95-6.51,1.79-12.89,4.13-19.47,5.49-7.71,1.58-15.15-.11-21.52-4.76-8.13-5.93-7.34-12.57,1.98-16.1,5.02-1.91,10.37-3.07,15.65-4.12,11.92-2.38,23.96-4.23,35.84-6.78,8.6-1.85,9.3-3.35,9.11-12.39-.1-4.59-.25-9.22.24-13.76.75-6.92,4.93-9.85,11.74-8.84,11.72,1.74,17.48,8.31,17.72,20.17.21,10.44.21,10.35,10.88,10.97,10.89.63,21.36,3.23,31.51,7.18,2.56,1,5.13,2.14,5.18,5.48.06,3.77-2.85,5.35-5.69,5.9-4.19.81-8.55.9-12.84.97-5.67.08-11.34-.2-17.01-.25-3.99-.04-6.54,1.72-7.63,5.8-1.01,3.78-.68,6.75,2.67,9.31,11.66,8.89,23.85,16.83,37.62,22.11,4.54,1.74,9.1,3.43,13.66,5.13,4.83,1.8,8.28,4.89,10.01,10.95Z"/>
          </g>
          <g>
            <g>
              <path class="cls-3" d="m2940.36,314.49c-25.25-4.65-42.65-23.56-58.65-42.16-7.21-8.39-10.64-18.65-11.61-29.61-.26-2.89.18-5.98.96-8.8,1.18-4.25,4.59-6.43,8.88-5.86,11.51,1.54,18.34,8.12,17.27,18.15-1.42,13.33,11.09,27.43,19.84,36.2,10.68,10.7,23.93,14.29,38.83,12.98,15.08-1.32,30.15-3.53,45.16-5.08,3.8-.39,6.2-2.26,7.68-5.86,1.46-3.56,2.98-7.57,8.1-6.95,5.56.68,11.2,1.55,12.88,8.22,1.05,4.21,2.17,8.49,2.42,12.79.47,7.96-3.49,11.86-11.46,12.19-25.56,1.05-54.28,8.25-79.48,3.94-.27-.05-.54-.09-.8-.14Z"/>
              <path class="cls-3" d="m2783.6,294.94c3.14-14.39,7.28-28.41,13.19-41.9.82-1.86,1.02-3.99,1.61-5.96,1.25-4.17,2.28-8.43,3.9-12.45,4.44-11,16.5-12.56,23.86-3.16,2.94,3.77,3,7.75,1.09,12.25-4.03,9.47-8.3,18.92-11.2,28.75-4.86,16.47-8.7,33.24-13.06,49.86-.63,2.39-1.21,5.13-2.74,6.9-4.18,4.82-8.05,5.92-13.32,3.48-6.53-3.03-8.13-4.44-7.34-11.31,1.02-8.85,2.65-17.63,4.02-26.45Z"/>
              <path class="cls-3" d="m2950.98,202.71c2.97,1.66,6.13,3.05,8.85,5.04,3.95,2.88,5.84,6.77,4.92,11.95-.64,3.56-.88,7.27-.73,10.88.26,6.45,3.43,11.7,7.58,16.5,1.55,1.79,3.99,3.54,2.41,6.52-1.33,2.5-4.75,3.36-8.57,2.21-3.06-.92-6.31-1.55-9.08-3.04-3.35-1.79-7.03-3.78-9.27-6.68-7.73-10.06-10.27-21.83-9.06-34.31.69-7.08,5.74-10.24,12.96-9.07Z"/>
              <path class="cls-3" d="m3027.36,244.95c-3.94-.26-7.07-2.69-9-6.67-1.79-3.69-3.84-7.32-5.06-11.2-2.44-7.77,3.29-13.93,11.16-12.12,15.29,3.51,17.24,11.84,16.02,24.13-.52,5.26-3.84,7.37-9.19,6.71-1.13-.14-2.23-.48-3.93-.86Z"/>
            </g>
            <g>
              <path class="cls-2" d="m2940.36,314.49c-25.25-4.65-42.65-23.56-58.65-42.16-7.21-8.39-10.64-18.65-11.61-29.61-.26-2.89.18-5.98.96-8.8,1.18-4.25,4.59-6.43,8.88-5.86,11.51,1.54,18.34,8.12,17.27,18.15-1.42,13.33,11.09,27.43,19.84,36.2,10.68,10.7,23.93,14.29,38.83,12.98,15.08-1.32,30.15-3.53,45.16-5.08,3.8-.39,6.2-2.26,7.68-5.86,1.46-3.56,2.98-7.57,8.1-6.95,5.56.68,11.2,1.55,12.88,8.22,1.05,4.21,2.17,8.49,2.42,12.79.47,7.96-3.49,11.86-11.46,12.19-25.56,1.05-54.28,8.25-79.48,3.94-.27-.05-.54-.09-.8-.14Z"/>
              <path class="cls-2" d="m2783.6,294.94c3.14-14.39,7.28-28.41,13.19-41.9.82-1.86,1.02-3.99,1.61-5.96,1.25-4.17,2.28-8.43,3.9-12.45,4.44-11,16.5-12.56,23.86-3.16,2.94,3.77,3,7.75,1.09,12.25-4.03,9.47-8.3,18.92-11.2,28.75-4.86,16.47-8.7,33.24-13.06,49.86-.63,2.39-1.21,5.13-2.74,6.9-4.18,4.82-8.05,5.92-13.32,3.48-6.53-3.03-8.13-4.44-7.34-11.31,1.02-8.85,2.65-17.63,4.02-26.45Z"/>
              <path class="cls-2" d="m2950.98,202.71c2.97,1.66,6.13,3.05,8.85,5.04,3.95,2.88,5.84,6.77,4.92,11.95-.64,3.56-.88,7.27-.73,10.88.26,6.45,3.43,11.7,7.58,16.5,1.55,1.79,3.99,3.54,2.41,6.52-1.33,2.5-4.75,3.36-8.57,2.21-3.06-.92-6.31-1.55-9.08-3.04-3.35-1.79-7.03-3.78-9.27-6.68-7.73-10.06-10.27-21.83-9.06-34.31.69-7.08,5.74-10.24,12.96-9.07Z"/>
              <path class="cls-2" d="m3027.36,244.95c-3.94-.26-7.07-2.69-9-6.67-1.79-3.69-3.84-7.32-5.06-11.2-2.44-7.77,3.29-13.93,11.16-12.12,15.29,3.51,17.24,11.84,16.02,24.13-.52,5.26-3.84,7.37-9.19,6.71-1.13-.14-2.23-.48-3.93-.86Z"/>
            </g>
          </g>
        </g>
        <g>
          <g>
            <path class="cls-1" d="m3025.59,36.62c-2-5.75-5.5-10.05-10.84-12.44-4.63-2.07-9.59-3.62-14.56-4.66-12.54-2.63-25.27-2.59-37.91-1.03-11.81,1.46-23.35,3.83-33.15,11.67-4.58,3.66-6.94,7.18-5.15,13.05.69,2.27,1.01,4.84.73,7.18-1.45,12.32-3.15,24.61-5.2,40.23-.3,11.26-.72,25.8-1.03,40.34-.03,1.59.58,3.18.76,4.79,1.25,10.97,3.14,21.92,3.45,32.92.2,7.15,2.74,11.81,8.57,15.23,5.07,2.98,10.52,4.59,16.28,3.02,8.05-2.19,15.94-4.96,23.96-7.27,16.33-4.72,32.69-9.3,49.04-13.95,7.16-2.03,8.51-3.63,8.71-10.62.23-8.08.43-16.17.56-24.25.27-17.54.52-35.08.72-52.61.16-14.07-.22-28.05-4.93-41.59Zm-68.89,13.91c1.3-2.24,4.33-4.08,6.95-4.83,6.45-1.83,13.05-3.25,19.68-4.25,9.76-1.47,14.23,1.57,16.27,11.16.8,3.76.28,7.79.36,11.91-8.99,2.09-16.32-2.37-24.02-2.04-7.44.32-14.87.86-23.96,1.4,1.82-5.43,2.63-9.76,4.71-13.34Zm-1.08,42.98c11.73-4.15,23.54-8.18,36.28-7.59,3.5.16,7.97-.26,8.63,4.13.73,4.91.08,10.06-.39,15.07-.06.61-2.9,1.63-4.2,1.33-14.98-3.43-29.53-.09-44.16,2.39-.98.17-2.06-.28-3.57-.51-1.5-10.21-.81-11.9,7.41-14.81Zm45.64,43.89c-.09.8-.24,1.6-.37,2.39.02,0,.04,0,.05,0-.25,1.6-.48,3.2-.75,4.79-.46,2.74-2.04,4.08-4.85,4.51-12.74,1.96-25.46,4.07-38.19,6.11-1.86.3-3.73.67-5.6.7-.98.02-2.19-.36-2.91-1-3.56-3.16-1.43-15.28,3.11-16.57,13.2-3.75,26.4-7.53,39.77-10.56,9.39-2.13,10.89-.23,9.74,9.62Z"/>
            <path class="cls-1" d="m2910.09,106.36c-5.71,4-11.54,3.45-17.27,1.93-15.66-4.16-31.51-7.71-46.14-15.08-2.31-1.16-5.04-1.48-8.61-2.47-.64,3.29-1.51,5.8-1.55,8.32-.26,18.61-.29,37.22-.53,55.84-.17,12.97-.53,25.93-.94,38.9-.05,1.47-.58,3.35-1.59,4.29-5.03,4.7-11.26,5.26-17.44,3.4-5.62-1.69-8.87-5.97-9.24-12.05-.16-2.7-.38-5.41-.26-8.1.86-19.96,1.9-39.9,2.66-59.86.23-6.12-.22-12.27-.41-20.46-3.32,2.68-5.78,3.88-7.07,5.85-3.98,6.07-7.61,12.38-11.15,18.72-1.44,2.58-2.32,5.46-3.41,8.23-1.31,3.34-3.79,5.23-7.27,5.7-5.06.68-10.14,1.22-15.4,1.84-.62-1.09-1.62-2-1.58-2.87.66-12.46,1.52-24.86,9.34-35.49,2.39-3.25,4.13-6.98,6.46-10.29,4.34-6.16,8.76-12.29,13.41-18.22,3.95-5.04,4.11-4.91,4.4-11.53-2.14.33-4.15.43-6.05.95-6.51,1.79-12.89,4.13-19.47,5.49-7.71,1.58-15.15-.11-21.52-4.76-8.13-5.93-7.34-12.57,1.98-16.1,5.02-1.91,10.37-3.07,15.65-4.12,11.92-2.38,23.96-4.23,35.84-6.78,8.6-1.85,9.3-3.35,9.11-12.39-.1-4.59-.25-9.22.24-13.76.75-6.92,4.93-9.85,11.74-8.84,11.72,1.74,17.48,8.31,17.72,20.17.21,10.44.21,10.35,10.88,10.97,10.89.63,21.36,3.23,31.51,7.18,2.56,1,5.13,2.14,5.18,5.48.06,3.77-2.85,5.35-5.69,5.9-4.19.81-8.55.9-12.84.97-5.67.08-11.34-.2-17.01-.25-3.99-.04-6.54,1.72-7.63,5.8-1.01,3.78-.68,6.75,2.67,9.31,11.66,8.89,23.85,16.83,37.62,22.11,4.54,1.74,9.1,3.43,13.66,5.13,4.83,1.8,8.28,4.89,10.01,10.95Z"/>
          </g>
          <g>
            <g>
              <path class="cls-1" d="m2940.36,314.49c-25.25-4.65-42.65-23.56-58.65-42.16-7.21-8.39-10.64-18.65-11.61-29.61-.26-2.89.18-5.98.96-8.8,1.18-4.25,4.59-6.43,8.88-5.86,11.51,1.54,18.34,8.12,17.27,18.15-1.42,13.33,11.09,27.43,19.84,36.2,10.68,10.7,23.93,14.29,38.83,12.98,15.08-1.32,30.15-3.53,45.16-5.08,3.8-.39,6.2-2.26,7.68-5.86,1.46-3.56,2.98-7.57,8.1-6.95,5.56.68,11.2,1.55,12.88,8.22,1.05,4.21,2.17,8.49,2.42,12.79.47,7.96-3.49,11.86-11.46,12.19-25.56,1.05-54.28,8.25-79.48,3.94-.27-.05-.54-.09-.8-.14Z"/>
              <path class="cls-1" d="m2783.6,294.94c3.14-14.39,7.28-28.41,13.19-41.9.82-1.86,1.02-3.99,1.61-5.96,1.25-4.17,2.28-8.43,3.9-12.45,4.44-11,16.5-12.56,23.86-3.16,2.94,3.77,3,7.75,1.09,12.25-4.03,9.47-8.3,18.92-11.2,28.75-4.86,16.47-8.7,33.24-13.06,49.86-.63,2.39-1.21,5.13-2.74,6.9-4.18,4.82-8.05,5.92-13.32,3.48-6.53-3.03-8.13-4.44-7.34-11.31,1.02-8.85,2.65-17.63,4.02-26.45Z"/>
              <path class="cls-1" d="m2950.98,202.71c2.97,1.66,6.13,3.05,8.85,5.04,3.95,2.88,5.84,6.77,4.92,11.95-.64,3.56-.88,7.27-.73,10.88.26,6.45,3.43,11.7,7.58,16.5,1.55,1.79,3.99,3.54,2.41,6.52-1.33,2.5-4.75,3.36-8.57,2.21-3.06-.92-6.31-1.55-9.08-3.04-3.35-1.79-7.03-3.78-9.27-6.68-7.73-10.06-10.27-21.83-9.06-34.31.69-7.08,5.74-10.24,12.96-9.07Z"/>
              <path class="cls-1" d="m3027.36,244.95c-3.94-.26-7.07-2.69-9-6.67-1.79-3.69-3.84-7.32-5.06-11.2-2.44-7.77,3.29-13.93,11.16-12.12,15.29,3.51,17.24,11.84,16.02,24.13-.52,5.26-3.84,7.37-9.19,6.71-1.13-.14-2.23-.48-3.93-.86Z"/>
            </g>
            <g>
              <path class="cls-1" d="m2940.36,314.49c-25.25-4.65-42.65-23.56-58.65-42.16-7.21-8.39-10.64-18.65-11.61-29.61-.26-2.89.18-5.98.96-8.8,1.18-4.25,4.59-6.43,8.88-5.86,11.51,1.54,18.34,8.12,17.27,18.15-1.42,13.33,11.09,27.43,19.84,36.2,10.68,10.7,23.93,14.29,38.83,12.98,15.08-1.32,30.15-3.53,45.16-5.08,3.8-.39,6.2-2.26,7.68-5.86,1.46-3.56,2.98-7.57,8.1-6.95,5.56.68,11.2,1.55,12.88,8.22,1.05,4.21,2.17,8.49,2.42,12.79.47,7.96-3.49,11.86-11.46,12.19-25.56,1.05-54.28,8.25-79.48,3.94-.27-.05-.54-.09-.8-.14Z"/>
              <path class="cls-1" d="m2783.6,294.94c3.14-14.39,7.28-28.41,13.19-41.9.82-1.86,1.02-3.99,1.61-5.96,1.25-4.17,2.28-8.43,3.9-12.45,4.44-11,16.5-12.56,23.86-3.16,2.94,3.77,3,7.75,1.09,12.25-4.03,9.47-8.3,18.92-11.2,28.75-4.86,16.47-8.7,33.24-13.06,49.86-.63,2.39-1.21,5.13-2.74,6.9-4.18,4.82-8.05,5.92-13.32,3.48-6.53-3.03-8.13-4.44-7.34-11.31,1.02-8.85,2.65-17.63,4.02-26.45Z"/>
              <path class="cls-1" d="m2950.98,202.71c2.97,1.66,6.13,3.05,8.85,5.04,3.95,2.88,5.84,6.77,4.92,11.95-.64,3.56-.88,7.27-.73,10.88.26,6.45,3.43,11.7,7.58,16.5,1.55,1.79,3.99,3.54,2.41,6.52-1.33,2.5-4.75,3.36-8.57,2.21-3.06-.92-6.31-1.55-9.08-3.04-3.35-1.79-7.03-3.78-9.27-6.68-7.73-10.06-10.27-21.83-9.06-34.31.69-7.08,5.74-10.24,12.96-9.07Z"/>
              <path class="cls-1" d="m3027.36,244.95c-3.94-.26-7.07-2.69-9-6.67-1.79-3.69-3.84-7.32-5.06-11.2-2.44-7.77,3.29-13.93,11.16-12.12,15.29,3.51,17.24,11.84,16.02,24.13-.52,5.26-3.84,7.37-9.19,6.71-1.13-.14-2.23-.48-3.93-.86Z"/>
            </g>
            <g>
              <path class="cls-1" d="m2940.36,314.49c-25.25-4.65-42.65-23.56-58.65-42.16-7.21-8.39-10.64-18.65-11.61-29.61-.26-2.89.18-5.98.96-8.8,1.18-4.25,4.59-6.43,8.88-5.86,11.51,1.54,18.34,8.12,17.27,18.15-1.42,13.33,11.09,27.43,19.84,36.2,10.68,10.7,23.93,14.29,38.83,12.98,15.08-1.32,30.15-3.53,45.16-5.08,3.8-.39,6.2-2.26,7.68-5.86,1.46-3.56,2.98-7.57,8.1-6.95,5.56.68,11.2,1.55,12.88,8.22,1.05,4.21,2.17,8.49,2.42,12.79.47,7.96-3.49,11.86-11.46,12.19-25.56,1.05-54.28,8.25-79.48,3.94-.27-.05-.54-.09-.8-.14Z"/>
              <path class="cls-1" d="m2783.6,294.94c3.14-14.39,7.28-28.41,13.19-41.9.82-1.86,1.02-3.99,1.61-5.96,1.25-4.17,2.28-8.43,3.9-12.45,4.44-11,16.5-12.56,23.86-3.16,2.94,3.77,3,7.75,1.09,12.25-4.03,9.47-8.3,18.92-11.2,28.75-4.86,16.47-8.7,33.24-13.06,49.86-.63,2.39-1.21,5.13-2.74,6.9-4.18,4.82-8.05,5.92-13.32,3.48-6.53-3.03-8.13-4.44-7.34-11.31,1.02-8.85,2.65-17.63,4.02-26.45Z"/>
              <path class="cls-1" d="m2950.98,202.71c2.97,1.66,6.13,3.05,8.85,5.04,3.95,2.88,5.84,6.77,4.92,11.95-.64,3.56-.88,7.27-.73,10.88.26,6.45,3.43,11.7,7.58,16.5,1.55,1.79,3.99,3.54,2.41,6.52-1.33,2.5-4.75,3.36-8.57,2.21-3.06-.92-6.31-1.55-9.08-3.04-3.35-1.79-7.03-3.78-9.27-6.68-7.73-10.06-10.27-21.83-9.06-34.31.69-7.08,5.74-10.24,12.96-9.07Z"/>
              <path class="cls-1" d="m3027.36,244.95c-3.94-.26-7.07-2.69-9-6.67-1.79-3.69-3.84-7.32-5.06-11.2-2.44-7.77,3.29-13.93,11.16-12.12,15.29,3.51,17.24,11.84,16.02,24.13-.52,5.26-3.84,7.37-9.19,6.71-1.13-.14-2.23-.48-3.93-.86Z"/>
            </g>
          </g>
        </g>
        <g>
          <g>
            <path class="cls-3" d="m3025.59,36.62c-2-5.75-5.5-10.05-10.84-12.44-4.63-2.07-9.59-3.62-14.56-4.66-12.54-2.63-25.27-2.59-37.91-1.03-11.81,1.46-23.35,3.83-33.15,11.67-4.58,3.66-6.94,7.18-5.15,13.05.69,2.27,1.01,4.84.73,7.18-1.45,12.32-3.15,24.61-5.2,40.23-.3,11.26-.72,25.8-1.03,40.34-.03,1.59.58,3.18.76,4.79,1.25,10.97,3.14,21.92,3.45,32.92.2,7.15,2.74,11.81,8.57,15.23,5.07,2.98,10.52,4.59,16.28,3.02,8.05-2.19,15.94-4.96,23.96-7.27,16.33-4.72,32.69-9.3,49.04-13.95,7.16-2.03,8.51-3.63,8.71-10.62.23-8.08.43-16.17.56-24.25.27-17.54.52-35.08.72-52.61.16-14.07-.22-28.05-4.93-41.59Zm-68.89,13.91c1.3-2.24,4.33-4.08,6.95-4.83,6.45-1.83,13.05-3.25,19.68-4.25,9.76-1.47,14.23,1.57,16.27,11.16.8,3.76.28,7.79.36,11.91-8.99,2.09-16.32-2.37-24.02-2.04-7.44.32-14.87.86-23.96,1.4,1.82-5.43,2.63-9.76,4.71-13.34Zm-1.08,42.98c11.73-4.15,23.54-8.18,36.28-7.59,3.5.16,7.97-.26,8.63,4.13.73,4.91.08,10.06-.39,15.07-.06.61-2.9,1.63-4.2,1.33-14.98-3.43-29.53-.09-44.16,2.39-.98.17-2.06-.28-3.57-.51-1.5-10.21-.81-11.9,7.41-14.81Zm45.64,43.89c-.09.8-.24,1.6-.37,2.39.02,0,.04,0,.05,0-.25,1.6-.48,3.2-.75,4.79-.46,2.74-2.04,4.08-4.85,4.51-12.74,1.96-25.46,4.07-38.19,6.11-1.86.3-3.73.67-5.6.7-.98.02-2.19-.36-2.91-1-3.56-3.16-1.43-15.28,3.11-16.57,13.2-3.75,26.4-7.53,39.77-10.56,9.39-2.13,10.89-.23,9.74,9.62Z"/>
            <path class="cls-3" d="m2910.09,106.36c-5.71,4-11.54,3.45-17.27,1.93-15.66-4.16-31.51-7.71-46.14-15.08-2.31-1.16-5.04-1.48-8.61-2.47-.64,3.29-1.51,5.8-1.55,8.32-.26,18.61-.29,37.22-.53,55.84-.17,12.97-.53,25.93-.94,38.9-.05,1.47-.58,3.35-1.59,4.29-5.03,4.7-11.26,5.26-17.44,3.4-5.62-1.69-8.87-5.97-9.24-12.05-.16-2.7-.38-5.41-.26-8.1.86-19.96,1.9-39.9,2.66-59.86.23-6.12-.22-12.27-.41-20.46-3.32,2.68-5.78,3.88-7.07,5.85-3.98,6.07-7.61,12.38-11.15,18.72-1.44,2.58-2.32,5.46-3.41,8.23-1.31,3.34-3.79,5.23-7.27,5.7-5.06.68-10.14,1.22-15.4,1.84-.62-1.09-1.62-2-1.58-2.87.66-12.46,1.52-24.86,9.34-35.49,2.39-3.25,4.13-6.98,6.46-10.29,4.34-6.16,8.76-12.29,13.41-18.22,3.95-5.04,4.11-4.91,4.4-11.53-2.14.33-4.15.43-6.05.95-6.51,1.79-12.89,4.13-19.47,5.49-7.71,1.58-15.15-.11-21.52-4.76-8.13-5.93-7.34-12.57,1.98-16.1,5.02-1.91,10.37-3.07,15.65-4.12,11.92-2.38,23.96-4.23,35.84-6.78,8.6-1.85,9.3-3.35,9.11-12.39-.1-4.59-.25-9.22.24-13.76.75-6.92,4.93-9.85,11.74-8.84,11.72,1.74,17.48,8.31,17.72,20.17.21,10.44.21,10.35,10.88,10.97,10.89.63,21.36,3.23,31.51,7.18,2.56,1,5.13,2.14,5.18,5.48.06,3.77-2.85,5.35-5.69,5.9-4.19.81-8.55.9-12.84.97-5.67.08-11.34-.2-17.01-.25-3.99-.04-6.54,1.72-7.63,5.8-1.01,3.78-.68,6.75,2.67,9.31,11.66,8.89,23.85,16.83,37.62,22.11,4.54,1.74,9.1,3.43,13.66,5.13,4.83,1.8,8.28,4.89,10.01,10.95Z"/>
          </g>
          <g>
            <g>
              <path class="cls-3" d="m2940.36,314.49c-25.25-4.65-42.65-23.56-58.65-42.16-7.21-8.39-10.64-18.65-11.61-29.61-.26-2.89.18-5.98.96-8.8,1.18-4.25,4.59-6.43,8.88-5.86,11.51,1.54,18.34,8.12,17.27,18.15-1.42,13.33,11.09,27.43,19.84,36.2,10.68,10.7,23.93,14.29,38.83,12.98,15.08-1.32,30.15-3.53,45.16-5.08,3.8-.39,6.2-2.26,7.68-5.86,1.46-3.56,2.98-7.57,8.1-6.95,5.56.68,11.2,1.55,12.88,8.22,1.05,4.21,2.17,8.49,2.42,12.79.47,7.96-3.49,11.86-11.46,12.19-25.56,1.05-54.28,8.25-79.48,3.94-.27-.05-.54-.09-.8-.14Z"/>
              <path class="cls-3" d="m2783.6,294.94c3.14-14.39,7.28-28.41,13.19-41.9.82-1.86,1.02-3.99,1.61-5.96,1.25-4.17,2.28-8.43,3.9-12.45,4.44-11,16.5-12.56,23.86-3.16,2.94,3.77,3,7.75,1.09,12.25-4.03,9.47-8.3,18.92-11.2,28.75-4.86,16.47-8.7,33.24-13.06,49.86-.63,2.39-1.21,5.13-2.74,6.9-4.18,4.82-8.05,5.92-13.32,3.48-6.53-3.03-8.13-4.44-7.34-11.31,1.02-8.85,2.65-17.63,4.02-26.45Z"/>
              <path class="cls-3" d="m2950.98,202.71c2.97,1.66,6.13,3.05,8.85,5.04,3.95,2.88,5.84,6.77,4.92,11.95-.64,3.56-.88,7.27-.73,10.88.26,6.45,3.43,11.7,7.58,16.5,1.55,1.79,3.99,3.54,2.41,6.52-1.33,2.5-4.75,3.36-8.57,2.21-3.06-.92-6.31-1.55-9.08-3.04-3.35-1.79-7.03-3.78-9.27-6.68-7.73-10.06-10.27-21.83-9.06-34.31.69-7.08,5.74-10.24,12.96-9.07Z"/>
              <path class="cls-3" d="m3027.36,244.95c-3.94-.26-7.07-2.69-9-6.67-1.79-3.69-3.84-7.32-5.06-11.2-2.44-7.77,3.29-13.93,11.16-12.12,15.29,3.51,17.24,11.84,16.02,24.13-.52,5.26-3.84,7.37-9.19,6.71-1.13-.14-2.23-.48-3.93-.86Z"/>
            </g>
            <g>
              <path class="cls-3" d="m2940.36,314.49c-25.25-4.65-42.65-23.56-58.65-42.16-7.21-8.39-10.64-18.65-11.61-29.61-.26-2.89.18-5.98.96-8.8,1.18-4.25,4.59-6.43,8.88-5.86,11.51,1.54,18.34,8.12,17.27,18.15-1.42,13.33,11.09,27.43,19.84,36.2,10.68,10.7,23.93,14.29,38.83,12.98,15.08-1.32,30.15-3.53,45.16-5.08,3.8-.39,6.2-2.26,7.68-5.86,1.46-3.56,2.98-7.57,8.1-6.95,5.56.68,11.2,1.55,12.88,8.22,1.05,4.21,2.17,8.49,2.42,12.79.47,7.96-3.49,11.86-11.46,12.19-25.56,1.05-54.28,8.25-79.48,3.94-.27-.05-.54-.09-.8-.14Z"/>
              <path class="cls-3" d="m2783.6,294.94c3.14-14.39,7.28-28.41,13.19-41.9.82-1.86,1.02-3.99,1.61-5.96,1.25-4.17,2.28-8.43,3.9-12.45,4.44-11,16.5-12.56,23.86-3.16,2.94,3.77,3,7.75,1.09,12.25-4.03,9.47-8.3,18.92-11.2,28.75-4.86,16.47-8.7,33.24-13.06,49.86-.63,2.39-1.21,5.13-2.74,6.9-4.18,4.82-8.05,5.92-13.32,3.48-6.53-3.03-8.13-4.44-7.34-11.31,1.02-8.85,2.65-17.63,4.02-26.45Z"/>
              <path class="cls-3" d="m2950.98,202.71c2.97,1.66,6.13,3.05,8.85,5.04,3.95,2.88,5.84,6.77,4.92,11.95-.64,3.56-.88,7.27-.73,10.88.26,6.45,3.43,11.7,7.58,16.5,1.55,1.79,3.99,3.54,2.41,6.52-1.33,2.5-4.75,3.36-8.57,2.21-3.06-.92-6.31-1.55-9.08-3.04-3.35-1.79-7.03-3.78-9.27-6.68-7.73-10.06-10.27-21.83-9.06-34.31.69-7.08,5.74-10.24,12.96-9.07Z"/>
              <path class="cls-3" d="m3027.36,244.95c-3.94-.26-7.07-2.69-9-6.67-1.79-3.69-3.84-7.32-5.06-11.2-2.44-7.77,3.29-13.93,11.16-12.12,15.29,3.51,17.24,11.84,16.02,24.13-.52,5.26-3.84,7.37-9.19,6.71-1.13-.14-2.23-.48-3.93-.86Z"/>
            </g>
            <g>
              <path class="cls-3" d="m2940.36,314.49c-25.25-4.65-42.65-23.56-58.65-42.16-7.21-8.39-10.64-18.65-11.61-29.61-.26-2.89.18-5.98.96-8.8,1.18-4.25,4.59-6.43,8.88-5.86,11.51,1.54,18.34,8.12,17.27,18.15-1.42,13.33,11.09,27.43,19.84,36.2,10.68,10.7,23.93,14.29,38.83,12.98,15.08-1.32,30.15-3.53,45.16-5.08,3.8-.39,6.2-2.26,7.68-5.86,1.46-3.56,2.98-7.57,8.1-6.95,5.56.68,11.2,1.55,12.88,8.22,1.05,4.21,2.17,8.49,2.42,12.79.47,7.96-3.49,11.86-11.46,12.19-25.56,1.05-54.28,8.25-79.48,3.94-.27-.05-.54-.09-.8-.14Z"/>
              <path class="cls-3" d="m2783.6,294.94c3.14-14.39,7.28-28.41,13.19-41.9.82-1.86,1.02-3.99,1.61-5.96,1.25-4.17,2.28-8.43,3.9-12.45,4.44-11,16.5-12.56,23.86-3.16,2.94,3.77,3,7.75,1.09,12.25-4.03,9.47-8.3,18.92-11.2,28.75-4.86,16.47-8.7,33.24-13.06,49.86-.63,2.39-1.21,5.13-2.74,6.9-4.18,4.82-8.05,5.92-13.32,3.48-6.53-3.03-8.13-4.44-7.34-11.31,1.02-8.85,2.65-17.63,4.02-26.45Z"/>
              <path class="cls-3" d="m2950.98,202.71c2.97,1.66,6.13,3.05,8.85,5.04,3.95,2.88,5.84,6.77,4.92,11.95-.64,3.56-.88,7.27-.73,10.88.26,6.45,3.43,11.7,7.58,16.5,1.55,1.79,3.99,3.54,2.41,6.52-1.33,2.5-4.75,3.36-8.57,2.21-3.06-.92-6.31-1.55-9.08-3.04-3.35-1.79-7.03-3.78-9.27-6.68-7.73-10.06-10.27-21.83-9.06-34.31.69-7.08,5.74-10.24,12.96-9.07Z"/>
              <path class="cls-3" d="m3027.36,244.95c-3.94-.26-7.07-2.69-9-6.67-1.79-3.69-3.84-7.32-5.06-11.2-2.44-7.77,3.29-13.93,11.16-12.12,15.29,3.51,17.24,11.84,16.02,24.13-.52,5.26-3.84,7.37-9.19,6.71-1.13-.14-2.23-.48-3.93-.86Z"/>
            </g>
          </g>
        </g>
      </g>
    </g>
  </g>
</svg>